<?xml version="1.0" encoding="UTF-8"?>
<svg width="40px" height="40px" viewBox="0 0 40 40" version="1.1" xmlns="http://www.w3.org/2000/svg" xmlns:xlink="http://www.w3.org/1999/xlink">
    <!-- Generator: Sketch 52.5 (67469) - http://www.bohemiancoding.com/sketch -->
    <title>Combined Shape 2</title>
    <desc>Created with Sketch.</desc>
    <g id="v.02_1" stroke="none" stroke-width="1" fill="none" fill-rule="evenodd">
        <g id="HiveConf_LP_Schedule" transform="translate(-650.000000, -1766.000000)" fill="#4A4A4A" fill-rule="nonzero">
            <g id="Speakers" transform="translate(165.000000, 856.000000)">
                <g id="Group-2" transform="translate(485.000000, 910.000000)">
                    <g id="Combined-Shape-2">
                        <path d="M40,20 C40,31.0315789 31.0315789,40 20,40 C8.96842105,40 0,31.0315789 0,20 C0,8.96842105 8.96842105,0 20,0 C31.0315789,0 40,8.96842105 40,20 Z M3.74736842,20 C3.74736842,28.9684211 11.0315789,36.2526316 20,36.2526316 C28.9684211,36.2526316 36.2526316,28.9684211 36.2526316,20 C36.2526316,11.0315789 28.9684211,3.74736842 20,3.74736842 C11.0315789,3.74736842 3.74736842,11.0315789 3.74736842,20 Z M29.0526316,19.1578947 L21.3894737,26.9473684 C21.0105263,27.2842105 20.5473684,27.4947368 20.0421053,27.4947368 C19.5368421,27.4947368 19.0315789,27.2842105 18.6947368,26.9473684 L10.9473684,19.2 C10.5684211,18.8210526 10.4,18.3157895 10.4,17.8526316 C10.4,17.3473684 10.5684211,16.8842105 10.9473684,16.5052632 C11.6631579,15.7894737 12.8842105,15.7894737 13.6,16.5052632 L20,22.9052632 L26.4,16.5052632 C27.1157895,15.7894737 28.3368421,15.7894737 29.0526316,16.5052632 C29.7684211,17.2210526 29.7684211,18.4421053 29.0526316,19.1578947 Z" id="Combined-Shape"></path>
                    </g>
                </g>
            </g>
        </g>
    </g>
</svg>