<?xml version="1.0" encoding="UTF-8"?>
<svg width="28px" height="27px" viewBox="0 0 28 27" version="1.1" xmlns="http://www.w3.org/2000/svg" xmlns:xlink="http://www.w3.org/1999/xlink">
    <!-- Generator: Sketch 52.5 (67469) - http://www.bohemiancoding.com/sketch -->
    <title>Calendar</title>
    <desc>Created with Sketch.</desc>
    <g id="v.02_1" stroke="none" stroke-width="1" fill="none" fill-rule="evenodd">
        <g id="HiveConf_Landing_Page" transform="translate(-234.000000, -593.000000)" fill="#4A4A4A">
            <g id="Main" transform="translate(-82.000000, -266.000000)">
                <g id="Group-10" transform="translate(316.000000, 859.000000)">
                    <g id="Calendar">
                        <g id="noun_Calendar_2303131">
                            <path d="M25.6209678,9.09090911 L25.6209678,5.68181818 C25.6209678,5 25.1709677,4.54545455 24.4959677,4.54545455 L22.2459678,4.54545455 L22.2459678,5.68181818 C22.2459678,6.36363635 21.7959677,6.81818182 21.1209677,6.81818182 C20.4459677,6.81818182 19.9959677,6.36363635 19.9959677,5.68181818 L19.9959677,4.54545455 L7.87500002,4.54545455 L7.87500002,5.68181818 C7.87500002,6.36363635 7.425,6.81818182 6.75,6.81818182 C6.075,6.81818182 5.62499998,6.36363635 5.62499998,5.68181818 L5.62499998,4.54545455 L3.375,4.54545455 C2.7,4.54545455 2.25,5 2.25,5.68181818 L2.25,9.09090911 L25.6209678,9.09090911 Z M25.6209678,11.3636364 L2.25,11.3636364 L2.25,23.315047 C2.25,23.9968652 2.7,24.4514106 3.375,24.4514106 L24.4959677,24.4514106 C25.1709677,24.4514106 25.6209678,23.9968652 25.6209678,23.315047 L25.6209678,11.3636364 Z M22.2459678,2.42946708 L24.4959677,2.42946708 C26.4084677,2.42946708 27.8709677,4.00862069 27.8709677,6.07366771 L27.8709677,23.0799373 C27.8709677,25.1449843 26.4084677,26.7241379 24.4959677,26.7241379 L3.375,26.7241379 C1.4625,26.7241379 0,25.1449843 0,23.0799373 L0,6.07366771 C0,4.00862069 1.4625,2.42946708 3.375,2.42946708 L5.62499998,2.42946708 L5.62499998,1.21473354 C5.62499998,0.485893417 6.075,0 6.75,0 C7.425,0 7.87500002,0.485893417 7.87500002,1.21473354 L7.87500002,2.42946708 L19.9959677,2.42946708 L19.9959677,1.21473354 C19.9959677,0.485893417 20.4459677,0 21.1209677,0 C21.7959677,0 22.2459678,0.485893417 22.2459678,1.21473354 L22.2459678,2.42946708 Z M7.09677419,13.7931034 L8.58064516,13.7931034 C9.13292991,13.7931034 9.58064516,14.2408187 9.58064516,14.7931034 L9.58064516,16.2413793 C9.58064516,16.7936641 9.13292991,17.2413793 8.58064516,17.2413793 L7.09677419,17.2413793 C6.54448944,17.2413793 6.09677419,16.7936641 6.09677419,16.2413793 L6.09677419,14.7931034 C6.09677419,14.2408187 6.54448944,13.7931034 7.09677419,13.7931034 Z M7.09677419,18.9655172 L8.58064516,18.9655172 C9.13292991,18.9655172 9.58064516,19.4132325 9.58064516,19.9655172 L9.58064516,21.4137931 C9.58064516,21.9660779 9.13292991,22.4137931 8.58064516,22.4137931 L7.09677419,22.4137931 C6.54448944,22.4137931 6.09677419,21.9660779 6.09677419,21.4137931 L6.09677419,19.9655172 C6.09677419,19.4132325 6.54448944,18.9655172 7.09677419,18.9655172 Z M13.1935484,13.7931034 L14.6774194,13.7931034 C15.2297041,13.7931034 15.6774194,14.2408187 15.6774194,14.7931034 L15.6774194,16.2413793 C15.6774194,16.7936641 15.2297041,17.2413793 14.6774194,17.2413793 L13.1935484,17.2413793 C12.6412636,17.2413793 12.1935484,16.7936641 12.1935484,16.2413793 L12.1935484,14.7931034 C12.1935484,14.2408187 12.6412636,13.7931034 13.1935484,13.7931034 Z M13.1935484,18.9655172 L14.6774194,18.9655172 C15.2297041,18.9655172 15.6774194,19.4132325 15.6774194,19.9655172 L15.6774194,21.4137931 C15.6774194,21.9660779 15.2297041,22.4137931 14.6774194,22.4137931 L13.1935484,22.4137931 C12.6412636,22.4137931 12.1935484,21.9660779 12.1935484,21.4137931 L12.1935484,19.9655172 C12.1935484,19.4132325 12.6412636,18.9655172 13.1935484,18.9655172 Z M19.2903226,13.7931034 L20.7741935,13.7931034 C21.3264783,13.7931034 21.7741935,14.2408187 21.7741935,14.7931034 L21.7741935,16.2413793 C21.7741935,16.7936641 21.3264783,17.2413793 20.7741935,17.2413793 L19.2903226,17.2413793 C18.7380378,17.2413793 18.2903226,16.7936641 18.2903226,16.2413793 L18.2903226,14.7931034 C18.2903226,14.2408187 18.7380378,13.7931034 19.2903226,13.7931034 Z M19.2903226,18.9655172 L20.7741935,18.9655172 C21.3264783,18.9655172 21.7741935,19.4132325 21.7741935,19.9655172 L21.7741935,21.4137931 C21.7741935,21.9660779 21.3264783,22.4137931 20.7741935,22.4137931 L19.2903226,22.4137931 C18.7380378,22.4137931 18.2903226,21.9660779 18.2903226,21.4137931 L18.2903226,19.9655172 C18.2903226,19.4132325 18.7380378,18.9655172 19.2903226,18.9655172 Z" id="Shape" fill-rule="nonzero"></path>
                        </g>
                    </g>
                </g>
            </g>
        </g>
    </g>
</svg>