<svg xmlns="http://www.w3.org/2000/svg" viewBox="0 0 400.86 390.96"><defs><style>.cls-1{fill-rule:evenodd;}</style></defs><title>Asset 3</title><g id="Layer_2" data-name="Layer 2"><g id="Layer_1-2" data-name="Layer 1"><path class="cls-1" d="M200.42,0C89.75,0,0,89.73,0,200.44A200.46,200.46,0,0,0,137.08,390.62c10,1.83,13.68-4.35,13.68-9.67,0-4.75-.18-17.36-.28-34.08C94.73,359,83,320,83,320c-9.12-23.16-22.26-29.32-22.26-29.32-18.19-12.44,1.38-12.18,1.38-12.18,20.12,1.41,30.7,20.65,30.7,20.65,17.88,30.63,46.91,21.79,58.33,16.65,1.82-12.95,7-21.78,12.73-26.79C119.34,284,72.55,266.76,72.55,190c0-21.88,7.81-39.77,20.63-53.78-2.06-5.07-8.94-25.45,2-53,0,0,16.83-5.39,55.11,20.54a190.17,190.17,0,0,1,100.36,0c38.26-25.93,55.06-20.54,55.06-20.54,10.94,27.59,4.06,48,2,53,12.84,14,20.6,31.9,20.6,53.78,0,77-46.86,93.94-91.51,98.9,7.19,6.19,13.6,18.42,13.6,37.12,0,26.8-.24,48.41-.24,55,0,5.36,3.61,11.6,13.78,9.64a200.49,200.49,0,0,0,137-190.15C400.86,89.73,311.11,0,200.42,0Z"/></g></g></svg>