<?xml version="1.0" encoding="UTF-8"?>
<svg width="32px" height="32px" viewBox="0 0 32 32" version="1.1" xmlns="http://www.w3.org/2000/svg" xmlns:xlink="http://www.w3.org/1999/xlink">
    <!-- Generator: Sketch 52.5 (67469) - http://www.bohemiancoding.com/sketch -->
    <title>Shape</title>
    <desc>Created with Sketch.</desc>
    <defs>
        <path d="M477.417849,398.829614 C478.318883,398.829614 479.035089,399.568967 479.035089,400.470052 C479.035089,401.371138 478.295779,402.11049 477.417849,402.11049 C476.516814,402.11049 475.777504,401.371138 475.777504,400.446948 C475.800608,399.545862 476.516814,398.829614 477.417849,398.829614 Z M477.272315,414.829614 C482.795163,414.829614 487.272315,410.352462 487.272315,404.829614 C487.272315,399.306767 482.795163,394.829614 477.272315,394.829614 C471.749468,394.829614 467.272315,399.306767 467.272315,404.829614 C467.272315,410.352462 471.749468,414.829614 477.272315,414.829614 Z M474.80716,409.342281 C474.87647,408.764662 474.968884,408.163938 475.084401,407.586319 C475.246125,406.569709 475.430953,405.5531 475.61578,404.53649 C475.61578,404.467176 475.638884,404.397862 475.638884,404.351652 C475.638884,403.935767 475.500263,403.774033 475.084401,403.727824 C474.899574,403.704719 474.714746,403.681614 474.553022,403.635405 C474.345091,403.56609 474.252677,403.404357 474.275781,403.219519 C474.298884,403.034681 474.414401,402.919157 474.645436,402.896052 C474.760953,402.872947 474.899574,402.872947 475.015091,402.872947 C475.523366,402.872947 476.008539,402.872947 476.516814,402.872947 C477.048193,402.872947 477.579573,402.872947 478.110952,402.872947 C478.480607,402.872947 478.711641,403.057786 478.734745,403.427462 C478.734745,403.750928 478.688538,404.074395 478.642331,404.374757 C478.4344,405.529995 478.226469,406.708338 477.995434,407.863576 C477.926124,408.256357 477.856814,408.626033 477.810607,409.018814 C477.787504,409.203652 477.810607,409.411595 477.856814,409.573328 C477.926124,409.827481 478.110952,409.943005 478.341986,409.9199 C478.549917,409.896795 478.757848,409.827481 478.942676,409.758166 C479.1044,409.688852 479.24302,409.596433 479.404744,409.527119 C479.635779,409.4347 479.84371,409.596433 479.774399,409.850585 C479.728192,409.989214 479.658882,410.127843 479.543365,410.243366 C478.942676,410.84409 478.249572,411.190662 477.394745,411.213766 C477.001987,411.213766 476.609228,411.213766 476.21647,411.144452 C475.523366,411.005824 474.691643,410.197157 474.80716,409.342281 Z" id="path-1"></path>
        <filter x="-52.5%" y="-37.5%" width="205.0%" height="205.0%" filterUnits="objectBoundingBox" id="filter-2">
            <feOffset dx="0" dy="3" in="SourceAlpha" result="shadowOffsetOuter1"></feOffset>
            <feGaussianBlur stdDeviation="3" in="shadowOffsetOuter1" result="shadowBlurOuter1"></feGaussianBlur>
            <feColorMatrix values="0 0 0 0 0   0 0 0 0 0   0 0 0 0 0  0 0 0 0.6 0" type="matrix" in="shadowBlurOuter1"></feColorMatrix>
        </filter>
    </defs>
    <g id="v.02_1" stroke="none" stroke-width="1" fill="none" fill-rule="evenodd">
        <g id="HiveConf_Landing_Page-Copy-6" transform="translate(-626.000000, -1248.000000)" fill-rule="nonzero">
            <g id="Speakers" transform="translate(165.000000, 856.000000)">
                <g id="Shape">
                    <use fill="black" fill-opacity="1" filter="url(#filter-2)" xlink:href="#path-1"></use>
                    <use fill="#FFFFFF" xlink:href="#path-1"></use>
                </g>
            </g>
        </g>
    </g>
</svg>