<svg xmlns="http://www.w3.org/2000/svg" viewBox="0 0 400 400"><title>Asset 2</title><g id="Layer_2" data-name="Layer 2"><g id="Layer_1-2" data-name="Layer 1"><g id="Dark_Blue" data-name="Dark Blue"><path d="M200,400C89.72,400,0,310.28,0,200S89.72,0,200,0,400,89.72,400,200,310.28,400,200,400ZM200,9.76C95.1,9.76,9.76,95.1,9.76,200S95.1,390.24,200,390.24,390.24,304.9,390.24,200,304.9,9.76,200,9.76Z"/></g><rect x="121.89" y="159.61" width="38.17" height="122.77"/><path d="M141,98.58a22.13,22.13,0,1,0,22.11,22.13A22.12,22.12,0,0,0,141,98.58Z"/><path d="M257.22,156.57c-18.56,0-31,10.17-36.1,19.83h-.53V159.61H184V282.38h38.14V221.65c0-16,3-31.53,22.88-31.53,19.58,0,19.83,18.31,19.83,32.55v59.71H303V215C303,182,295.86,156.57,257.22,156.57Z"/></g></g></svg>