<?xml version="1.0" encoding="UTF-8"?>
<svg width="20px" height="27px" viewBox="0 0 20 27" version="1.1" xmlns="http://www.w3.org/2000/svg" xmlns:xlink="http://www.w3.org/1999/xlink">
    <!-- Generator: Sketch 52.5 (67469) - http://www.bohemiancoding.com/sketch -->
    <title>Location</title>
    <desc>Created with Sketch.</desc>
    <g id="v.02_1" stroke="none" stroke-width="1" fill="none" fill-rule="evenodd">
        <g id="HiveConf_Landing_Page" transform="translate(-463.000000, -593.000000)" fill="#4A4A4A">
            <g id="Main" transform="translate(-82.000000, -266.000000)">
                <g id="Group-10" transform="translate(316.000000, 859.000000)">
                    <g id="Location" transform="translate(229.000000, 0.000000)">
                        <g id="Combined-Shape-2">
                            <path d="M10.2820248,0.00308571429 C15.5451548,0.00308571429 19.8274793,4.30600073 19.8274793,9.59443712 C19.8274793,12.9370049 15.9014739,19.7256342 12.6073781,24.8322573 C12.0933135,25.627574 11.2257137,26.1030857 10.2848085,26.1030857 C10.2838806,26.1030857 10.2838806,26.1030857 10.2829527,26.1030857 C9.34111968,26.1030857 8.4735198,25.6266416 7.95945527,24.8294602 C4.66443154,19.7107162 0.736570248,12.9118308 0.736570248,9.59443712 C0.736570248,4.30600073 5.01889481,0.00308571429 10.2820248,0.00308571429 Z M11.0503378,23.8178323 C15.3846256,17.0981988 17.9716507,11.7817911 17.9716507,9.59443712 C17.9716507,5.3344114 14.5216653,1.86783762 10.2820248,1.86783762 C6.04238429,1.86783762 2.59239888,5.3344114 2.59239888,9.59443712 C2.59239888,11.7631436 5.18127981,17.0795513 9.51835131,23.8168999 C9.69001546,24.0844918 9.96931767,24.2383338 10.2838806,24.2383338 L10.2848085,24.2383338 C10.5984436,24.2383338 10.8768179,24.0854242 11.0503378,23.8178323 Z M10.2820248,4.54841848 C12.8727616,4.54841848 14.980055,6.66677664 14.980055,9.26903792 C14.980055,11.8722316 12.8727616,13.9896574 10.2820248,13.9896574 C7.69128803,13.9896574 5.58399462,11.8712992 5.58399462,9.26903792 C5.58399462,6.66584426 7.69128803,4.54841848 10.2820248,4.54841848 Z M10.2820248,12.1249055 C11.8492721,12.1249055 13.1242263,10.8438209 13.1242263,9.26903792 C13.1242263,7.69425494 11.8492721,6.41317038 10.2820248,6.41317038 C8.71477752,6.41317038 7.43982325,7.69425494 7.43982325,9.26903792 C7.43982325,10.8438209 8.71477752,12.1249055 10.2820248,12.1249055 Z" id="Combined-Shape" fill-rule="nonzero"></path>
                        </g>
                    </g>
                </g>
            </g>
        </g>
    </g>
</svg>