<?xml version="1.0" encoding="UTF-8"?>
<svg width="112px" height="87px" viewBox="0 0 112 87" version="1.1" xmlns="http://www.w3.org/2000/svg" xmlns:xlink="http://www.w3.org/1999/xlink">
    <!-- Generator: Sketch 54.1 (76490) - https://sketchapp.com -->
    <title>“</title>
    <desc>Created with Sketch.</desc>
    <g id="v.02_1" stroke="none" stroke-width="1" fill="none" fill-rule="evenodd">
        <g id="HiveConf_LP_Schedule_Open" transform="translate(-579.000000, -6109.000000)" fill="#FFFFFF" fill-rule="nonzero">
            <g id="HiveConf'18" transform="translate(-109.000000, 4117.000000)">
                <g id="Quote" transform="translate(109.000000, 1906.000000)">
                    <path d="M610.2,86.9 L626.7,100.1 C617.1,105.2 606,117.8 603.3,128.6 C604.2,128 606.9,127.7 609.3,127.7 C620.7,127.7 629.7,136.4 629.7,149.3 C629.7,162.2 618.9,173 606,173 C591.9,173 579.3,161.9 579.3,142.4 C579.3,119.9 591.6,99.8 610.2,86.9 Z M671.1,86.9 L687.9,100.1 C678.3,105.2 666.9,117.8 664.5,128.6 C665.4,128 668.1,127.7 670.5,127.7 C681.6,127.7 690.6,136.4 690.6,149.3 C690.6,162.2 680.1,173 666.9,173 C652.8,173 640.5,161.9 640.5,142.4 C640.5,119.9 652.5,99.8 671.1,86.9 Z" id="“"></path>
                </g>
            </g>
        </g>
    </g>
</svg>