<?xml version="1.0" encoding="UTF-8"?>
<svg width="46px" height="46px" viewBox="0 0 46 46" version="1.1" xmlns="http://www.w3.org/2000/svg" xmlns:xlink="http://www.w3.org/1999/xlink">
    <!-- Generator: Sketch 52.5 (67469) - http://www.bohemiancoding.com/sketch -->
    <title>Group 20</title>
    <desc>Created with Sketch.</desc>
    <g id="v.02_1" stroke="none" stroke-width="1" fill="none" fill-rule="evenodd">
        <g id="HiveConf_Landing_Page_States" transform="translate(-431.000000, -4075.000000)" fill="#FFFFFF">
            <g id="HiveConf'18" transform="translate(-109.000000, 3325.000000)">
                <g id="Group-23" transform="translate(512.000000, 724.000000)">
                    <g id="Group-20" transform="translate(28.000000, 26.000000)">
                        <path d="M40.1566925,18.0587468 C37.9887801,17.9040904 35.9653952,18.0071947 33.3639003,18.2649553 C32.2558562,18.3680596 31.3886912,17.2854649 31.6295704,16.1513181 C32.5449112,11.9755958 33.5084278,6.76883086 33.9420103,4.44898512 C34.7128236,0.0155021387 28.7871963,-1.58261382 27.4864489,1.87137873 C26.2820531,5.1707149 22.0425799,17.6463298 15.4906669,20.8941138 C14.7198536,21.2549787 14.2862711,22.0798128 14.2862711,23.0077511 C14.2862711,26.8226085 14.2862711,36.2050957 14.2380952,40.1746096 C14.2380952,41.2572043 14.9125569,42.1851426 15.8760735,42.4429032 C19.5856125,43.5254979 28.7390205,46 35.2427577,46 C39.434055,46 41.8910224,45.6391351 42.8063632,41.4118606 C43.721704,36.9783777 44.9260998,30.4828096 45.7932648,25.5338053 C46.7086056,20.1208319 44.5406932,18.3680596 40.1566925,18.0587468 Z" id="Path"></path>
                        <path d="M9.3822166,16.8292683 L2.66540244,16.8292683 C1.22608512,16.8292683 0,17.9805242 0,19.445759 L0,42.2615581 C0,43.6744631 1.17277708,44.8780488 2.66540244,44.8780488 L9.3822166,44.8780488 C10.8215339,44.8780488 12.047619,43.7267929 12.047619,42.2615581 L12.047619,19.445759 C12.047619,17.9805242 10.8215339,16.8292683 9.3822166,16.8292683 Z M6.02380952,41.162632 C4.85103245,41.162632 3.89148757,40.2206953 3.89148757,39.0694394 C3.89148757,37.9181835 4.85103245,36.9762468 6.02380952,36.9762468 C7.1965866,36.9762468 8.15613148,37.9181835 8.15613148,39.0694394 C8.15613148,40.2206953 7.1965866,41.162632 6.02380952,41.162632 Z" id="Shape" fill-rule="nonzero"></path>
                    </g>
                </g>
            </g>
        </g>
    </g>
</svg>