<svg xmlns="http://www.w3.org/2000/svg" viewBox="0 0 400 400"><title>Asset 1</title><g id="Layer_2" data-name="Layer 2"><g id="Layer_1-2" data-name="Layer 1"><g id="Dark_Blue" data-name="Dark Blue"><path d="M200,400C89.72,400,0,310.28,0,200S89.72,0,200,0,400,89.72,400,200,310.28,400,200,400ZM200,9.76C95.1,9.76,9.76,95.1,9.76,200S95.1,390.24,200,390.24,390.24,304.9,390.24,200,304.9,9.76,200,9.76Z"/></g><g id="Logo_FIXED" data-name="Logo — FIXED"><path d="M164.29,302.93c86.54,0,133.86-71.71,133.86-133.86,0-2,0-4.09-.1-6a96.18,96.18,0,0,0,23.51-24.39,95.36,95.36,0,0,1-27,7.42A47,47,0,0,0,315.22,120a95,95,0,0,1-29.85,11.41A47.08,47.08,0,0,0,204,163.61a43,43,0,0,0,1.27,10.73,133.46,133.46,0,0,1-97-49.17,47,47,0,0,0,14.64,62.73,46.17,46.17,0,0,1-21.27-5.85v.58a47.09,47.09,0,0,0,37.75,46.15A47,47,0,0,1,127,230.44a44.47,44.47,0,0,1-8.87-.88,47,47,0,0,0,43.9,32.68,94.55,94.55,0,0,1-58.44,20.1,85.15,85.15,0,0,1-11.22-.68,131.12,131.12,0,0,0,71.9,21.27"/></g></g></g></svg>