<svg xmlns="http://www.w3.org/2000/svg" viewBox="0 0 499.23 94.29"><title>HiveConf_Logotype</title><g id="Layer_2" data-name="Layer 2"><g id="Layer_1-2" data-name="Layer 1"><path d="M217.63,28.6c-9.41,0-17,3-22.91,9.23-5.86,6-8.87,14-8.87,23.61,0,9.23,3,16.87,9.23,23.26s14.38,9.59,24.32,9.59a35.38,35.38,0,0,0,8.7-1.07A34.58,34.58,0,0,0,235,90.91a45.56,45.56,0,0,0,5.15-2.84,16.6,16.6,0,0,0,3.2-2.3l1.06-1.07-6.57-10.83-2.13,1.78a30.86,30.86,0,0,1-6.56,3.55A22.69,22.69,0,0,1,220.29,81a18.56,18.56,0,0,1-12.61-4.44c-3.55-3-5.5-7.1-6.21-12.42h43.32l.35-5.86q0-12.8-7.45-21.31C233.07,31.44,226.32,28.6,217.63,28.6ZM202.36,53.28A16,16,0,0,1,207.68,44a14.75,14.75,0,0,1,9.95-3.37A11.55,11.55,0,0,1,226,44.22c2.31,2.31,3.37,5.33,3.55,9.06Z"/><path d="M54.68,13.86V42.45H16.16V13.86a9.44,9.44,0,0,0-2-6.39C13,6.05,10.83,5.52,7.81,5.52H0V92.69H16.16V56.12H54.68V92.69H70.84V5.52H63C57.52,5.52,54.68,8.18,54.68,13.86Z"/><path d="M92.91,0h0c-5.07,0-9.19,3.68-9.19,8.22v1.5c0,4.54,4.12,8.22,9.19,8.22h0c5.07,0,9.19-3.68,9.19-8.22V8.22C102.1,3.68,98,0,92.91,0Z"/><path d="M113.15,79.55a15.51,15.51,0,0,1-8.52-2.48c-2.67-1.6-3.91-4.8-3.91-9.24V29H85.1V69.79a26.93,26.93,0,0,0,2,10.47,18.81,18.81,0,0,0,4.62,6.93,23.76,23.76,0,0,0,6.57,3.9A30.08,30.08,0,0,0,105,93a35.1,35.1,0,0,0,6.22.36A32.71,32.71,0,0,0,116,93V79.37Z"/><path d="M182.72,29.57H172.24A8.86,8.86,0,0,0,167.09,31c-1.24.89-2.13,2.48-3,4.62l-14.7,37-14.7-37c-.89-2.14-1.78-3.73-3-4.62a8.83,8.83,0,0,0-5.15-1.42H114.25l1.78,3.9L121.18,45l20.95,47.22h14.49L177.57,45l5.15-11.54,1.77-3.9Z"/><path d="M321.34,63.45h-9.6v9.22c0,10.09-6,12.21-11,12.21H280.05c-5,0-10.95-2.12-10.95-12.21v-51c0-10.09,5.95-12.21,10.95-12.21h20.73c5,0,11,2.12,11,12.21v9.21h9.6V21.62c0-13.83-6.73-20.56-20.56-20.56H280.05c-13.83,0-20.55,6.73-20.55,20.56V72.67c0,13.83,6.72,20.55,20.55,20.55h20.73c13.83,0,20.56-6.72,20.56-20.55Z"/><path d="M383.74,44.31c0-11.71-5.69-17.41-17.41-17.41H350.65c-11.72,0-17.41,5.7-17.41,17.41V75.82c0,11.71,5.69,17.4,17.41,17.4h15.68c11.72,0,17.41-5.69,17.41-17.4Zm-9.6,31.51c0,7.88-4.89,9.06-7.81,9.06H350.65c-2.92,0-7.81-1.18-7.81-9.06V44.31c0-7.89,4.89-9.07,7.81-9.07h15.68c2.92,0,7.81,1.18,7.81,9.07Z"/><path d="M413,35.24h15.69c2.91,0,7.8,1.18,7.8,9.07V93.22h9.6V44.31c0-11.71-5.69-17.41-17.4-17.41H413c-11.71,0-17.41,5.7-17.41,17.41V93.22h9.61V44.31C405.22,36.42,410.11,35.24,413,35.24Z"/><path d="M498,33.2H478.64V18.47c0-7.89,4.89-9.06,7.81-9.06h8.85l3.93-8.35H486.45C474.73,1.06,469,6.76,469,18.47V33.2h-14.2v8.47H469V93.22h9.6V41.67H494Z"/></g></g></svg>