<svg xmlns="http://www.w3.org/2000/svg" xmlns:xlink="http://www.w3.org/1999/xlink" viewBox="0 0 163.48 152.35"><defs><style>.cls-1{fill:url(#linear-gradient);}.cls-2{fill:url(#linear-gradient-2);}.cls-3{fill:url(#linear-gradient-3);}</style><linearGradient id="linear-gradient" x1="25.19" y1="119.68" x2="163.42" y2="119.68" gradientUnits="userSpaceOnUse"><stop offset="0" stop-color="#505050"/><stop offset="1" stop-color="#0f0f0f"/></linearGradient><linearGradient id="linear-gradient-2" x1="0.06" y1="76.16" x2="163.48" y2="76.16" xlink:href="#linear-gradient"/><linearGradient id="linear-gradient-3" x1="0" y1="32.64" x2="138.35" y2="32.64" xlink:href="#linear-gradient"/></defs><title>HiveConf_Icon</title><g id="Layer_2" data-name="Layer 2"><g id="Layer_1-2" data-name="Layer 1"><polygon class="cls-1" points="163.42 87.04 25.19 130.57 37.74 152.31 150.86 108.81 163.42 87.04"/><polygon class="cls-2" points="150.92 43.52 0.06 87.04 12.62 108.81 163.48 65.28 150.92 43.52"/><polygon class="cls-3" points="125.79 0 12.56 43.52 0 65.28 138.35 21.76 125.79 0"/><path d="M25.13,21.76H138.35L125.79,0h-63C35.55,0,32.9,8.29,25.13,21.76Z"/><path d="M138.45,130.59H25.22l12.57,21.76h63c27.27,0,29.91-8.3,37.69-21.76Z"/><polygon points="0 65.28 163.48 65.28 150.92 43.52 12.56 43.52 0 65.28"/><polygon points="12.62 108.8 150.86 108.8 163.42 87.04 0.06 87.04 12.62 108.8"/></g></g></svg>