<svg xmlns="http://www.w3.org/2000/svg" xmlns:xlink="http://www.w3.org/1999/xlink" viewBox="0 0 705.64 152.35"><defs><style>.cls-1{fill:#fff;}.cls-2{fill:url(#linear-gradient);}.cls-3{fill:url(#linear-gradient-2);}.cls-4{fill:url(#linear-gradient-3);}</style><linearGradient id="linear-gradient" x1="25.19" y1="119.68" x2="163.42" y2="119.68" gradientUnits="userSpaceOnUse"><stop offset="0" stop-color="#d9d9d9"/><stop offset="1" stop-color="#f2f2f2"/></linearGradient><linearGradient id="linear-gradient-2" x1="0.06" y1="76.16" x2="163.48" y2="76.16" xlink:href="#linear-gradient"/><linearGradient id="linear-gradient-3" x1="0" y1="32.64" x2="138.35" y2="32.64" xlink:href="#linear-gradient"/></defs><title>HiveConf_Logo_White</title><g id="Layer_2" data-name="Layer 2"><g id="Layer_1-2" data-name="Layer 1"><path class="cls-1" d="M424,57.63c-9.41,0-17.05,3-22.91,9.23-5.85,6-8.87,14-8.87,23.61a31.88,31.88,0,0,0,9.23,23.26c6.21,6.39,14.38,9.59,24.32,9.59a35.38,35.38,0,0,0,8.7-1.07,34.92,34.92,0,0,0,6.93-2.31,45.42,45.42,0,0,0,5.14-2.84,16.27,16.27,0,0,0,3.2-2.3l1.07-1.07-6.57-10.83-2.13,1.78a30.73,30.73,0,0,1-6.57,3.55A22.69,22.69,0,0,1,426.7,110a18.58,18.58,0,0,1-12.61-4.44c-3.55-3-5.5-7.1-6.21-12.42H451.2l.36-5.86q0-12.78-7.46-21.31C439.48,60.47,432.74,57.63,424,57.63ZM408.77,82.31a16.07,16.07,0,0,1,5.32-9.24,14.75,14.75,0,0,1,10-3.37,11.55,11.55,0,0,1,8.34,3.55c2.31,2.31,3.37,5.33,3.55,9.06Z"/><path class="cls-1" d="M261.09,42.89V71.48H222.57V42.89a9.44,9.44,0,0,0-2-6.39c-1.24-1.42-3.37-2-6.39-2h-7.81v87.17h16.16V85.15h38.52v36.57h16.16V34.55h-7.81C263.93,34.55,261.09,37.21,261.09,42.89Z"/><path class="cls-1" d="M299.32,29h0c-5.07,0-9.18,3.68-9.18,8.22v1.5c0,4.54,4.11,8.22,9.18,8.22h0c5.08,0,9.19-3.68,9.19-8.22v-1.5C308.51,32.71,304.4,29,299.32,29Z"/><path class="cls-1" d="M319.56,108.58A15.56,15.56,0,0,1,311,106.1c-2.66-1.6-3.91-4.8-3.91-9.24V58H291.51V98.82a26.93,26.93,0,0,0,1.95,10.47,18.93,18.93,0,0,0,4.62,6.93,23.76,23.76,0,0,0,6.57,3.9,30.08,30.08,0,0,0,6.74,1.95,35.1,35.1,0,0,0,6.22.36,32.71,32.71,0,0,0,4.79-.36V108.4Z"/><path class="cls-1" d="M389.13,58.6H378.65A8.86,8.86,0,0,0,373.5,60c-1.24.89-2.13,2.49-3,4.62l-14.71,37-14.7-37c-.89-2.13-1.78-3.73-3-4.62a8.83,8.83,0,0,0-5.15-1.42H320.66l1.78,3.91,5.15,11.54,21,47.21H363l21-47.21,5.15-11.54,1.77-3.91Z"/><path class="cls-1" d="M527.75,92.48h-9.6v9.22c0,10.09-6,12.21-11,12.21H486.46c-5,0-10.95-2.12-10.95-12.21V50.65c0-10.09,6-12.21,10.95-12.21h20.73c5,0,11,2.12,11,12.21v9.21h9.6V50.65c0-13.83-6.72-20.55-20.56-20.55H486.46c-13.83,0-20.55,6.72-20.55,20.55V101.7c0,13.83,6.72,20.55,20.55,20.55h20.73c13.84,0,20.56-6.72,20.56-20.55Z"/><path class="cls-1" d="M590.15,73.34c0-11.71-5.69-17.41-17.4-17.41H557.06c-11.71,0-17.41,5.7-17.41,17.41v31.51c0,11.71,5.7,17.4,17.41,17.4h15.69c11.71,0,17.4-5.69,17.4-17.4Zm-9.6,31.51c0,7.88-4.89,9.06-7.8,9.06H557.06c-2.92,0-7.81-1.18-7.81-9.06V73.34c0-7.89,4.89-9.06,7.81-9.06h15.69c2.91,0,7.8,1.17,7.8,9.06Z"/><path class="cls-1" d="M619.43,64.28h15.69c2.91,0,7.8,1.17,7.8,9.06v48.91h9.61V73.34c0-11.71-5.7-17.41-17.41-17.41H619.43c-11.71,0-17.4,5.7-17.4,17.41v48.91h9.6V73.34C611.63,65.45,616.52,64.28,619.43,64.28Z"/><path class="cls-1" d="M704.44,62.23H685.05V47.5c0-7.89,4.89-9.06,7.81-9.06h8.85l3.93-8.34H692.86c-11.71,0-17.41,5.69-17.41,17.4V62.23h-14.2V70.7h14.2v51.55h9.6V70.7h15.4Z"/><polygon class="cls-2" points="163.42 87.04 25.19 130.57 37.74 152.31 150.86 108.81 163.42 87.04"/><polygon class="cls-3" points="150.92 43.52 0.06 87.04 12.62 108.81 163.48 65.28 150.92 43.52"/><polygon class="cls-4" points="125.79 0 12.56 43.52 0 65.28 138.35 21.76 125.79 0"/><path class="cls-1" d="M25.13,21.76H138.35L125.79,0h-63C35.55,0,32.9,8.29,25.13,21.76Z"/><path class="cls-1" d="M138.45,130.59H25.22l12.57,21.76h63c27.27,0,29.91-8.3,37.69-21.76Z"/><polygon class="cls-1" points="0 65.28 163.48 65.28 150.92 43.52 12.56 43.52 0 65.28"/><polygon class="cls-1" points="12.62 108.8 150.86 108.8 163.42 87.04 0.06 87.04 12.62 108.8"/></g></g></svg>