<?xml version="1.0" encoding="UTF-8"?>
<svg width="387px" height="360px" viewBox="0 0 387 360" version="1.1" xmlns="http://www.w3.org/2000/svg" xmlns:xlink="http://www.w3.org/1999/xlink">
    <!-- Generator: Sketch 52.5 (67469) - http://www.bohemiancoding.com/sketch -->
    <title>Group 22</title>
    <desc>Created with Sketch.</desc>
    <defs>
        <polygon id="path-1" points="0.441491026 103.44315 30.0874954 154.938405 297.139987 51.9265884 326.800157 0.407659068"></polygon>
        <linearGradient x1="0.000113358508%" y1="49.9999485%" x2="100.00023%" y2="49.9999485%" id="linearGradient-3">
            <stop stop-color="#E6E6E8" offset="0%"></stop>
            <stop stop-color="#FFFFFF" offset="100%"></stop>
        </linearGradient>
        <polygon id="path-4" points="0.139232254 103.449802 29.7886228 154.968731 385.793698 51.9332399 356.144307 0.414310585"></polygon>
        <linearGradient x1="0.000468786332%" y1="49.999547%" x2="100.000009%" y2="49.999547%" id="linearGradient-6">
            <stop stop-color="#E6E6E8" offset="0%"></stop>
            <stop stop-color="#FFFFFF" offset="100%"></stop>
        </linearGradient>
        <polygon id="path-7" points="296.977084 0.303489549 29.6625308 103.343716 0 154.862645 326.639615 51.8224189"></polygon>
        <linearGradient x1="0%" y1="49.9996357%" x2="100.000461%" y2="49.9996357%" id="linearGradient-9">
            <stop stop-color="#E6E6E8" offset="0%"></stop>
            <stop stop-color="#FFFFFF" offset="100%"></stop>
        </linearGradient>
        <path d="M89.2582508,0.306253057 C24.8933599,0.306253057 18.654677,19.9551218 0.306859169,51.8495902 L267.562311,51.8495902 L237.907913,0.306253057 L89.2582508,0.306253057 Z" id="path-10"></path>
        <linearGradient x1="-9.5122856e-05%" y1="50.0009923%" x2="99.999285%" y2="50.0009923%" id="linearGradient-12">
            <stop stop-color="#FFFFFF" offset="0%"></stop>
            <stop stop-color="#E6E6E8" offset="100%"></stop>
        </linearGradient>
        <path d="M0.528741952,0.574488797 L30.1807795,52.0113314 L178.832803,52.0113314 C243.195333,52.0113314 249.436376,32.4030595 267.781834,0.574488797 L0.528741952,0.574488797 Z" id="path-13"></path>
        <linearGradient x1="0.000228226212%" y1="50.0004693%" x2="100.000492%" y2="50.0004693%" id="linearGradient-15">
            <stop stop-color="#FFFFFF" offset="0%"></stop>
            <stop stop-color="#E6E6E8" offset="100%"></stop>
        </linearGradient>
        <polygon id="path-16" points="29.6493906 0.4137265 0.00707960615 51.848205 385.788978 51.848205 356.144307 0.4137265"></polygon>
        <linearGradient x1="-0.000305427096%" y1="49.9983232%" x2="99.9997493%" y2="49.9983232%" id="linearGradient-18">
            <stop stop-color="#FFFFFF" offset="0%"></stop>
            <stop stop-color="#E6E6E8" offset="100%"></stop>
        </linearGradient>
        <polygon id="path-19" points="0.139310937 0.410491088 29.8007344 51.9538282 356.210981 51.9538282 385.870043 0.410491088"></polygon>
        <linearGradient x1="0.000468958509%" y1="50.0003553%" x2="100.000198%" y2="50.0003553%" id="linearGradient-21">
            <stop stop-color="#FFFFFF" offset="0%"></stop>
            <stop stop-color="#E6E6E8" offset="100%"></stop>
        </linearGradient>
    </defs>
    <g id="v.02_1" stroke="none" stroke-width="1" fill="none" fill-rule="evenodd" opacity="0.8">
        <g id="HiveConf_Landing_Page-Copy-6" transform="translate(-999.000000, -1198.000000)">
            <g id="Speakers" transform="translate(165.000000, 856.000000)">
                <g id="Group-22" transform="translate(834.000000, 342.000000)">
                    <g id="Group-3" transform="translate(60.071240, 204.985836)">
                        <mask id="mask-2" fill="white">
                            <use xlink:href="#path-1"></use>
                        </mask>
                        <g id="Clip-2"></g>
                        <polygon id="Fill-1" fill="url(#linearGradient-3)" mask="url(#mask-2)" points="0.441491026 103.44315 30.0874954 154.938405 297.139987 51.9265884 326.800157 0.407659068"></polygon>
                    </g>
                    <g id="Group-6" transform="translate(1.000000, 103.002833)">
                        <mask id="mask-5" fill="white">
                            <use xlink:href="#path-4"></use>
                        </mask>
                        <g id="Clip-5"></g>
                        <polygon id="Fill-4" fill="url(#linearGradient-6)" mask="url(#mask-5)" points="0.139232254 103.449802 29.7886228 154.968731 385.793698 51.9332399 356.144307 0.414310585"></polygon>
                    </g>
                    <g id="Group-9" transform="translate(1.000000, 0.000000)">
                        <mask id="mask-8" fill="white">
                            <use xlink:href="#path-7"></use>
                        </mask>
                        <g id="Clip-8"></g>
                        <polygon id="Fill-7" fill="url(#linearGradient-9)" mask="url(#mask-8)" points="296.977084 0.303489549 29.6625308 103.343716 0 154.862645 326.639615 51.8224189"></polygon>
                    </g>
                    <g id="Group-12" transform="translate(60.089710, 0.000000)">
                        <mask id="mask-11" fill="white">
                            <use xlink:href="#path-10"></use>
                        </mask>
                        <g id="Clip-11"></g>
                        <path d="M89.2582508,0.306253057 C24.8933599,0.306253057 18.654677,19.9551218 0.306859169,51.8495902 L267.562311,51.8495902 L237.907913,0.306253057 L89.2582508,0.306253057 Z" id="Fill-10" fill="url(#linearGradient-12)" mask="url(#mask-11)"></path>
                    </g>
                    <g id="Group-15" transform="translate(60.089710, 307.988669)">
                        <mask id="mask-14" fill="white">
                            <use xlink:href="#path-13"></use>
                        </mask>
                        <g id="Clip-14"></g>
                        <path d="M0.528741952,0.574488797 L30.1807795,52.0113314 L178.832803,52.0113314 C243.195333,52.0113314 249.436376,32.4030595 267.781834,0.574488797 L0.528741952,0.574488797 Z" id="Fill-13" fill="url(#linearGradient-15)" mask="url(#mask-14)"></path>
                    </g>
                    <g id="Group-18" transform="translate(0.000000, 103.002833)">
                        <mask id="mask-17" fill="white">
                            <use xlink:href="#path-16"></use>
                        </mask>
                        <g id="Clip-17"></g>
                        <polygon id="Fill-16" fill="url(#linearGradient-18)" mask="url(#mask-17)" points="29.6493906 0.4137265 0.00707960615 51.848205 385.788978 51.848205 356.144307 0.4137265"></polygon>
                    </g>
                    <g id="Group-21" transform="translate(0.000000, 204.985836)">
                        <mask id="mask-20" fill="white">
                            <use xlink:href="#path-19"></use>
                        </mask>
                        <g id="Clip-20"></g>
                        <polygon id="Fill-19" fill="url(#linearGradient-21)" mask="url(#mask-20)" points="0.139310937 0.410491088 29.8007344 51.9538282 356.210981 51.9538282 385.870043 0.410491088"></polygon>
                    </g>
                </g>
            </g>
        </g>
    </g>
</svg>