<?xml version="1.0" encoding="UTF-8"?>
<svg width="138px" height="25px" viewBox="0 0 138 25" version="1.1" xmlns="http://www.w3.org/2000/svg" xmlns:xlink="http://www.w3.org/1999/xlink">
    <!-- Generator: Sketch 52.5 (67469) - http://www.bohemiancoding.com/sketch -->
    <title>Logo_Flixbus_White</title>
    <desc>Created with Sketch.</desc>
    <g id="v.02_1" stroke="none" stroke-width="1" fill="none" fill-rule="evenodd">
        <g id="HiveConf_Landing_Page" transform="translate(-705.000000, -5072.000000)" fill="#FFFFFF">
            <g id="HiveConf'18" transform="translate(-109.000000, 3325.000000)">
                <g id="Companies" transform="translate(275.000000, 1527.000000)">
                    <g id="Logo_Flixbus_White" transform="translate(539.000000, 220.000000)">
                        <path d="M66.3068626,12.5143805 L62.729166,7.53650442 L58.2592375,1.30088496 C57.3313082,0.0134228145 55.5465029,-0.274417818 54.2672121,0.657079646 L54.2014456,0.657079646 C52.9247471,1.59245075 52.6393503,3.39432714 53.5635107,4.68473451 L59.1536616,12.4568584 L53.5635107,20.2400442 C52.6368164,21.5314611 52.9163191,23.3355543 54.1893884,24.2798673 L54.2573471,24.2798673 C55.5360046,25.2114864 57.3204125,24.9241255 58.2482764,23.6371681 L61.6012708,19.0564159 L66.3079587,12.5143805 L66.3068626,12.5143805 Z" id="path4995"></path>
                        <path d="M71.2810008,0.703539823 L71.2130421,0.703539823 C69.9348837,-0.22860642 68.1503269,0.0588574895 67.2232089,1.34623894 L64.1716442,5.53097345 L67.8041461,10.5088496 L71.9046863,4.7300885 C72.8283329,3.44016813 72.5434902,1.63918942 71.2678475,0.703539823 L71.2810008,0.703539823 Z M71.9046863,20.2975664 L67.80305,14.5221239 L64.2143924,19.5 L67.2670532,23.7422566 C68.193831,25.0300064 69.9784427,25.317974 71.2568864,24.3860619 L71.323749,24.3860619 C72.6020995,23.4497427 72.8875589,21.6454907 71.9616839,20.3539823 L71.9046863,20.2975664 Z M127.534361,5.34070796 L135.280556,5.34070796 C136.544126,5.33525444 137.567114,4.30285306 137.572518,3.02765487 L137.572518,0.398230088 L127.512438,0.398230088 C123.525653,0.478353957 120.335429,3.76334025 120.336219,7.78761062 C120.357351,11.7500382 123.55102,14.9483609 127.477363,14.9391593 L130.640731,14.9391593 C131.859908,15.023793 132.806037,16.0465638 132.806037,17.2798673 C132.806037,18.5131708 131.859908,19.5359415 130.640731,19.6205752 L120.581747,19.6205752 L120.581747,22.2488938 C120.589548,23.5223637 121.611839,24.5520886 122.873709,24.5575221 L130.698824,24.5575221 C134.694205,24.4899078 137.898025,21.2019615 137.898062,17.1692478 C137.885425,13.2244199 134.719487,10.0298427 130.810627,10.0176991 L127.591358,10.0176991 C126.372181,9.93306538 125.426052,8.91029465 125.426052,7.67699115 C125.426052,6.44368765 126.372181,5.42091693 127.591358,5.33628319 L127.534361,5.34070796 Z M117.902859,0.421460177 L115.200953,0.421460177 C113.966616,0.421460177 112.965989,1.43129579 112.965989,2.67699115 L112.965989,17.0254425 C112.965989,19.090708 111.55749,20.4103982 109.129611,20.4103982 L108.009388,20.4103982 C105.584797,20.4103982 104.17301,19.034292 104.17301,17.0254425 L104.17301,0.421460177 L101.449182,0.421460177 C100.856243,0.421166702 100.287489,0.658672754 99.8681149,1.08169868 C99.4487407,1.5047246 99.2131215,2.07859543 99.2131215,2.67699115 L99.2131215,17.8384956 C99.2131215,22.090708 102.107943,24.9181416 107.11606,24.9181416 L110.011978,24.9181416 C115.018999,24.9181416 117.91382,22.0862832 117.91382,17.8384956 L117.902859,0.421460177 Z M87.924305,20.6858407 L83.6878475,20.6858407 C83.0949082,20.6861342 82.5261547,20.4486281 82.1067805,20.0256022 C81.6874063,19.6025763 81.4517871,19.0287055 81.4517871,18.4303097 L81.4517871,14.3639381 L87.9188245,14.3639381 C89.6410843,14.3639381 91.0372518,15.7729534 91.0372518,17.5110619 C91.0372518,19.2491705 89.6410843,20.6581858 87.9188245,20.6581858 L87.924305,20.6858407 Z M81.4748054,4.35840708 L87.2304686,4.35840708 C88.2290529,4.35840706 89.1517829,4.89604783 89.651075,5.7688053 C90.1503672,6.64156277 90.1503672,7.71684431 89.651075,8.58960178 C89.1517829,9.46235925 88.2290529,10 87.2304686,10 L83.4532804,10 C82.3649639,9.99458327 81.4831916,9.10716178 81.4748054,8.00884956 L81.4748054,4.35840708 Z M94.4845115,12.6946903 C94.3496902,12.5696903 93.9813979,12.2765487 93.880556,12.1980088 C95.0379994,10.9070144 95.6269467,9.19736115 95.5126608,7.46017699 C95.5137569,3.04977876 92.6857983,0.442477876 88.3156156,0.442477876 L78.8693566,0.442477876 C77.6057887,0.448541107 76.5832902,1.4814363 76.5784909,2.75663717 L76.5784909,22.2820796 C76.5838901,23.5568486 77.6062142,24.589074 78.8693566,24.5951327 L89.3919936,24.5951327 C93.7621763,24.5951327 96.4005083,22.0232301 96.4005083,17.6128319 C96.4569299,15.7761995 95.7611091,13.9972321 94.4768388,12.6946903 L94.4845115,12.6946903 Z M46.33139,7.40376106 L42.4950119,7.40376106 L42.4950119,2.75774336 C42.5021978,1.47779691 43.5285633,0.441986509 44.7968388,0.434734513 L46.33139,0.434734513 C47.5994183,0.442583784 48.6254391,1.47804638 48.6332168,2.75774336 L48.6332168,5.08075221 C48.626031,6.36069866 47.5996654,7.39650907 46.33139,7.40376106 Z M48.6332168,24.6073009 L42.4950119,24.6073009 L42.4950119,11.9845133 C42.5021978,10.7045668 43.5285633,9.66875642 44.7968388,9.66150442 L48.6332168,9.66150442 L48.6332168,24.6073009 Z M29.8996346,19.6294248 C29.6031145,19.6297183 29.3186236,19.5111236 29.1087467,19.2997303 C28.8988698,19.0883369 28.7807989,18.8014611 28.7805083,18.5022124 L28.7805083,2.76548673 C28.7811245,2.14261002 28.5347884,1.54537382 28.0964122,1.1069118 C27.658036,0.668449774 27.0640611,0.425210487 26.4468944,0.431415929 L22.58969,0.431300045 L22.5896902,22.2710177 C22.5893994,22.8905368 22.8330546,23.4847824 23.2670235,23.9229523 C23.7009925,24.3611222 24.2897041,24.607301 24.9035743,24.6073009 L37.4868944,24.6073009 C38.1009544,24.6075945 38.6899477,24.3615454 39.1241538,23.9233436 C39.5583599,23.4851419 39.8021655,22.8907285 39.8018745,22.2710177 L39.8018745,19.6316372 L29.8996346,19.6294248 Z M2.30182685,0.431415929 C1.03440555,0.431404182 0.0054318055,1.46539634 0,2.74446903 L0,24.6073009 L6.12505163,24.6073009 L6.12505163,15.1073009 L14.8106116,15.1073009 C16.0818755,15.1073009 17.1124384,14.0672544 17.1124384,12.784292 L17.1124384,10.1681416 L6.12505163,10.1681416 L6.12505163,6.53429204 C6.12565657,5.91157093 6.62603859,5.40707935 7.24308181,5.40707965 L17.6473392,5.40707965 C18.918603,5.40707965 19.949166,4.36703316 19.949166,3.0840708 L19.949166,0.431415929 L2.30182685,0.431415929 Z" id="path4997" fill-rule="nonzero"></path>
                    </g>
                </g>
            </g>
        </g>
    </g>
</svg>