<?xml version="1.0" encoding="UTF-8"?>
<svg width="105px" height="30px" viewBox="0 0 105 30" version="1.1" xmlns="http://www.w3.org/2000/svg" xmlns:xlink="http://www.w3.org/1999/xlink">
    <!-- Generator: Sketch 52.5 (67469) - http://www.bohemiancoding.com/sketch -->
    <title>Logo_Omio_White</title>
    <desc>Created with Sketch.</desc>
    <g id="v.02_1" stroke="none" stroke-width="1" fill="none" fill-rule="evenodd">
        <g id="HiveConf_Landing_Page" transform="translate(-1074.000000, -5069.000000)" fill="#FFFFFF">
            <g id="HiveConf'18" transform="translate(-109.000000, 3325.000000)">
                <g id="Companies" transform="translate(275.000000, 1527.000000)">
                    <g id="Logo_Omio_White" transform="translate(908.000000, 217.000000)">
                        <path d="M77.6475,6.91941176 L71.2915,6.91941176 C71.0982003,6.91941176 70.9415,7.07742891 70.9415,7.27235294 L70.9415,29.0488235 C70.9415,29.2437476 71.0982003,29.4017647 71.2915,29.4017647 L77.6475,29.4017647 C77.8407997,29.4017647 77.9975,29.2437476 77.9975,29.0488235 L77.9975,7.27588235 C77.9975,7.08095832 77.8407997,6.92294118 77.6475,6.92294118 L77.6475,6.91941176 Z M92.652,23.5358824 C89.27275,23.5358824 87.48775,21.0105882 87.48775,18.1641176 C87.48775,15.27 89.27275,12.7905882 92.652,12.7905882 C96.03125,12.7905882 97.86,15.2611765 97.86,18.1641176 C97.86,21.0105882 96.03125,23.5358824 92.652,23.5358824 Z M92.652,6.33882353 C85.5225,6.33882353 80.34775,11.3117647 80.34775,18.1623529 C80.34775,25.0129412 85.5225,29.9858824 92.652,29.9858824 C99.92325,29.9858824 105,25.1241176 105,18.1623529 C105,11.2005882 99.925,6.33882353 92.652,6.33882353 Z M68.04175,16.0588235 C68.04175,10.4258824 63.78575,6.33705882 57.91975,6.33705882 C55.209,6.33705882 52.8955,7.59352941 51.6985,8.88529412 C51.6147452,8.97682919 51.4983498,9.03104729 51.374939,9.03601197 C51.2515281,9.04097665 51.1312196,8.99628088 51.0405,8.91176471 L51.01425,8.88529412 C49.847,7.59705882 47.53175,6.34235294 44.7615,6.34235294 C38.9165,6.34235294 34.67275,10.4311765 34.67275,16.0641176 L34.67275,29.0558824 C34.67275,29.2508064 34.8294503,29.4088235 35.02275,29.4088235 L41.40325,29.4088235 C41.5965497,29.4088235 41.75325,29.2508064 41.75325,29.0558824 L41.75325,16.35 C41.75325,14.6894118 42.784,13.0094118 44.75625,13.0094118 C46.77225,13.0094118 47.8275,14.6894118 47.8275,16.35 L47.8275,29.0558824 C47.8275,29.2508064 47.9842003,29.4088235 48.1775,29.4088235 L54.565,29.4088235 C54.7582997,29.4088235 54.915,29.2508064 54.915,29.0558824 L54.915,16.35 C54.915,14.6894118 55.944,13.0094118 57.91625,13.0094118 C59.934,13.0094118 60.9875,14.6894118 60.9875,16.35 L60.9875,29.0558824 C60.9875,29.2508064 61.1442003,29.4088235 61.3375,29.4088235 L67.69,29.4088235 C67.8832997,29.4088235 68.04,29.2508064 68.04,29.0558824 L68.04175,16.0588235 Z M20.36125,23.5358824 C16.982,23.5358824 15.155,21.0105882 15.155,18.1641176 C15.155,15.27 16.982,12.7905882 20.36125,12.7905882 C23.7405,12.7905882 25.5255,15.2611765 25.5255,18.1641176 C25.5255,21.0105882 23.7405,23.5358824 20.36125,23.5358824 Z M20.36125,6.33882353 C13.09175,6.33882353 8.01325,11.2005882 8.01325,18.1623529 C8.01325,25.1241176 13.08825,29.9858824 20.36125,29.9858824 C27.49075,29.9858824 32.6655,25.0129412 32.6655,18.1623529 C32.6655,11.3117647 27.49075,6.33882353 20.36125,6.33882353 Z" id="Shape" fill-rule="nonzero"></path>
                        <path d="M5.25,0.176470588 C7.91235083,0.154060012 10.1392654,2.21017712 10.35125,4.88647059 C10.5812399,7.7379411 8.48109754,10.2399955 5.65425,10.4823529 C5.4985,10.4964706 5.34275,10.5035294 5.18875,10.5035294 C2.51797216,10.5195202 0.276352255,8.47798995 0.021,5.79705882 C-0.22925,2.91352941 1.85325,0.453529412 4.76175,0.197647059 C4.92387182,0.179911104 5.08696673,0.172837321 5.25,0.176470588" id="Path"></path>
                    </g>
                </g>
            </g>
        </g>
    </g>
</svg>