<?xml version="1.0" encoding="UTF-8"?>
<svg width="150px" height="18px" viewBox="0 0 150 18" version="1.1" xmlns="http://www.w3.org/2000/svg" xmlns:xlink="http://www.w3.org/1999/xlink">
    <!-- Generator: Sketch 52.5 (67469) - http://www.bohemiancoding.com/sketch -->
    <title>Logo_Blacklane_White</title>
    <desc>Created with Sketch.</desc>
    <g id="v.02_1" stroke="none" stroke-width="1" fill="none" fill-rule="evenodd">
        <g id="HiveConf_Landing_Page" transform="translate(-951.000000, -4982.000000)" fill="#FFFFFF">
            <g id="HiveConf'18" transform="translate(-109.000000, 3325.000000)">
                <g id="Companies" transform="translate(275.000000, 1527.000000)">
                    <g id="Logo_Blacklane_White" transform="translate(785.000000, 130.000000)">
                        <path d="M0,0.284210526 L7.86967264,0.284210526 C9.79122915,0.284210526 11.346819,0.846 12.2612724,1.782 C13.0186326,2.54878122 13.4466313,3.59209571 13.4508956,4.68189474 L13.4508956,4.77663158 C13.4508956,6.74147368 12.444719,7.86410526 11.2550957,8.51873684 C13.1766523,9.26810526 14.4579988,10.4835789 14.4579988,12.7297895 L14.4579988,12.8245263 C14.4579988,16.0057895 11.8953057,17.5964211 8.143916,17.5964211 L0.0926497838,17.5964211 L0.0926497838,0.284210526 L0,0.284210526 Z M9.79122915,5.42652632 C9.79122915,4.30389474 8.87584929,3.64926316 7.32025942,3.64926316 L3.66059296,3.64926316 L3.66059296,7.29473684 L7.13403335,7.29473684 C8.68962322,7.29473684 9.78752316,6.73294737 9.78752316,5.42273684 L9.79122915,5.42652632 Z M7.96046943,10.4788421 L3.66059296,10.4788421 L3.66059296,14.3156842 L8.05219271,14.3156842 C9.69950587,14.3156842 10.7056825,13.7538947 10.7056825,12.4446316 L10.7056825,12.3498947 C10.7056825,11.2282105 9.88202594,10.4788421 7.96046943,10.4788421 Z" id="Shape" fill-rule="nonzero"></path>
                        <polygon id="Path" points="16.8363187 0.284210526 20.588635 0.284210526 20.588635 14.1281053 29.0067943 14.1281053 29.0067943 17.5907368 16.8363187 17.5907368"></polygon>
                        <path d="M38.7063002,0.189473684 L42.1834466,0.189473684 L49.4101297,17.5926316 L45.4771464,17.5926316 L43.9215565,13.7557895 L36.7819642,13.7557895 L35.2263743,17.6854737 L31.3860408,17.6854737 L38.7063002,0.189473684 Z M42.6411365,10.3878947 L40.3536133,4.77189474 L38.0660902,10.386 L42.6411365,10.3878947 Z" id="Shape" fill-rule="nonzero"></path>
                        <path d="M49.6871526,8.982 C49.6871526,4.02347368 53.346819,0 58.5630019,0 C61.7649784,0 63.6865349,1.12263158 65.2421248,2.71326316 L62.8628783,5.52031579 C61.5824583,4.30389474 60.2093885,3.55547368 58.5630019,3.55547368 C55.7260655,3.55547368 53.6210624,5.98831579 53.6210624,8.982 L53.6210624,9.07673684 C53.6210624,12.0704211 55.6343422,14.5032632 58.5630019,14.5032632 C60.4845584,14.5032632 61.6741816,13.7548421 63.0463249,12.4455789 L65.4255713,14.8736842 C63.6865349,16.7456842 61.7649784,17.9621053 58.4712786,17.9621053 C53.4385423,17.8711579 49.6871526,13.9414737 49.6871526,8.982 Z" id="Path"></path>
                        <polygon id="Path" points="68.0790611 0.284210526 71.8304509 0.284210526 71.8304509 7.86315789 78.6939469 0.284210526 83.1772699 0.284210526 76.3147004 7.67368421 83.5413836 17.6845263 79.0599135 17.6845263 73.8437307 10.2950526 71.9221742 12.3536842 71.9221742 17.6864211 68.1707844 17.6864211 68.1707844 0.284210526"></polygon>
                        <polygon id="Path" points="85.5565164 0.284210526 88.5731933 0.284210526 88.5731933 14.8736842 97.4490426 14.8736842 97.4490426 17.6807368 85.5565164 17.6807368"></polygon>
                        <path d="M107.059605,0.189473684 L109.804818,0.189473684 L117.2168,17.5926316 L114.105621,17.5926316 L112.366584,13.3815789 L104.314392,13.3815789 L102.576282,17.5926316 L99.5568252,17.5926316 L107.059605,0.189473684 Z M111.27239,10.7602105 L108.344657,3.83589474 L105.415998,10.7602105 L111.27239,10.7602105 Z" id="Shape" fill-rule="nonzero"></path>
                        <polygon id="Path" points="119.504324 0.284210526 122.249537 0.284210526 131.307906 12.2608421 131.307906 0.284210526 134.236566 0.284210526 134.236566 17.5907368 131.765596 17.5907368 122.432057 5.23989474 122.432057 17.5907368 119.504324 17.5907368"></polygon>
                        <polygon id="Path" points="137.347746 0.284210526 149.883261 0.284210526 149.883261 2.99368421 140.271773 2.99368421 140.271773 7.48421053 148.781655 7.48421053 148.781655 10.1974737 140.271773 10.1974737 140.271773 14.8736842 149.971279 14.8736842 149.971279 17.5878947 137.256022 17.5878947 137.256022 0.284210526"></polygon>
                    </g>
                </g>
            </g>
        </g>
    </g>
</svg>