<?xml version="1.0" encoding="UTF-8"?>
<svg width="104px" height="60px" viewBox="0 0 104 60" version="1.1" xmlns="http://www.w3.org/2000/svg" xmlns:xlink="http://www.w3.org/1999/xlink">
    <!-- Generator: Sketch 52.5 (67469) - http://www.bohemiancoding.com/sketch -->
    <title>Logo_Soundcloud_White</title>
    <desc>Created with Sketch.</desc>
    <g id="v.02_1" stroke="none" stroke-width="1" fill="none" fill-rule="evenodd">
        <g id="HiveConf_Landing_Page" transform="translate(-382.000000, -4961.000000)" fill="#FFFFFF" fill-rule="nonzero">
            <g id="HiveConf'18" transform="translate(-109.000000, 3325.000000)">
                <g id="Companies" transform="translate(275.000000, 1527.000000)">
                    <g id="Logo_Soundcloud_White" transform="translate(216.000000, 109.000000)">
                        <path d="M1.17697561,27.2961538 C0.953564203,27.3031724 0.772736024,27.4820612 0.76097561,27.7076923 L0,33.5448718 L0.76097561,39.2820513 C0.772821091,39.5079305 0.954546241,39.6866019 1.1782439,39.6923077 C1.39928965,39.683625 1.57822194,39.5077298 1.59297561,39.2846154 L2.49473171,33.5448718 L1.59297561,27.7064103 C1.57827147,27.4823502 1.39892662,27.3054815 1.17697561,27.2961538 Z M5.45365854,24.1025641 C5.45365854,23.8611165 5.26002715,23.6653846 5.02117073,23.6653846 C4.78231431,23.6653846 4.58868293,23.8611165 4.58868293,24.1025641 C4.58868293,24.1025641 3.56643902,33.5410256 3.56643902,33.5410256 L4.58868293,42.7717949 C4.60112054,43.0037063 4.79077711,43.1853084 5.02053659,43.1853084 C5.25029607,43.1853084 5.43995263,43.0037063 5.45239024,42.7717949 L6.61541463,33.5410256 L5.45365854,24.1025641 Z M21.5609756,15.3974359 C21.1332407,15.4061252 20.7873892,15.7523453 20.7746341,16.1846154 L19.9616585,33.5487179 L20.7746341,44.7705128 C20.7915928,45.1974461 21.1389178,45.5347245 21.5616098,45.5347245 C21.9843017,45.5347245 22.3316267,45.1974461 22.3485854,44.7705128 L23.2680976,33.5474359 L22.3485854,16.1833333 C22.3300668,15.7539721 21.9859922,15.4123257 21.5609756,15.4012821 L21.5609756,15.3974359 Z M13.2219512,21.4358974 C12.8914674,21.4431474 12.6239183,21.709663 12.6119024,22.0435897 L11.6949268,33.5487179 L12.6119024,44.6794872 C12.6119024,45.0200628 12.8850306,45.2961538 13.2219512,45.2961538 C13.5588719,45.2961538 13.832,45.0200628 13.832,44.6794872 L14.8732683,33.5487179 L13.832,22.0410256 C13.813867,21.7102825 13.549429,21.4479774 13.2219512,21.4358974 Z M30.0280976,45.5576923 C30.5544801,45.551579 30.981082,45.1243211 30.992,44.5923077 L31.7897561,33.5589744 L30.9932683,10.4410256 C30.9744419,9.9163001 30.5481673,9.50074577 30.0287317,9.50074577 C29.5092961,9.50074577 29.0830216,9.9163001 29.0641951,10.4410256 L28.3564878,33.5564103 L29.0641951,44.5935897 C29.0731402,45.126249 29.5010895,45.5542871 30.0280976,45.5576923 Z M47.3694634,45.6102564 C48.0922821,45.6013296 48.6768714,45.0126714 48.6884878,44.2820513 L49.2452683,33.5653846 L48.6884878,6.86538462 C48.6663842,6.14474642 48.0820764,5.57212905 47.3688293,5.57212905 C46.6555822,5.57212905 46.0712743,6.14474642 46.0491707,6.86538462 L45.552,33.5551282 C45.552,33.5717949 46.0491707,44.2871795 46.0491707,44.2871795 C46.0621909,45.0168581 46.6475296,45.6034313 47.3694634,45.6102564 Z M38.6321951,45.5679487 C39.260881,45.5637538 39.7695087,45.0496085 39.7736585,44.4141026 L39.7736585,44.4217949 L40.4585366,33.5615385 L39.7723902,10.275641 C39.7723902,9.63838939 39.2613397,9.12179487 38.6309268,9.12179487 C38.000514,9.12179487 37.4894634,9.63838939 37.4894634,10.275641 L36.8870244,33.5628205 L37.4907317,44.425641 C37.4969915,45.058382 38.0062132,45.5679804 38.6321951,45.5679487 Z M17.3756098,45.4666667 C17.7531512,45.4581816 18.0591323,45.1544946 18.074439,44.7730769 L19.0560976,33.5487179 L18.074439,22.8717949 C18.0521811,22.4988545 17.7464869,22.2079248 17.376878,22.2079248 C17.0072692,22.2079248 16.701575,22.4988545 16.6793171,22.8717949 L15.8156098,33.5448718 L16.6793171,44.7679487 C16.6887716,45.1517983 16.9958206,45.4599168 17.3756098,45.4666667 Z M9.10634146,44.8512821 C9.38571303,44.8436801 9.61251504,44.6205537 9.62760976,44.3384615 L10.7297561,33.5474359 L9.62634146,22.3487179 C9.61001835,22.0666937 9.38316306,21.8440565 9.10380488,21.8358974 C8.82415676,21.8423124 8.59705289,22.0662807 8.58380488,22.3487179 C8.58380488,22.3487179 7.6097561,33.5461538 7.6097561,33.5461538 L8.58126829,44.3346154 C8.59263907,44.6195276 8.82176786,44.8460825 9.10380488,44.8512821 L9.10634146,44.8512821 Z M42.9837073,9.88846154 C42.3058251,9.88915745 41.7556818,10.4429779 41.7521951,11.1282051 L41.2017561,33.5641026 L41.7521951,44.3589744 C41.7754827,45.030607 42.3219287,45.5623126 42.9867584,45.5602351 C43.6515881,45.5581577 44.1947718,45.0230474 44.2139512,44.3512821 L44.2139512,44.3589744 L44.8316098,33.5628205 L44.2139512,11.1269231 C44.2097742,10.4426961 43.6606029,9.88985641 42.9837073,9.88846154 Z M25.7767805,45.5807692 C26.2543479,45.5739972 26.6410325,45.1865168 26.6519024,44.7038462 L27.5105366,33.5564103 L26.6519024,12.2205128 C26.6339862,11.7447004 26.2471934,11.3683104 25.7761463,11.3683104 C25.3050993,11.3683104 24.9183065,11.7447004 24.9003902,12.2205128 C24.9003902,12.2205128 24.1394146,33.5564103 24.1394146,33.5564103 L24.9003902,44.7102564 C24.9146248,45.1909075 25.3011112,45.574802 25.7767805,45.5807692 Z M35.3650732,44.5282051 L36.1032195,33.5653846 L35.3650732,9.66794872 C35.3650732,9.0802611 34.893771,8.60384615 34.3123902,8.60384615 C33.7310095,8.60384615 33.2597073,9.0802611 33.2597073,9.66794872 L32.6052683,33.5641026 L33.2609756,44.5320513 C33.2806591,45.1050199 33.7458631,45.5592239 34.3130244,45.5592239 C34.8801857,45.5592239 35.3453897,45.1050199 35.3650732,44.5320513 L35.3650732,44.5282051 Z M91.177561,19.7846154 C89.4791443,19.7833779 87.7975483,20.1246531 86.2312195,20.7884615 C85.2127805,9.13846154 75.5483902,0 63.7596098,0 C60.9626796,0.00496299748 58.1903823,0.528588006 55.5803902,1.54487179 C54.6152195,1.92307692 54.3577561,2.31410256 54.348878,3.06538462 L54.348878,44.0910256 C54.3628456,44.8793381 54.9546289,45.5341206 55.7300488,45.6192308 C55.7617561,45.6192308 90.948,45.6410256 91.1762927,45.6410256 C98.2397182,45.6410255 103.965756,39.852871 103.965756,32.7128205 C103.965756,25.5727701 98.2397182,19.7846155 91.1762927,19.7846154 L91.177561,19.7846154 Z M51.7336585,3.02948718 C50.9595709,3.03640093 50.3329461,3.667545 50.3233171,4.45 L49.7475122,33.5692308 L50.3245854,44.1371795 C50.3503175,44.9069063 50.9766698,45.5165419 51.7385645,45.5134211 C52.5004593,45.5103002 53.1219033,44.8955534 53.1414634,44.125641 L53.1414634,44.1384615 L53.7756098,33.5692308 L53.1414634,4.4474359 C53.1311775,3.66717682 52.5068374,3.03777111 51.7349268,3.02948718 L51.7336585,3.02948718 Z M10.326439,53.8576923 C8.81336585,53.4987179 8.40497561,53.3064103 8.40497561,52.7038462 C8.40497561,52.275641 8.74487805,51.8346154 9.76712195,51.8346154 C10.6409756,51.8346154 11.3220488,52.1923077 11.9359024,52.8269231 L13.3170732,51.474359 C12.4165854,50.524359 11.327122,49.9589744 9.84195122,49.9589744 C7.95853659,49.9589744 6.43278049,51.0333333 6.43278049,52.7794872 C6.43278049,54.6807692 7.6604878,55.2448718 9.41834146,55.6576923 C11.2117073,56.075641 11.5414634,56.3525641 11.5414634,56.9730769 C11.5414634,57.7025641 11.0087805,58.0205128 9.88,58.0205128 C8.9428014,58.0485226 8.04372711,57.6448089 7.436,56.9230769 L6.05990244,58.1641026 C6.78156098,59.2307692 8.17414634,59.9064103 9.76585366,59.9064103 C12.3709268,59.9064103 13.5161951,58.6666667 13.5161951,56.8294872 C13.5174634,54.7435897 11.8407805,54.2166667 10.326439,53.8576923 Z M19.1080976,49.9589744 C16.5042927,49.9589744 14.9658537,51.9974359 14.9658537,54.9333333 C14.9658537,57.8692308 16.5042927,59.9064103 19.1080976,59.9064103 C21.7119024,59.9064103 23.252878,57.8679487 23.252878,54.9333333 C23.252878,51.9987179 21.7106341,49.9589744 19.1080976,49.9589744 Z M19.1080976,57.9923077 C17.5683902,57.9923077 16.9266341,56.6551282 16.9266341,54.9346154 C16.9266341,53.2141026 17.5683902,51.874359 19.1080976,51.874359 C20.6478049,51.874359 21.289561,53.2115385 21.289561,54.9346154 C21.289561,56.6576923 20.6490732,57.9923077 19.1080976,57.9923077 Z M30.9552195,55.5269231 C30.9552195,57.0653846 30.203122,58.0205128 28.9919024,58.0205128 C27.7806829,58.0205128 27.0425366,57.0423077 27.0425366,55.4987179 L27.0425366,50.1141026 L25.1324878,50.1141026 L25.1324878,55.5320513 C25.1324878,58.3410256 26.6886829,59.9115385 28.9919024,59.9115385 C31.4181463,59.9115385 32.8627317,58.3 32.8627317,55.5038462 L32.8627317,50.1192308 L30.9602927,50.1192308 L30.9602927,55.5371795 L30.9552195,55.5269231 Z M41.0926829,54.1897436 C41.0926829,54.7269231 41.1193171,55.9384615 41.1193171,56.2974359 C40.9924878,56.0487179 40.6842927,55.5666667 40.4521951,55.2076923 L37.0721951,50.1076923 L35.247122,50.1076923 L35.247122,59.7551282 L37.1292683,59.7551282 L37.1292683,55.5128205 C37.1292683,54.975641 37.1013659,53.7641026 37.1013659,53.4051282 C37.2281951,53.6525641 37.5389268,54.1358974 37.7697561,54.4948718 L41.2727805,59.7512821 L42.9773659,59.7512821 L42.9773659,50.1076923 L41.0926829,50.1076923 L41.0926829,54.1897436 Z M48.4132683,50.1089744 L45.4302439,50.1089744 L45.4302439,59.7564103 L48.277561,59.7564103 C50.7317073,59.7564103 53.1592195,58.3230769 53.1592195,54.9333333 C53.1592195,51.4102564 51.1413659,50.1089744 48.4158049,50.1089744 L48.4132683,50.1089744 Z M48.2750244,57.8833333 L47.3364878,57.8833333 L47.3364878,51.9858974 L48.3447805,51.9858974 C50.3626341,51.9858974 51.1946341,52.9628205 51.1946341,54.9346154 C51.1971707,56.6974359 50.2827317,57.8833333 48.277561,57.8833333 L48.2750244,57.8833333 Z M59.0555122,51.8730769 C59.9141463,51.8730769 60.4595122,52.2576923 60.8006829,52.9217949 L62.5762927,52.0948718 C61.9763902,50.8423077 60.8843902,49.9589744 59.0859512,49.9589744 C56.5937561,49.9589744 54.8473171,51.9974359 54.8473171,54.9333333 C54.8473171,57.9782051 56.524,59.9064103 59.0174634,59.9064103 C60.7499512,59.9064103 61.8952195,59.0935897 62.5483902,57.7269231 L60.9414634,56.7615385 C60.4341463,57.6166667 59.9268293,57.9884615 59.0732683,57.9884615 C57.6413659,57.9884615 56.8093659,56.6653846 56.8093659,54.9307692 C56.8106341,53.1423077 57.6312195,51.8730769 59.0618537,51.8730769 L59.0555122,51.8730769 Z M66.1338537,50.1089744 L64.2314146,50.1089744 L64.2314146,59.7564103 L69.9679024,59.7564103 L69.9679024,57.8538462 L66.1401951,57.8538462 L66.1338537,50.1089744 Z M74.9890732,49.9589744 C72.384,49.9589744 70.8442927,51.9974359 70.8442927,54.9333333 C70.8442927,57.8692308 72.384,59.9064103 74.9890732,59.9064103 C77.5941463,59.9064103 79.1414634,57.8679487 79.1414634,54.9333333 C79.1414634,51.9987179 77.5979512,49.9589744 74.9954146,49.9589744 L74.9890732,49.9589744 Z M74.9890732,57.9923077 C73.4468293,57.9923077 72.8076098,56.6551282 72.8076098,54.9346154 C72.8076098,53.2141026 73.4417561,51.874359 74.9890732,51.874359 C76.5363902,51.874359 77.168,53.2115385 77.168,54.9346154 C77.168,56.6576923 76.5338537,57.9923077 74.9954146,57.9923077 L74.9890732,57.9923077 Z M86.8336585,55.5269231 C86.8336585,57.0653846 86.0853659,58.0205128 84.872878,58.0205128 C83.6603902,58.0205128 82.9222439,57.0423077 82.9222439,55.4987179 L82.9222439,50.1141026 L81.0198049,50.1141026 L81.0198049,55.5320513 C81.0198049,58.3410256 82.5734634,59.9115385 84.8779512,59.9115385 C87.3041951,59.9115385 88.7487805,58.3 88.7487805,55.5038462 L88.7487805,50.1192308 L86.84,50.1192308 L86.8336585,55.5269231 Z M94.1136585,50.1089744 L91.1357073,50.1089744 L91.1357073,59.7564103 L93.9804878,59.7564103 C96.4359024,59.7564103 98.860878,58.3230769 98.860878,54.9333333 C98.8634146,51.4102564 96.8468293,50.1089744 94.12,50.1089744 L94.1136585,50.1089744 Z M93.9804878,57.8833333 L93.0406829,57.8833333 L93.0406829,51.9858974 L94.0553171,51.9858974 C96.0706341,51.9858974 96.9026341,52.9628205 96.9026341,54.9346154 C96.897561,56.6974359 95.9869268,57.8833333 93.9804878,57.8833333 Z" id="path2465"></path>
                    </g>
                </g>
            </g>
        </g>
    </g>
</svg>