<?xml version="1.0" encoding="UTF-8"?>
<svg width="147px" height="35px" viewBox="0 0 147 35" version="1.1" xmlns="http://www.w3.org/2000/svg" xmlns:xlink="http://www.w3.org/1999/xlink">
    <!-- Generator: Sketch 52.5 (67469) - http://www.bohemiancoding.com/sketch -->
    <title>Logo_Linkedin_White</title>
    <desc>Created with Sketch.</desc>
    <g id="v.02_1" stroke="none" stroke-width="1" fill="none" fill-rule="evenodd">
        <g id="HiveConf_Landing_Page" transform="translate(-166.000000, -4974.000000)" fill="#FFFFFF">
            <g id="HiveConf'18" transform="translate(-109.000000, 3325.000000)">
                <g id="Companies" transform="translate(275.000000, 1527.000000)">
                    <g id="Logo_Linkedin_White" transform="translate(0.000000, 122.000000)">
                        <polygon id="Path" points="0 5.27543253 5.33551104 5.27543253 5.33551104 24.8560554 15.2144399 24.8560554 15.2144399 29.8178201 0 29.8178201"></polygon>
                        <path d="M17.5690842,13.1788927 L22.6978577,13.1788927 L22.6978577,29.8105536 L17.5690842,29.8105536 L17.5690842,13.1788927 Z M20.1352739,4.91089965 C21.7772651,4.91090019 23.1084857,6.25185005 23.1089278,7.9062867 C23.1093699,9.56072334 21.7788662,10.9023953 20.1368752,10.9032868 C18.4948842,10.9041782 17.1629464,9.56395174 17.161619,7.90951557 C17.1622808,6.25464755 18.4928557,4.9129038 20.1352739,4.91089965 Z" id="Shape" fill-rule="nonzero"></path>
                        <polygon id="Path" points="44.1360589 5.27543253 49.2612265 5.27543253 49.2612265 19.9427336 55.0703107 13.1716263 61.3541701 13.1716263 54.6291905 20.8728374 61.2135405 29.8178201 54.7698201 29.8178201 49.3273344 21.5946367 49.2612265 21.5946367 49.2612265 29.8178201 44.1360589 29.8178201"></polygon>
                        <path d="M25.533287,13.182526 L30.4613328,13.182526 L30.4613328,15.4544983 L30.5298446,15.4544983 C31.2149632,14.1465398 32.8892968,12.7683391 35.3845707,12.7683391 C40.5830581,12.7683391 41.5374162,16.2138408 41.5374162,20.6911765 L41.5374162,29.8105536 L36.4050368,29.8105536 L36.4050368,21.7230104 C36.4050368,19.7949827 36.3713818,17.315917 33.7390842,17.315917 C31.0731316,17.315917 30.6620605,19.417128 30.6620605,21.5849481 L30.6620605,29.8105536 L25.533287,29.8105536 L25.533287,13.182526 Z" id="Path"></path>
                        <path d="M72.1477923,19.5624567 C72.1802453,17.8391003 70.847269,16.3930796 68.9998528,16.3930796 C66.7449714,16.3930796 65.5141619,17.9432526 65.3783401,19.5624567 L72.1477923,19.5624567 Z M76.4904824,26.9306228 C74.8461979,29.033045 72.1477923,30.2392734 69.4818397,30.2392734 C64.3530662,30.2392734 60.2507686,26.7949827 60.2507686,21.4529412 C60.2507686,16.1108997 64.3530662,12.6714533 69.4818397,12.6714533 C74.2692559,12.6714533 77.2753639,16.116955 77.2753639,21.4529412 L77.2753639,23.0733564 L65.3759362,23.0733564 C65.7834015,25.0377163 67.2570074,26.3105536 69.2378414,26.3105536 C70.9205887,26.3105536 72.0408177,25.4519031 72.8966149,24.2795848 L76.4904824,26.9306228 Z" id="Shape" fill-rule="nonzero"></path>
                        <path d="M87.9584056,17.1972318 C85.3946198,17.1972318 83.853704,18.9205882 83.853704,21.4359862 C83.853704,23.9513841 85.3946198,25.6747405 87.9584056,25.6747405 C90.5221913,25.6747405 92.0607032,23.9525952 92.0607032,21.4359862 C92.0607032,18.9193772 90.5233933,17.1972318 87.9584056,17.1972318 Z M96.7820114,29.8044983 L92.0607032,29.8044983 L92.0607032,27.6015571 L91.9933933,27.6015571 C91.204906,28.8126298 89.2288798,30.2211073 86.8982747,30.2211073 C81.9702289,30.2211073 78.7249305,26.6399654 78.7249305,21.5764706 C78.7249305,16.9247405 81.5976206,12.6544983 86.315323,12.6544983 C88.4367866,12.6544983 90.4176206,13.2382353 91.5799182,14.8574394 L91.6472281,14.8574394 L91.6472281,5.27543253 L96.7796075,5.27543253 L96.7820114,29.8044983 Z" id="Shape" fill-rule="nonzero"></path>
                        <path d="M133.938275,0.121107266 L104.461349,0.121107266 C103.067743,0.104960149 101.924881,1.22991953 101.908381,2.63408304 L101.908381,32.4567474 C101.915988,33.1312739 102.189245,33.7751237 102.668029,34.2466346 C103.146813,34.7181455 103.791898,34.9786872 104.461349,34.9709343 L133.938275,34.9709343 C135.349379,34.9709343 136.496051,33.8434256 136.496051,32.4567474 L136.496051,2.63408304 C136.496051,1.24619377 135.349379,0.121107266 133.938275,0.121107266 Z M112.169534,29.8178201 L107.033549,29.8178201 L107.033549,13.1861592 L112.169534,13.1861592 L112.169534,29.8178201 Z M109.604546,10.9141869 C108.401111,10.9151667 107.315632,10.185494 106.854423,9.0655185 C106.393215,7.94554299 106.647137,6.65590865 107.497751,5.79815457 C108.348364,4.9404005 109.628092,4.68351101 110.740015,5.14731005 C111.851938,5.61110909 112.576999,6.70422458 112.576999,7.91678201 C112.576337,9.57098117 111.246301,10.9121827 109.604546,10.9141869 Z M131.384105,29.8178201 L126.255331,29.8178201 L126.255331,21.7290657 C126.255331,19.8010381 126.221676,17.3195502 123.588177,17.3195502 C120.91982,17.3195502 120.511153,19.4219723 120.511153,21.5910035 L120.511153,29.8178201 L115.388389,29.8178201 L115.388389,13.1861592 L120.304415,13.1861592 L120.304415,15.4605536 L120.374129,15.4605536 C121.06045,14.1525952 122.732379,12.7743945 125.228855,12.7743945 C130.424939,12.7743945 131.384105,16.217474 131.384105,20.6972318 L131.384105,29.8178201 Z" id="Shape" fill-rule="nonzero"></path>
                        <path d="M143.535944,26.9948097 C144.264334,26.9064014 144.645356,26.5019031 144.645356,25.8224913 C144.645356,24.9929066 144.147743,24.5920415 143.123671,24.5920415 L141.478185,24.5920415 L141.478185,28.9519031 L142.098397,28.9519031 L142.098397,27.0517301 L142.862845,27.0517301 L142.879673,27.0747405 L144.06601,28.9482699 L144.728291,28.9482699 L143.454211,27.0105536 L143.535944,26.9948097 Z M142.814767,26.5600346 L142.09359,26.5600346 L142.09359,25.0849481 L143.005879,25.0849481 C143.479452,25.0849481 144.019133,25.1648789 144.019133,25.7861592 C144.023941,26.5019031 143.480654,26.5600346 142.819575,26.5600346 L142.814767,26.5600346 Z" id="Shape" fill-rule="nonzero"></path>
                        <path d="M142.889289,22.6531142 C140.632282,22.6531142 138.802617,24.4966476 138.802617,26.7707612 C138.802617,29.0448749 140.632282,30.8884083 142.889289,30.8884083 C145.146295,30.8884083 146.975961,29.0448749 146.975961,26.7707612 C146.985679,25.6757208 146.558242,24.622682 145.789726,23.8483405 C145.021209,23.073999 143.976092,22.6433219 142.889289,22.6531142 Z M142.889289,30.3567474 C140.93009,30.3567474 139.395184,28.7980969 139.395184,26.7731834 C139.395184,24.7482699 140.93009,23.1944637 142.889289,23.1944637 C144.848487,23.1944637 146.383393,24.7543253 146.383393,26.7731834 C146.383393,28.7920415 144.848487,30.3567474 142.889289,30.3567474 Z" id="Shape" fill-rule="nonzero"></path>
                    </g>
                </g>
            </g>
        </g>
    </g>
</svg>