<?xml version="1.0" encoding="UTF-8"?>
<svg width="113px" height="60px" viewBox="0 0 113 60" version="1.1" xmlns="http://www.w3.org/2000/svg" xmlns:xlink="http://www.w3.org/1999/xlink">
    <!-- Generator: Sketch 52.5 (67469) - http://www.bohemiancoding.com/sketch -->
    <title>Logo_DeliveryHero_White</title>
    <desc>Created with Sketch.</desc>
    <g id="v.02_1" stroke="none" stroke-width="1" fill="none" fill-rule="evenodd">
        <g id="HiveConf_Landing_Page" transform="translate(-774.000000, -4961.000000)" fill="#F2F2F2">
            <g id="HiveConf'18" transform="translate(-109.000000, 3325.000000)">
                <g id="Companies" transform="translate(275.000000, 1527.000000)">
                    <g id="Logo_DeliveryHero_White" transform="translate(608.000000, 109.000000)">
                        <path d="M69.382,1.00075472 C63.7919804,-1.19792032 57.4269276,0.308965434 53.41058,4.78188679 L38.194,21.1177358 C38.0992336,21.191508 38.0578204,21.3149896 38.0888967,21.431122 C38.119973,21.5472544 38.2174873,21.6334232 38.33638,21.6498113 L42.38856,21.8988679 C42.714,21.9192453 42.75242,22.2 42.59196,22.3924528 L32.6796,33.1041509 C32.6075407,33.1910765 32.6015828,33.3152791 32.6649897,33.4087267 C32.7283967,33.5021743 32.8458685,33.5423183 32.95306,33.5071698 L47.0984,29.0264151 C47.39898,28.9222642 47.6295,29.189434 47.50294,29.4249057 L45.61132,32.7781132 C45.5721478,32.8805182 45.588184,32.9958986 45.6537902,33.0836874 C45.7193964,33.1714762 45.8253884,33.2193838 45.9345,33.210566 L66.33552,28.6550943 C72.7506856,27.6477197 77.6975423,22.4606956 78.4098724,15.9945385 C79.1222025,9.52838131 75.4234873,3.38543484 69.382,1.00075472 Z M71.642,15.7516981 L71.61714,15.7675472 L67.05872,17.6309434 L66.9186,17.6920755 L65.80894,22.7796226 C65.7721581,22.8652431 65.6938151,22.9257349 65.601802,22.9395622 C65.5097888,22.9533896 65.417178,22.9185879 65.35694,22.8475472 L62.03474,18.914717 L62.01666,18.9033962 L43.2903,26.9569811 C43.2731905,26.9608682 43.2554295,26.9608682 43.23832,26.9569811 C43.1839509,26.9573566 43.1356477,26.9222878 43.119077,26.870409 C43.1025062,26.8185302 43.1215139,26.7618824 43.166,26.730566 L59.35664,14.5901887 L57.30682,9.90566038 C57.2587071,9.80511608 57.2756505,9.6854513 57.3497759,9.60227836 C57.4239013,9.51910543 57.5406717,9.48873569 57.64582,9.52528302 L62.60652,10.7501887 L66.45982,7.31320755 C66.5344203,7.252773 66.6356736,7.23714056 66.7249741,7.27227057 C66.8142745,7.30740059 66.8778574,7.3878782 66.89148,7.48301887 L67.26664,12.6430189 L71.71206,15.2467925 C71.8098952,15.3020772 71.8640353,15.4116757 71.8485693,15.5231353 C71.8331033,15.634595 71.7511772,15.7252437 71.642,15.7516981 Z" id="Shape" fill-rule="nonzero"></path>
                        <polygon id="Path" points="26.08266 56.2641509 22.64972 56.2641509 25.3346 43.6550943 29.07942 42.2784906"></polygon>
                        <path d="M16.22228,52.7230189 C16.2021675,52.8328832 16.1908316,52.9441793 16.18838,53.0558491 C16.18838,53.6173585 16.57032,53.8098113 17.58732,53.8098113 C18.5916801,53.7871978 19.5877424,53.6217719 20.54566,53.3184906 L20.54566,55.8973585 C19.5829,56.2483019 18.07548,56.4384906 16.86864,56.4384906 C14.03234,56.4384906 12.66956,55.6686792 12.66956,53.0920755 C12.66956,50.5630189 13.84024,46.6211321 18.35798,46.6211321 C21.22592,46.6211321 22.08246,47.9207547 22.08246,49.2883019 C22.08246,51.0588679 20.566,52.5645283 16.22228,52.7230189 Z M18.09356,49.0415094 C17.27318,49.0415094 16.80084,49.7207547 16.60874,50.5154717 C18.23368,50.5154717 18.72636,50.0060377 18.72636,49.5826415 C18.7154408,49.426277 18.6422538,49.2808692 18.5232513,49.1791055 C18.4042488,49.0773418 18.2494163,49.0277613 18.09356,49.0415094 Z" id="Shape" fill-rule="nonzero"></path>
                        <path d="M32.0242,46.170566 C30.85352,46.170566 30.09868,45.4166038 30.09868,44.3818868 C30.09868,43.0233962 31.04562,42.2784906 32.2163,42.2784906 C33.38698,42.2784906 34.14182,43.0324528 34.14182,44.0467925 C34.14182,45.4166038 33.222,46.170566 32.0242,46.170566 Z" id="Path"></path>
                        <polyline id="Path" points="29.9111 46.9381132 33.448 46.9381132 31.6626 56.1237736 28.0918 56.1237736 29.35062 49.6732075"></polyline>
                        <path d="M43.618,46.9381132 C42.389978,50.0913237 40.955526,53.1598818 39.324,56.1237736 L34.96446,56.1237736 C34.3950632,53.09666 34.1488434,50.0174341 34.22996,46.9381132 L37.80076,46.9381132 C37.7338104,48.4335286 37.7451259,49.9314314 37.83466,51.4256604 C37.85274,51.810566 37.8889,52.1773585 37.9228,52.5577358 L37.94088,52.5577358 C38.09908,52.1864151 38.27084,51.8196226 38.4313,51.4256604 C39.0415,49.9154717 39.60198,48.2716981 40.0133,46.9381132 L43.618,46.9381132 Z" id="Path"></path>
                        <path d="M46.5334,52.7230189 C46.5136642,52.832989 46.5015817,52.9442003 46.49724,53.0558491 C46.49724,53.6173585 46.8837,53.8098113 47.89618,53.8098113 C48.8990727,53.7873209 49.8936604,53.6218871 50.85,53.3184906 L50.85,55.8973585 C49.88724,56.2483019 48.38434,56.4384906 47.17524,56.4384906 C44.3412,56.4384906 42.9739,55.6686792 42.9739,53.0920755 C42.9739,50.5630189 44.14684,46.6211321 48.66232,46.6211321 C51.53252,46.6211321 52.38906,47.9207547 52.38906,49.2883019 C52.39358,51.0588679 50.87486,52.5645283 46.5334,52.7230189 Z M48.40468,49.0415094 C47.5843,49.0415094 47.1097,49.7207547 46.91534,50.5154717 C48.5448,50.5154717 49.03522,50.0060377 49.03522,49.5826415 C49.0248813,49.4264714 48.9521815,49.2810584 48.8335357,49.1792361 C48.7148899,49.0774138 48.560303,49.0277683 48.40468,49.0415094 Z" id="Shape" fill-rule="nonzero"></path>
                        <path d="M59.2572,50.1803774 C58.9756008,50.1139861 58.6876593,50.0783069 58.3984,50.0739623 C57.60966,50.0739623 56.97912,50.8641509 56.69888,52.32 L55.96664,56.1237736 L52.39358,56.1237736 L54.18124,46.9381132 L56.85934,46.9381132 L56.94522,48.1630189 C57.76786,47.1486792 58.41648,46.6211321 59.4154,46.6211321 C59.6899853,46.6091595 59.9649646,46.6327507 60.23352,46.6913208 L59.2572,50.1803774 Z" id="Path"></path>
                        <path d="M70.41934,46.9381132 C68.83734,51.0407547 67.44518,54.0384906 66.04398,56.1079245 C64.00998,59.1418868 62.2291,59.8437736 60.39398,59.8437736 C59.9126593,59.8448861 59.4360696,59.748623 58.99278,59.5607547 L59.55326,56.9139623 L60.77818,56.9139623 C61.39064,56.9139623 61.6528,56.6671698 62.05508,56.1237736 C61.37708,53.6535849 61.04034,50.1984906 61.07424,46.9381132 L64.66538,46.9381132 C64.5949381,48.416097 64.6062555,49.8968551 64.69928,51.3735849 C64.71736,51.7743396 64.749,52.1615094 64.78516,52.5486792 L64.80324,52.5486792 C64.96144,52.1773585 65.13546,51.810566 65.29366,51.4166038 C65.8895671,49.9547953 66.4093134,48.4629759 66.8508,46.9471698 L70.41934,46.9381132 Z" id="Path"></path>
                        <polygon id="Path" points="84.14432 56.1237736 80.3769 56.1237736 81.2809 51.4958491 78.0943 51.4958491 77.2016 56.1237736 73.43192 56.1237736 75.80944 43.8973585 79.5746 43.8973585 78.71806 48.2649057 81.9024 48.2649057 82.75894 43.8973585 86.52184 43.8973585"></polygon>
                        <path d="M89.6881,52.7230189 C89.6679875,52.8328832 89.6566516,52.9441793 89.6542,53.0558491 C89.6542,53.6173585 90.04066,53.8098113 91.05314,53.8098113 C92.0590534,53.7879946 93.0567193,53.6225551 94.016,53.3184906 L94.016,55.8973585 C93.05324,56.2483019 91.54808,56.4384906 90.33898,56.4384906 C87.50494,56.4384906 86.1399,55.6686792 86.1399,53.0920755 C86.1399,50.5630189 87.31284,46.6211321 91.82832,46.6211321 C94.69852,46.6211321 95.55732,47.9207547 95.55732,49.2883019 C95.5528,51.0588679 94.0273,52.5645283 89.6881,52.7230189 Z M91.56164,49.0415094 C90.73674,49.0415094 90.26666,49.7207547 90.07456,50.5154717 C91.70176,50.5154717 92.19444,50.0060377 92.19444,49.5826415 C92.1829225,49.4265109 92.1095668,49.2814763 91.9907088,49.1798361 C91.8718507,49.0781959 91.7173597,49.0283899 91.56164,49.0415094 Z" id="Shape" fill-rule="nonzero"></path>
                        <path d="M102.40964,50.1803774 C102.129632,50.1136562 101.843152,50.0779702 101.55536,50.0739623 C100.76888,50.0739623 100.13608,50.8641509 99.85584,52.32 L99.12134,56.1237736 L95.5528,56.1237736 L97.33594,46.9381132 L100.01178,46.9381132 L100.10218,48.1630189 C100.92482,47.1486792 101.57118,46.6211321 102.56784,46.6211321 C102.844666,46.6093263 103.121866,46.6329125 103.39274,46.6913208 L102.40964,50.1803774 Z" id="Path"></path>
                        <path d="M106.9432,56.4384906 C104.16114,56.4384906 102.79836,55.245283 102.79836,52.8633962 C102.79836,50.2166038 104.10916,46.6211321 108.73086,46.6211321 C111.49484,46.6211321 112.87796,47.8483019 112.87796,50.1984906 C112.87796,52.8996226 111.5649,56.4384906 106.9432,56.4384906 Z M108.27434,49.4445283 C106.83924,49.4445283 106.46634,51.6362264 106.46634,52.6143396 C106.46634,53.4022642 106.79856,53.6286792 107.44718,53.6286792 C108.86194,53.6286792 109.23032,51.4369811 109.23032,50.4407547 C109.21902,49.6732075 108.90488,49.4445283 108.27434,49.4445283 Z" id="Shape" fill-rule="nonzero"></path>
                        <path d="M8.3394,46.9901887 L10.71918,44.7033962 C9.79032,44.1418868 8.51794,43.8860377 6.92916,43.8860377 L2.37752,43.8860377 L0,56.1237736 L4.746,56.1237736 C10.25814,56.1237736 12.45938,52.274717 12.45938,48.2535849 C12.45938,47.2098113 12.23338,46.3766038 11.80398,45.7290566 L8.3394,46.9901887 Z M5.0059,53.2075472 L4.3053,53.2075472 L5.56412,46.7524528 L6.554,46.7524528 C8.04108,46.7524528 8.588,47.6332075 8.588,48.84 C8.57444,51.285283 7.232,53.2075472 5.0059,53.2075472 Z" id="Shape" fill-rule="nonzero"></path>
                    </g>
                </g>
            </g>
        </g>
    </g>
</svg>