<?xml version="1.0" encoding="UTF-8"?>
<svg width="90px" height="50px" viewBox="0 0 90 50" version="1.1" xmlns="http://www.w3.org/2000/svg" xmlns:xlink="http://www.w3.org/1999/xlink">
    <!-- Generator: Sketch 52.5 (67469) - http://www.bohemiancoding.com/sketch -->
    <title>Logo_Auto1_White</title>
    <desc>Created with Sketch.</desc>
    <g id="v.02_1" stroke="none" stroke-width="1" fill="none" fill-rule="evenodd">
        <g id="HiveConf_Landing_Page" transform="translate(-914.000000, -5059.000000)" fill="#FFFFFF">
            <g id="HiveConf'18" transform="translate(-109.000000, 3325.000000)">
                <g id="Companies" transform="translate(275.000000, 1527.000000)">
                    <g id="Logo_Auto1_White" transform="translate(748.000000, 207.000000)">
                        <path d="M4.65940054,0 L0.0220708447,22.1831683 L69.3196185,22.1831683 L73.9520436,0 L4.65940054,0 Z M16.3569482,18.4405941 L15.5317439,14.674505 L10.5841962,14.674505 L12.0470027,12.4467822 L15.0461853,12.4467822 L13.903406,7.26113861 L6.41035422,18.4405941 L3.57792916,18.4405941 L13.0978202,4.625 L16.0626703,4.625 L19.3242507,18.4405941 L16.3569482,18.4405941 Z M35.2140327,13.0074257 C34.3614441,16.689769 31.8,18.5309406 27.5297003,18.5309406 C23.2594005,18.5309406 21.5509537,16.689769 22.4043597,13.0074257 L24.346594,4.625 L27.1054496,4.625 L25.1644414,13.0074257 C24.6543597,15.209571 25.6144414,16.310231 28.0446866,16.3094059 C30.4749319,16.3085809 31.9463215,15.2079208 32.4588556,13.0074257 L34.4010899,4.625 L37.1525886,4.625 L35.2140327,13.0074257 Z M42.5476839,18.4405941 L39.7888283,18.4405941 L42.4741144,6.84653465 L38.203406,6.84653465 L38.7183924,4.61881188 L50.0186649,4.61881188 L49.5036785,6.84653465 L45.2341962,6.84653465 L42.5476839,18.4405941 Z M64.2972752,11.5482673 C63.2182561,16.2025578 60.2247956,18.5301155 55.3168937,18.5309406 C50.5536785,18.5309406 48.6,16.2033828 49.4558583,11.5482673 C50.539782,6.86922442 53.5745232,4.52929043 58.5600817,4.52846535 C63.4688011,4.52846535 65.3811989,6.86839934 64.2972752,11.5482673 Z" id="Shape" fill-rule="nonzero"></path>
                        <path d="M58.0450954,6.75 C54.969891,6.75 53.0660763,8.33044554 52.3336512,11.4913366 C51.589782,14.7033828 52.7554496,16.3094059 55.830654,16.3094059 C58.8298365,16.3094059 60.7017711,14.7033828 61.4464578,11.4913366 C62.1788828,8.33044554 61.0450954,6.75 58.0450954,6.75 Z" id="Path"></path>
                        <rect id="Rectangle" x="0" y="27.5321782" width="88.0320163" height="2.06683168"></rect>
                        <path d="M2.53201635,42.8861386 C2.53201635,38.700495 5.59741144,35.9096535 9.39850136,35.9096535 C11.7625341,35.9096535 13.4043597,36.9616337 14.586376,38.4381188 L13.2645777,39.2660891 C12.3234183,38.0850579 10.9001097,37.4016051 9.39850136,37.4096535 C6.47411444,37.4096535 4.2486376,39.674505 4.2486376,42.8898515 C4.2486376,46.0841584 6.47288828,48.3898515 9.39850136,48.3898515 C10.7330199,48.3801779 12.0142537,47.8600615 12.9837875,46.9344059 L12.9837875,44.1831683 L8.40163488,44.1831683 L8.40163488,42.6856436 L14.6550409,42.6856436 L14.6550409,47.5594059 C13.3178134,49.0593715 11.4061147,49.9064909 9.40708447,49.884901 C5.59741144,49.8824257 2.53201635,47.0717822 2.53201635,42.8861386 Z" id="Path"></path>
                        <path d="M29.8777929,49.6188119 L26.472752,44.2611386 L23.8083106,44.2611386 L23.8083106,49.6188119 L22.1456403,49.6188119 L22.1456403,36.1386139 L27.5137602,36.1386139 C29.9574932,36.1386139 31.7010899,37.7153465 31.7010899,40.2029703 C31.7010899,42.6299505 30.0580381,43.9641089 28.2347411,44.125 L31.8408719,49.625 L29.8777929,49.6188119 Z M29.9783379,40.1967822 C29.9783379,38.6806931 28.8956403,37.6287129 27.3138965,37.6287129 L23.8083106,37.6287129 L23.8083106,42.7846535 L27.3138965,42.7846535 C28.8956403,42.7846535 29.9783379,41.7079208 29.9783379,40.1967822 Z" id="Shape" fill-rule="nonzero"></path>
                        <path d="M38.5724796,42.8861386 C38.5724796,38.9022277 41.236921,35.9096535 45.2035422,35.9096535 C49.150545,35.9096535 51.8346049,38.9022277 51.8346049,42.8861386 C51.8346049,46.8700495 49.150545,49.8613861 45.2035422,49.8613861 C41.236921,49.8613861 38.5724796,46.8700495 38.5724796,42.8861386 Z M50.1118529,42.8861386 C50.1118529,39.7314356 48.1880109,37.4059406 45.2072207,37.4059406 C42.2019074,37.4059406 40.3025886,39.7314356 40.3025886,42.8861386 C40.3025886,46.019802 42.2055858,48.3663366 45.2072207,48.3663366 C48.1880109,48.3663366 50.1118529,46.019802 50.1118529,42.8861386 Z" id="Shape" fill-rule="nonzero"></path>
                        <path d="M59.2234332,44.3824257 L59.2234332,36.1386139 L60.8861035,36.1386139 L60.8861035,44.3477723 C60.8861035,46.8143564 62.2091281,48.3725248 64.6724796,48.3725248 C67.1358311,48.3725248 68.4588556,46.8143564 68.4588556,44.3477723 L68.4588556,36.1386139 L70.1215259,36.1386139 L70.1215259,44.3688119 C70.1215259,47.7252475 68.2982289,49.8675743 64.6724796,49.8675743 C61.0467302,49.8675743 59.2234332,47.6980198 59.2234332,44.3824257 Z" id="Path"></path>
                        <path d="M78.0388283,49.6188119 L78.0388283,36.1386139 L83.4081744,36.1386139 C86.0922343,36.1386139 87.5942779,37.9950495 87.5942779,40.2029703 C87.5942779,42.4108911 86.0517711,44.2673267 83.4081744,44.2673267 L79.7002725,44.2673267 L79.7002725,49.625 L78.0388283,49.6188119 Z M85.8715259,40.1967822 C85.8715259,38.6806931 84.7900545,37.6287129 83.2070845,37.6287129 L79.7002725,37.6287129 L79.7002725,42.7648515 L83.2070845,42.7648515 C84.7900545,42.7648515 85.8715259,41.7079208 85.8715259,40.1967822 Z" id="Shape" fill-rule="nonzero"></path>
                        <path d="M70.5175749,0 L65.8851499,22.1831683 L85.2878747,22.1831683 L89.9202997,0 L70.5175749,0 Z M82.3242507,3.85272277 L79.0871935,17.7227723 C79.0013624,18.0940594 78.6273842,18.490099 78.1908719,18.490099 L75.1978202,18.490099 C74.6595368,18.490099 74.4020436,18.164604 74.5160763,17.6757426 L76.8053134,7.85519802 C76.8653951,7.5990099 76.9279292,7.43564356 76.8053134,7.43564356 C76.6826975,7.43564356 75.933515,7.87871287 75.273842,8.17821782 C74.9059946,8.34158416 73.8882834,8.73638614 73.35,8.73638614 C72.8117166,8.73638614 72.7663488,8.38737624 72.8742507,7.9220297 L73.2543597,6.29331683 C73.3769755,5.75742574 73.6013624,5.57178218 74.0440054,5.4269802 C74.7609137,5.16863032 75.4622463,4.86820036 76.1444142,4.52722772 C77.1854223,4.01485149 78.1871935,3.45668317 78.4667575,3.24752475 C78.7207681,3.06027874 79.0321135,2.96955187 79.3459128,2.99133663 L81.5529973,2.99133663 C82.1660763,2.99133663 82.4542234,3.29331683 82.3242507,3.85272277 Z" id="Shape" fill-rule="nonzero"></path>
                    </g>
                </g>
            </g>
        </g>
    </g>
</svg>