<?xml version="1.0" encoding="UTF-8"?>
<svg width="168px" height="30px" viewBox="0 0 168 30" version="1.1" xmlns="http://www.w3.org/2000/svg" xmlns:xlink="http://www.w3.org/1999/xlink">
    <!-- Generator: Sketch 52.5 (67469) - http://www.bohemiancoding.com/sketch -->
    <title>Logo_Lufthansa_White</title>
    <desc>Created with Sketch.</desc>
    <g id="v.02_1" stroke="none" stroke-width="1" fill="none" fill-rule="evenodd">
        <g id="HiveConf_Landing_Page" transform="translate(-261.000000, -5069.000000)" fill="#FFFFFF" fill-rule="nonzero">
            <g id="HiveConf'18" transform="translate(-109.000000, 3325.000000)">
                <g id="Companies" transform="translate(275.000000, 1527.000000)">
                    <g id="Logo_Lufthansa_White" transform="translate(95.000000, 217.000000)">
                        <path d="M20.7816268,11.9730942 C20.6690909,11.9730942 20.5739713,11.9730942 20.5136842,11.9825112 C20.4507177,12.0955157 20.3582775,12.2515695 20.2216268,12.4600897 C22.3020549,12.4559801 24.3784418,12.6442185 26.4244976,13.0224215 L25.8216268,13.6076233 C23.9806925,13.2727812 22.1125502,13.111988 20.2417225,13.1273543 C19.9443062,13.1273543 19.8826794,13.1273543 19.8103349,13.1273543 C19.7393301,13.2349776 19.5785646,13.4434978 19.417799,13.638565 C19.6,13.6264574 19.9536842,13.6197309 20.4359809,13.6197309 C22.0965013,13.6179858 23.7543686,13.7529672 25.3929187,14.0233184 L24.7887081,14.6112108 C23.3631215,14.3993707 21.9239821,14.2928068 20.4828708,14.2923767 C19.977799,14.2923767 19.4030622,14.3098655 18.8886124,14.3394619 C18.7720574,14.473991 18.4692823,14.8022422 18.3768421,14.9044843 C19.1488567,14.8290303 19.9242612,14.7940052 20.6999043,14.7995516 C21.9155715,14.7948393 23.1299407,14.8798214 24.3332057,15.0538117 L23.7289952,15.6363229 C22.8388762,15.5293828 21.9433512,15.4741339 21.04689,15.470852 C18.7827751,15.470852 16.9969378,15.964574 15.1521531,17.0959641 C16.9111962,18.9901345 19.7902392,20.1901345 22.582201,20.1901345 L22.843445,20.1901345 L21.868134,21.1318386 C17.8489952,20.3730942 13.6047847,18.5946188 10.0264115,16.1542601 C6.58334928,13.8215247 5.37894737,13.1313901 2.69148325,11.9394619 L2.67942584,11.2560538 L4.49741627,12.0376682 L5.11636364,11.5452915 L11.0512919,14.2762332 L10.6654545,14.5869955 L7.61358852,13.2578475 L7.31215311,13.4932735 L8.89569378,14.3811659 C10.2354067,15.1278027 11.2482297,15.4573991 12.1887081,15.4573991 C14.2451675,15.4573991 16.0899522,13.993722 17.2796172,11.4215247 C18.2747361,11.2993685 19.2767501,11.2427453 20.2792344,11.2520179 C22.7077482,11.259372 25.1300882,11.4981101 27.5136842,11.9650224 L26.8826794,12.5784753 C24.869793,12.2031582 22.8287362,12.0006329 20.7816268,11.9730942 Z M15.012823,28.9843049 C9.35552638,28.984849 4.25500753,25.5631323 2.08980354,20.3148121 C-0.0754004498,15.0664919 1.12114878,9.02522828 5.12146158,5.00825819 C9.12177438,0.991288095 15.1379865,-0.210243565 20.3645433,1.96397633 C25.5911002,4.13819623 28.998628,9.25995362 28.9980861,14.9408072 C28.9958676,22.6958939 22.7357514,28.9820772 15.012823,28.9843049 Z M15.012823,9.55887057e-16 C8.99476733,-0.000544130635 3.56898694,3.63932166 1.26560128,9.22227558 C-1.03778439,14.8052295 0.234856296,21.2317577 4.49007267,25.5050775 C8.74528904,29.7783974 15.1450535,31.056916 20.7050638,28.7444418 C26.2650741,26.4319676 29.8903349,20.983922 29.8903349,14.9408072 C29.8924686,10.9778354 28.3257489,7.17654161 25.5352501,4.37417084 C22.7447513,1.57180007 18.9593615,-0.00178570185 15.012823,9.55887057e-16 Z M48.5458373,20.8883408 L57.0717703,20.8883408 L57.0717703,24.9013453 L43.9425837,24.9013453 L43.9425837,4.97757848 L48.5337799,4.97757848 L48.5458373,20.8883408 Z M67.3875598,10.5578475 L71.6746411,10.5578475 L71.6746411,24.9013453 L67.6555024,24.9013453 L67.6555024,23.2506726 C67.0606699,24.3605381 65.8415311,25.3278027 63.6028708,25.3278027 C59.9467943,25.3278027 58.0484211,23.67713 58.0484211,18.9524664 L58.0484211,10.5578475 L62.3274641,10.5578475 L62.3274641,18.7533632 C62.3274641,20.6609865 63.1500478,21.5139013 64.8729187,21.5139013 C66.4310048,21.5139013 67.3955981,20.6609865 67.3955981,18.7533632 L67.3875598,10.5578475 Z M74.9542584,10.0197309 C74.9542584,6.54753363 77.1366507,4.69775785 80.5649761,4.69775785 C81.1739673,4.68966976 81.782076,4.74694553 82.3789474,4.86860987 L82.3789474,8.34080717 C82.3789474,8.34080717 81.7841148,8.28430493 81.2736842,8.28430493 C79.9420096,8.28430493 79.2333014,8.73901345 79.2333014,9.99147982 L79.2333014,10.5605381 L82.3789474,10.5605381 L82.3789474,14.058296 L79.2386603,14.058296 L79.2386603,24.9013453 L74.9596172,24.9013453 L74.9596172,14.058296 L72.8053589,14.058296 L72.8053589,10.5605381 L74.9596172,10.5605381 L74.9596172,10.0224215 L74.9542584,10.0197309 Z M89.9228708,10.5605381 L93.1810526,10.5605381 L93.1810526,14.058296 L89.9228708,14.058296 L89.9228708,19.6412556 C89.9228708,21.1775785 90.7159809,21.57713 91.9632536,21.57713 C92.4723445,21.57713 93.1810526,21.4910314 93.1810526,21.4910314 L93.1810526,24.9349776 C92.5098669,25.0762776 91.8264185,25.1506299 91.1406699,25.1569507 C87.7123445,25.1569507 85.6478469,23.5910314 85.6478469,20.1201794 L85.6478469,14.058296 L83.4895694,14.058296 L83.4895694,10.5605381 L85.642488,10.5605381 L85.642488,6.37399103 L89.9295694,6.37399103 L89.9228708,10.5605381 Z M102.650144,10.1340807 C106.278086,10.1340807 108.176459,11.7847534 108.176459,16.5080717 L108.176459,24.9013453 L103.902775,24.9013453 L103.902775,16.7044843 C103.902775,14.7982063 103.081531,13.9439462 101.295694,13.9439462 C99.68,13.9439462 98.7167464,14.7982063 98.7167464,16.7044843 L98.7167464,24.9013453 L94.4377033,24.9013453 L94.4377033,5.00852018 L98.7448804,5.00852018 L98.7448804,11.9529148 C99.4817225,10.8995516 100.643254,10.1313901 102.655502,10.1313901 L102.650144,10.1340807 Z M119.09244,19.3224215 C119.09244,20.8883408 117.618756,22.0547085 115.351962,22.0547085 C114.246699,22.0547085 113.595598,21.5421525 113.595598,20.5748879 C113.595598,19.8349776 114.048421,19.209417 115.493971,19.0103139 L117.959043,18.6686099 C118.342188,18.6227415 118.721152,18.546723 119.09244,18.4412556 L119.09244,19.3224215 Z M116.71311,10.1313901 C112.490335,10.1313901 110.449952,11.7538117 110.282488,14.7982063 L114.447656,14.7982063 C114.505263,14.0017937 114.958086,13.403139 116.715789,13.403139 C118.273876,13.403139 119.010718,13.9156951 119.010718,14.6838565 C119.010718,15.3672646 118.586029,15.6255605 117.537033,15.7372197 L114.813397,16.0224215 C111.129187,16.426009 109.454545,17.9569507 109.454545,20.7457399 C109.454545,23.335426 111.042105,25.3278027 114.411483,25.3278027 C116.707751,25.3278027 118.06756,24.5878924 119.257225,23.1080717 L119.257225,24.9013453 L123.169187,24.9013453 L123.169187,15.4843049 C123.169187,11.5278027 120.872919,10.1340807 116.707751,10.1340807 L116.71311,10.1313901 Z M133.064306,10.1340807 C136.776651,10.1340807 138.675024,11.7847534 138.675024,16.5080717 L138.675024,24.9013453 L134.395981,24.9013453 L134.395981,16.7044843 C134.395981,14.7982063 133.573397,13.9439462 131.7889,13.9439462 C130.173206,13.9439462 129.209952,14.7982063 129.209952,16.7044843 L129.209952,24.9013453 L124.936268,24.9013453 L124.936268,10.5578475 L128.955407,10.5578475 L128.955407,12.2085202 C129.551579,11.0986547 130.769378,10.1313901 133.065646,10.1313901 L133.064306,10.1340807 Z M147.703349,15.9080717 C151.331292,16.3923767 153.145263,17.5304933 153.145263,20.5183857 C153.145263,23.5345291 151.019139,25.3278027 146.513684,25.3278027 C141.610335,25.3278027 139.882105,23.3636771 139.797703,20.4847534 L144.019139,20.4847534 C144.133014,21.5367713 144.869856,22.0493274 146.513684,22.0493274 C148.185646,22.0493274 148.86622,21.6457399 148.86622,20.8547085 C148.86622,20.1147982 148.299522,19.7784753 146.825837,19.573991 L145.322679,19.3748879 C142.177033,18.9470852 140.365742,17.7242152 140.365742,14.8775785 C140.365742,12.1466368 142.375311,10.126009 146.599426,10.126009 C150.510048,10.126009 152.608038,11.690583 152.806316,14.7928251 L148.639809,14.7928251 C148.505837,13.9681614 148.044976,13.4556054 146.599426,13.4556054 C145.183349,13.4556054 144.644785,13.938565 144.644785,14.5654709 C144.644785,15.1923767 144.985072,15.5327354 146.202871,15.7035874 L147.704689,15.9026906 L147.703349,15.9080717 Z M163.858947,19.3183857 C163.858947,20.8829596 162.385263,22.0493274 160.118469,22.0493274 C159.013206,22.0493274 158.360766,21.5367713 158.360766,20.5695067 C158.360766,19.8295964 158.813589,19.2040359 160.259139,19.0049327 L162.72555,18.6632287 C163.108757,18.6177544 163.487752,18.5417297 163.858947,18.4358744 L163.858947,19.3183857 Z M161.478278,10.126009 C157.255502,10.126009 155.21512,11.7484305 155.047656,14.7928251 L159.214163,14.7928251 C159.270431,13.9964126 159.723254,13.3991031 161.480957,13.3991031 C163.039043,13.3991031 163.775885,13.9103139 163.775885,14.6784753 C163.775885,15.3618834 163.351196,15.6201794 162.302201,15.7318386 L159.582584,16.0170404 C155.898373,16.4206278 154.223732,17.9515695 154.223732,20.7403587 C154.223732,23.3300448 155.809952,25.3224215 159.18067,25.3224215 C161.475598,25.3224215 162.835407,24.5825112 164.026411,23.1026906 L164.026411,24.9013453 L167.937033,24.9013453 L167.937033,15.4843049 C167.937033,11.5278027 165.640766,10.1340807 161.475598,10.1340807 L161.478278,10.126009 Z" id="path22"></path>
                    </g>
                </g>
            </g>
        </g>
    </g>
</svg>