<?xml version="1.0" encoding="UTF-8"?>
<svg width="514px" height="404px" viewBox="0 0 514 404" version="1.1" xmlns="http://www.w3.org/2000/svg" xmlns:xlink="http://www.w3.org/1999/xlink">
    <!-- Generator: Sketch 52.5 (67469) - http://www.bohemiancoding.com/sketch -->
    <title>Group 3</title>
    <desc>Created with Sketch.</desc>
    <defs>
        <polygon id="path-1" points="0 0 514 0 514 404 0 404"></polygon>
    </defs>
    <g id="v.02_1" stroke="none" stroke-width="1" fill="none" fill-rule="evenodd" opacity="0.15">
        <g id="HiveConf_Landing_Page" transform="translate(-108.000000, -3759.000000)">
            <g id="HiveConf'18" transform="translate(0.000000, 3325.000000)">
                <g id="Group-3" transform="translate(108.000000, 434.000000)">
                    <mask id="mask-2" fill="white">
                        <use xlink:href="#path-1"></use>
                    </mask>
                    <g id="Clip-2"></g>
                    <path d="M410.581947,292.791853 L337.264325,292.791853 L359.201338,254.893664 C362.700897,248.846546 362.700897,241.332854 359.200711,235.286363 L278.568451,95.9849281 C275.068891,89.937185 268.544618,86.1806519 261.544245,86.1806519 L220.19374,86.1806519 L255.591418,25.0268698 L410.581947,25.0268698 L488.076585,158.909361 L410.581947,292.791853 Z M308.291811,292.791853 L255.591418,292.791853 L178.09678,158.909361 L205.708111,111.207522 L258.407249,111.207522 L335.902514,245.090013 L308.291811,292.791853 Z M258.407249,378.97313 L103.417347,378.97313 L25.9227096,245.090013 L103.417347,111.207522 L176.734969,111.207522 L154.798584,149.105085 C151.298397,155.152202 151.298397,162.665269 154.798584,168.713012 L235.430216,308.015698 C238.931031,314.062189 245.454676,317.818722 252.45505,317.818722 L293.804927,317.818722 L258.407249,378.97313 Z M511.374781,149.105711 L430.743149,9.80302491 C427.242962,3.75653316 420.719316,0 413.718943,0 L252.45505,0 C245.454676,0 238.931031,3.75653316 235.430216,9.80365058 L191.221226,86.1806519 L100.280352,86.1806519 C93.2799781,86.1806519 86.7569597,89.937185 83.2567729,95.9843025 L2.6251401,235.286363 C-0.875046698,241.332854 -0.875046698,248.846546 2.6251401,254.894289 L83.2561456,394.195724 C86.7569597,400.242841 93.2799781,404 100.280352,404 L261.544245,404 C268.544618,404 275.068891,400.242841 278.568451,394.195724 L322.777441,317.818722 L413.718943,317.818722 C420.719316,317.818722 427.242962,314.062189 430.743149,308.015072 L511.375409,168.713012 C514.874968,162.665269 514.874968,155.152202 511.374781,149.105711 Z" id="Fill-1" fill="#FFFFFF" mask="url(#mask-2)"></path>
                </g>
            </g>
        </g>
    </g>
</svg>