<?xml version="1.0" encoding="UTF-8"?>
<svg width="167px" height="34px" viewBox="0 0 167 34" version="1.1" xmlns="http://www.w3.org/2000/svg" xmlns:xlink="http://www.w3.org/1999/xlink">
    <!-- Generator: Sketch 52.5 (67469) - http://www.bohemiancoding.com/sketch -->
    <title>Logo_ProSieben_White</title>
    <desc>Created with Sketch.</desc>
    <g id="v.02_1" stroke="none" stroke-width="1" fill="none" fill-rule="evenodd">
        <g id="HiveConf_Landing_Page" transform="translate(-558.000000, -4974.000000)" fill="#FFFFFF">
            <g id="HiveConf'18" transform="translate(-109.000000, 3325.000000)">
                <g id="Companies" transform="translate(275.000000, 1527.000000)">
                    <g id="Logo_ProSieben_White" transform="translate(392.000000, 122.000000)">
                        <path d="M36.0879971,0.123188406 C36.0879971,0.246376812 36.0879971,0.358478261 36.0879971,0.47673913 C36.0879971,11.4101208 36.0908249,22.3430918 36.0964804,33.2756522 C36.0964804,33.607029 36.0116473,33.6735507 35.7014006,33.671087 C33.3422327,33.6579469 30.9822569,33.6579469 28.6214731,33.671087 C28.3512192,33.671087 28.2991074,33.5934783 28.3003193,33.3335507 C28.3075907,25.9126812 28.3096105,18.4918116 28.3063788,11.070942 L28.3063788,10.6262319 C27.9428084,10.9884058 27.6422569,11.2889855 27.3368578,11.5944928 C25.5004233,13.4735266 23.6595452,15.3550242 21.8142235,17.2389855 C17.7430431,21.3978261 13.6726705,25.5574879 9.60310595,29.717971 C8.35565554,30.9925604 7.11305273,32.2724879 5.87529753,33.5577536 C5.67533382,33.765942 5.5711103,33.8041304 5.34690856,33.5700725 C3.57874456,31.6976087 1.78997823,29.8399275 0,27.9723913 L19.5576633,8.34847826 C19.4170827,8.24623188 19.2995283,8.28688406 19.1940929,8.28688406 C13.8108273,8.28688406 8.42796565,8.28688406 3.04550798,8.28688406 C2.75949927,8.28688406 2.68193759,8.21913043 2.68193759,7.91731884 C2.6940566,5.43384058 2.6879971,2.94913043 2.689209,0.46442029 C2.689209,0.347391304 2.70375181,0.231594203 2.71223512,0.114565217 L36.0879971,0.123188406 Z" id="Path"></path>
                        <path d="M166.952736,16.8952899 C166.258316,16.8952899 165.562685,16.882971 164.867054,16.9026812 C164.601647,16.9100725 164.518026,16.8558696 164.519238,16.5614493 C164.531357,13.5100725 164.526509,10.4586957 164.526509,7.40731884 C164.526509,7.00202899 164.526509,7.0007971 164.177482,7.18557971 L161.935464,8.37681159 C161.935464,7.58717391 161.935464,6.84311594 161.935464,6.09905797 C161.935464,5.97586957 162.01545,5.94014493 162.101495,5.89333333 C162.998302,5.40879227 163.893493,4.92301932 164.787068,4.43601449 C164.890881,4.38436702 165.006246,4.36142357 165.121553,4.36949275 L166.953948,4.36949275 L166.952736,16.8952899 Z" id="Path"></path>
                        <path d="M20.6338316,33.692029 C18.7460796,33.6750848 17.0106179,32.6357181 16.0811779,30.9654483 C15.151738,29.2951785 15.169524,27.2477593 16.1278361,25.5944338 C17.0861482,23.9411082 18.839396,22.9330557 20.727148,22.95 C23.748418,22.9894203 25.971045,25.5480435 25.9237808,28.4207971 C25.8734603,31.3518991 23.5178178,33.6992067 20.6338316,33.692029 Z" id="Path"></path>
                        <path d="M141.193774,6.03623188 C140.660537,6.62384058 140.150327,7.17942029 139.649811,7.74362319 C139.528621,7.87543478 139.461967,7.84463768 139.351684,7.73376812 C138.581166,6.91995248 137.489292,6.50499396 136.382525,6.60536232 C136.100395,6.62227016 135.82344,6.6898353 135.564492,6.80492754 C135.190413,6.94984857 134.940185,7.3109139 134.93188,7.71775362 C134.917337,8.15507246 135.135479,8.46797101 135.523287,8.65398551 C136.129238,8.9484058 136.792148,9.08637681 137.442939,9.24652174 C138.267032,9.44978261 139.085065,9.66413043 139.83402,10.0854348 C141.273759,10.8947826 141.670051,12.2018116 141.51008,13.6837681 C141.295573,15.6744928 139.934608,16.66 138.248853,16.9593478 C136.656415,17.2426812 135.111241,17.1330435 133.652112,16.3643478 C133.032696,16.0407583 132.489145,15.585302 132.058462,15.0289855 C131.948179,14.886087 131.93,14.8060145 132.083911,14.6742029 C132.568672,14.2635749 133.040506,13.837343 133.499412,13.3955072 C133.64484,13.2575362 133.717554,13.2612319 133.862983,13.409058 C135.037315,14.6224638 136.475842,14.875 138.045254,14.5103623 C138.824507,14.3292754 139.183229,13.6271014 138.955392,12.8928986 C138.843897,12.5344203 138.570007,12.3434783 138.260972,12.1956522 C137.67926,11.9172464 137.056343,11.7718841 136.435849,11.6203623 C135.811787,11.4838485 135.198193,11.3018814 134.599819,11.0758696 C132.979507,10.4205072 132.285087,9.29210145 132.418396,7.52804348 C132.529891,6.07811594 133.509107,4.87826087 135.043374,4.43971014 C137.429608,3.76094203 139.516502,4.32144928 141.193774,6.03623188 Z" id="Path"></path>
                        <path d="M83.3545718,17.1010145 C81.6154935,17.1010145 80.2399855,16.7080435 79.0595936,15.7200725 C78.8244736,15.5085403 78.6071884,15.2773707 78.4100145,15.0289855 C78.2960958,14.8947101 78.305791,14.8072464 78.4415239,14.6877536 C78.9262845,14.2615217 79.411045,13.8254348 79.877627,13.3844203 C80.0218433,13.248913 80.0909216,13.2735507 80.2193832,13.4078261 C81.3888679,14.631087 82.8237591,14.8713043 84.3955951,14.5165217 C84.9603411,14.3933333 85.2984615,13.9978986 85.34209,13.5310145 C85.4075327,12.8263768 85.2354427,12.5023913 84.6149492,12.1993478 C83.8635704,11.8396377 83.0515965,11.7028986 82.2614369,11.4947101 C81.4712772,11.2865217 80.7295936,11.0623188 80.0557765,10.6052899 C79.2207765,10.0386232 78.8438752,9.22311594 78.7626778,8.23268116 C78.5966473,6.0965942 79.9357983,4.73413043 81.817881,4.32637681 C83.9508273,3.86442029 85.8547242,4.36826087 87.4423149,5.94630435 C87.576836,6.07934783 87.6204644,6.15449275 87.4556459,6.30847826 C86.9611901,6.77413043 86.4861248,7.2557971 86.0013643,7.74115942 C85.8801742,7.86434783 85.8171553,7.84833333 85.7044485,7.735 C84.923839,6.9167435 83.8201972,6.50262342 82.7037808,6.60905797 C82.40873,6.6229296 82.1197827,6.69929464 81.8554499,6.83326087 C81.5028312,7.00137362 81.2809331,7.36506608 81.289492,7.76086957 C81.289492,8.18710145 81.5015747,8.46427536 81.8566618,8.64536232 C82.5462337,8.99768116 83.303672,9.1257971 84.0380842,9.31550725 C84.7506821,9.49905797 85.4535849,9.70231884 86.1080116,10.0546377 C87.4035341,10.7494203 87.9404064,11.8655072 87.8846589,13.3215942 C87.7961901,15.5931884 86.3964441,16.6168841 84.6525181,16.9642754 C84.2253946,17.0534533 83.7906089,17.0992582 83.3545718,17.1010145 Z" id="Path"></path>
                        <path d="M52.5286502,10.6237681 C52.5286502,8.63304348 52.5347097,6.64231884 52.5225907,4.6515942 C52.5225907,4.40521739 52.5904572,4.35717391 52.8195065,4.3584058 C54.4410305,4.36826087 56.0625544,4.3584058 57.6840784,4.3584058 C58.4742268,4.34537017 59.2556713,4.52757135 59.9612409,4.88934783 C61.1731422,5.53608696 61.7633382,6.60166667 61.8724093,7.95797101 C61.9399896,8.68530324 61.842132,9.41869158 61.5864006,10.1014493 C61.0798258,11.4134058 60.0618287,12.0564493 58.7638824,12.3286957 C58.2689158,12.426639 57.7653355,12.4724609 57.2611248,12.4654348 C56.5158055,12.4654348 55.7704862,12.4777536 55.0251669,12.4851449 C54.9488171,13.2501449 55.0057765,14.0188406 54.9936575,14.7850725 C54.9839623,15.4010145 54.9766909,16.0058696 54.9936575,16.6144203 C55.0021408,16.8607971 54.9245791,16.9137681 54.6955298,16.9076087 C54.0750363,16.8903623 53.4541388,16.8903623 52.8328374,16.9076087 C52.5904572,16.915 52.5177431,16.8534058 52.518955,16.595942 C52.5347097,14.6052174 52.5286502,12.6144928 52.5286502,10.6237681 Z M54.9912337,8.41253623 C54.9912337,8.87202899 54.9985051,9.33275362 54.9912337,9.79224638 C54.9912337,9.96471014 55.0251669,10.03 55.2117997,10.0287681 C56.0843687,10.0176812 56.9581495,10.0287681 57.8307184,10.0213768 C58.7505515,10.0078261 59.3383237,9.42021739 59.358926,8.51478261 C59.383164,7.49724638 58.8462917,6.84804348 57.8937373,6.81355072 C56.9908708,6.78275362 56.0855806,6.8073913 55.1815022,6.79876812 C55.0227431,6.79876812 54.9888099,6.8542029 54.9924456,7.00202899 C54.9960813,7.47137681 54.9912337,7.94195652 54.9912337,8.41253623 Z" id="Shape" fill-rule="nonzero"></path>
                        <path d="M106.333433,16.4037681 C106.306771,16.9026812 106.306771,16.9026812 105.826858,16.9026812 C105.289985,16.9026812 104.751901,16.8866667 104.216241,16.9026812 C103.962954,16.9125362 103.90963,16.8324638 103.910842,16.586087 C103.919325,13.4398551 103.910842,10.2936232 103.910842,7.1473913 C103.910842,6.18405797 103.910842,5.22072464 103.910842,4.2573913 C103.910842,4.04797101 103.938716,3.95927536 104.175036,3.96543478 C104.806437,3.98391304 105.439049,3.98268116 106.07045,3.96543478 C106.289804,3.95927536 106.324949,4.04057971 106.323737,4.23768116 C106.315254,5.43630435 106.323737,6.63492754 106.323737,7.83478261 L106.323737,8.07130435 C106.766081,7.73623188 107.184187,7.47384058 107.684702,7.36666667 C108.942883,7.09873603 110.236408,7.62409482 110.966531,8.69956522 C111.594296,9.64934783 111.801531,10.7173913 111.846372,11.826087 C111.891212,12.9113768 111.802743,13.9769565 111.372518,14.9907971 C110.572663,16.8817391 108.463955,17.6676812 106.776988,16.6969565 C106.633984,16.6144203 106.499463,16.5146377 106.333433,16.4037681 Z M106.320102,12.1956522 L106.320102,13.7675362 C106.303745,13.8730958 106.327581,13.9810238 106.386756,14.0693478 C106.859398,14.6446377 107.477467,14.854058 108.18643,14.7641304 C108.79238,14.6865217 109.092932,14.2381159 109.246843,13.6788406 C109.511625,12.7294555 109.496032,11.7218985 109.202003,10.7814493 C108.802075,9.48550725 107.365972,9.20217391 106.469165,10.2246377 C106.366592,10.3316985 106.311817,10.4769078 106.317678,10.6262319 C106.326161,11.1485507 106.321313,11.6721014 106.320102,12.1956522 Z" id="Shape" fill-rule="nonzero"></path>
                        <path d="M57.8210232,33.9815217 C56.5145936,30.6492754 55.1548403,27.4254348 53.8532583,24.160942 L53.8532583,24.5305072 C53.8532583,27.4648551 53.8532583,30.3992029 53.8532583,33.3335507 C53.8532583,33.5799275 53.8253846,33.7092754 53.5393759,33.6735507 C53.2097388,33.6328986 52.7625472,33.8127536 52.5698549,33.6033333 C52.4050363,33.4197826 52.5201669,32.9726087 52.5201669,32.6424638 C52.5201669,28.9164251 52.5177431,25.1899758 52.5128955,21.4631159 C52.5128955,21.2007246 52.5674311,21.0849275 52.8352612,21.1342029 C52.8982086,21.1385189 52.9613705,21.1385189 53.0243179,21.1342029 C53.3709216,21.1489855 53.7938752,20.9999275 54.041103,21.1908696 C54.2689405,21.3657971 54.311357,21.792029 54.4325472,22.1073913 C55.4707426,24.787971 56.5077262,27.4697826 57.5434978,30.1528261 C57.6452975,30.418913 57.7337663,30.6911594 57.8549565,31.0336232 C58.0537083,30.4915942 58.2185269,30.0123913 58.4039478,29.5393478 C59.4655733,26.8094928 60.5280068,24.0792271 61.5912482,21.3485507 C61.622291,21.1999212 61.7623172,21.1019644 61.9099782,21.1255797 C62.2468868,21.1403623 62.5850073,21.1391304 62.9207039,21.1255797 C63.0903701,21.1194203 63.1570247,21.1563768 63.1558128,21.3485507 C63.1509652,25.3727053 63.1509652,29.3993237 63.1558128,33.4284058 C63.1558128,33.6057971 63.11582,33.6747826 62.9303991,33.6661594 C62.6783156,33.6458339 62.4250443,33.6458339 62.1729608,33.6661594 C61.9111901,33.6932609 61.8687736,33.5848551 61.8699855,33.3458696 C61.8772569,30.3679952 61.8772569,27.390942 61.8699855,24.4147101 L61.8699855,24.0623913 C60.5611321,27.3663043 59.1589623,30.6221739 57.8210232,33.9815217 Z" id="Path"></path>
                        <path d="M148.153723,16.2928986 C146.649753,17.6110145 144.442881,17.1318116 143.480631,16.0785507 C142.617758,15.1336957 142.42143,14.0102174 142.753491,12.8042029 C143.069797,11.6610145 143.937518,11.0795652 145.011263,10.8097826 C145.994115,10.5634058 146.987874,10.551087 147.952547,10.932971 C148.112518,10.997029 148.144028,10.9797826 148.154935,10.8097826 C148.208258,9.88586957 147.725922,9.35246377 146.821843,9.33891304 C145.990479,9.32536232 145.190624,9.46210145 144.458636,9.87847826 C144.290181,9.9757971 144.253824,9.90681159 144.185958,9.77869565 C143.943578,9.32782609 143.701197,8.88311594 143.458817,8.43347826 C143.413977,8.35094203 143.329144,8.27086957 143.485479,8.18710145 C145.11791,7.26565217 146.83275,7.01434783 148.605762,7.63768116 C149.96188,8.11565217 150.553287,9.19478261 150.572678,10.5744928 C150.602975,12.5972464 150.572678,14.6212319 150.584797,16.6452174 C150.584797,16.8472464 150.543592,16.9211594 150.327874,16.915 C149.721923,16.8989855 149.106277,16.894058 148.495479,16.915 C148.222801,16.9248551 148.104035,16.8595652 148.157358,16.5700725 C148.163593,16.4777352 148.162377,16.385034 148.153723,16.2928986 Z M148.153723,13.588913 C148.145829,13.5143941 148.145829,13.4392291 148.153723,13.3647101 C148.233708,12.9951449 148.032533,12.8510145 147.730769,12.7487681 C147.171104,12.5620915 146.575517,12.5147743 145.994115,12.6107971 C145.42345,12.668494 144.997264,13.1704795 145.024594,13.7527536 C145.024594,14.4007246 145.388164,14.842971 145.994115,14.9784783 C146.31436,15.0451884 146.644948,15.041408 146.963636,14.9673913 C147.759855,14.7973913 148.152511,14.3366667 148.152511,13.588913 L148.153723,13.588913 Z" id="Shape" fill-rule="nonzero"></path>
                        <path d="M69.0783745,12.1956522 C69.0953411,10.8405797 69.4140711,9.58898551 70.3496589,8.58130435 C71.1792132,7.67300658 72.3738237,7.2032817 73.5887594,7.30767911 C74.8036952,7.41207653 75.90378,8.07898078 76.5715602,9.11594203 C77.8004282,10.9637681 77.7107475,13.866087 76.3728084,15.5734783 C75.5201859,16.6660737 74.1750782,17.2366957 72.8113155,17.0843359 C71.4475528,16.931976 70.2564787,16.0780113 69.6576633,14.8232609 C69.2589478,14.0065217 69.0868578,13.2144203 69.0783745,12.1956522 Z M71.5470174,12.1857971 C71.5252032,12.8251449 71.6112482,13.4176812 71.9105878,13.9646377 C72.4692743,14.9772464 73.9635486,14.992029 74.5173875,13.9917391 C75.1560595,12.8386957 75.1415167,11.6511594 74.5743469,10.475942 C74.2956096,9.90188406 73.7841872,9.65797101 73.1406676,9.69 C72.6029137,9.70233097 72.117194,10.019592 71.8827141,10.5116667 C71.6181299,11.0264014 71.5033635,11.6071317 71.551865,12.1857971 L71.5470174,12.1857971 Z" id="Shape" fill-rule="nonzero"></path>
                        <path d="M125.189405,8.09717391 C126.443723,7.15847826 127.734398,7.0623913 129.067489,7.70297101 C129.963084,8.13413043 130.375131,8.95826087 130.602968,9.88956522 C130.738719,10.4717985 130.803035,11.0688759 130.794448,11.6671739 C130.794448,13.3055797 130.787177,14.9439855 130.80172,16.5823913 C130.80172,16.8583333 130.72537,16.9174638 130.469659,16.9088406 C129.880675,16.8878986 129.289267,16.8817391 128.700283,16.9088406 C128.402155,16.9223913 128.364586,16.8139855 128.365798,16.5491304 C128.377917,14.9476812 128.374282,13.3376087 128.365798,11.7312319 C128.376701,11.335937 128.322215,10.9415877 128.204615,10.5646377 C127.979202,9.89818841 127.558672,9.62717391 126.7673,9.62717391 C126.028041,9.62717391 125.576001,9.92528986 125.356647,10.5646377 C125.234801,10.9630938 125.1795,11.3794871 125.193041,11.7965217 C125.185769,13.3922222 125.185769,14.9875121 125.193041,16.5823913 C125.193041,16.8176812 125.156684,16.9162319 124.892489,16.9063768 C124.261089,16.8842029 123.628476,16.894058 122.995864,16.9063768 C122.823774,16.9063768 122.761967,16.8694203 122.761967,16.6784783 C122.767622,13.7022464 122.767622,10.7256039 122.761967,7.74855072 C122.761967,7.53789855 122.832257,7.50217391 123.014042,7.50833333 C123.619993,7.51942029 124.215036,7.52927536 124.814927,7.50833333 C125.10336,7.49601449 125.254848,7.55144928 125.191829,7.87789855 C125.184833,7.95078428 125.184022,8.02414681 125.189405,8.09717391 Z" id="Path"></path>
                        <path d="M99.1977576,12.9828261 C98.3869956,12.9828261 97.5762337,12.993913 96.7654717,12.9828261 C96.4867344,12.9828261 96.4285631,13.0592029 96.4855225,13.3252899 C96.7279028,14.4647826 97.7216618,14.9439855 98.8329753,14.7481159 C99.2100582,14.6942803 99.5599172,14.5179788 99.8303701,14.2455072 C99.9285341,14.142029 99.9879173,14.162971 100.086081,14.2455072 C100.550239,14.6483333 101.01561,15.0486957 101.493099,15.4342754 C101.648222,15.5574638 101.64701,15.6387681 101.513701,15.7816667 C100.819512,16.5254503 99.8814335,16.985133 98.8766038,17.073913 C97.4392888,17.2217391 96.1425544,16.8657246 95.1451597,15.7188406 C94.5125472,14.9907971 94.195029,14.1173913 94.0786865,13.1700725 C93.9150798,11.8544203 94.0556604,10.5831159 94.7040276,9.39311594 C95.8177649,7.35927536 98.35791,6.68297101 100.166067,7.94442029 C101.178004,8.65275362 101.65307,9.70355072 101.894238,10.8836957 C102.007256,11.4713156 102.050385,12.070613 102.0227,12.6686957 C102.014216,12.8928986 101.957257,13.0013043 101.693062,12.993913 C100.861698,12.9680435 100.029122,12.9828261 99.1977576,12.9828261 Z M98.0428157,11.1522464 C98.5166691,11.1522464 98.9917344,11.1522464 99.4655878,11.1522464 C99.5589042,11.1522464 99.6946372,11.1953623 99.6631277,11.0019565 C99.5213353,10.1507246 99.0402104,9.48181159 98.0682656,9.44731884 C97.2562917,9.41898551 96.6042888,10.0731159 96.5121843,10.9502174 C96.491582,11.1522464 96.5691437,11.1584058 96.7157837,11.1571739 C97.1581277,11.1485507 97.6004717,11.1522464 98.0428157,11.1522464 Z" id="Shape" fill-rule="nonzero"></path>
                        <path d="M118.262177,12.9828261 C117.440508,12.9828261 116.620051,12.9828261 115.798382,12.9828261 C115.577816,12.9828261 115.490559,12.9963768 115.540247,13.2735507 C115.731727,14.3489855 116.732758,14.9981884 117.867097,14.7518116 C118.252932,14.6875971 118.611164,14.5078868 118.896001,14.2356522 C118.982046,14.1469565 119.032946,14.1457246 119.122627,14.2233333 C119.607388,14.6458696 120.099419,15.0684058 120.597511,15.4786232 C120.744151,15.6018116 120.658106,15.6658696 120.57812,15.7545652 C120.004798,16.3878711 119.246437,16.8171374 118.414877,16.979058 C117.029673,17.2734783 115.737787,17.064058 114.620414,16.1315217 C113.772083,15.4293478 113.345493,14.470942 113.174615,13.4053623 C112.949202,12.0047101 113.070392,10.6397826 113.774507,9.3734058 C114.810682,7.51449275 117.059971,6.75811594 118.839042,7.7042029 C120.050943,8.34847826 120.625385,9.45471014 120.924724,10.7506522 C121.076212,11.4023188 121.065305,12.0638406 121.062881,12.7216667 C121.062881,12.9384783 120.988955,12.9828261 120.790203,12.9803623 C119.947932,12.9766667 119.10566,12.9828261 118.262177,12.9828261 Z M117.136321,11.1522464 C117.600479,11.1522464 118.063425,11.1522464 118.526372,11.1522464 C118.680283,11.1522464 118.740878,11.1066667 118.711792,10.9514493 C118.609993,10.4057246 118.385791,9.93884058 117.892547,9.64811594 C117.414558,9.37411878 116.830442,9.37402282 116.352366,9.6478629 C115.874289,9.92170299 115.571807,10.4296388 115.55479,10.9871739 C115.55479,11.1485507 115.628716,11.1547101 115.747482,11.1534783 C116.210428,11.1497826 116.673374,11.1522464 117.136321,11.1522464 Z" id="Shape" fill-rule="nonzero"></path>
                        <path d="M153.5891,12.3693478 C153.5891,11.6080435 153.581829,10.847971 153.5891,10.0878986 C153.5891,9.87355072 153.527293,9.81195652 153.32127,9.82181159 C152.973454,9.83905797 152.624427,9.81318841 152.277823,9.83289855 C152.059681,9.84521739 152.019688,9.76144928 152.023324,9.56065217 C152.035443,8.96072464 152.034231,8.3607971 152.023324,7.76086957 C152.023324,7.56992754 152.062104,7.49724638 152.265704,7.50710145 C152.612308,7.52557971 152.961335,7.49971014 153.307939,7.51695652 C153.526081,7.52804348 153.59516,7.46644928 153.591524,7.23608696 C153.576981,6.37376812 153.591524,5.5015942 153.581829,4.63434783 C153.581829,4.43971014 153.604855,4.35101449 153.83148,4.35717391 C154.472576,4.37442029 155.116096,4.37442029 155.758403,4.35717391 C155.97897,4.35101449 156.014115,4.43231884 156.011691,4.62942029 C156.003208,5.50775362 156.011691,6.38608696 156.004419,7.26442029 C156.004419,7.45536232 156.039565,7.52188406 156.2468,7.51695652 C156.826089,7.50094203 157.405377,7.51695652 157.984666,7.50710145 C158.176147,7.50710145 158.237954,7.55021739 158.233106,7.75347826 C158.219371,8.36285024 158.219371,8.97304348 158.233106,9.58405797 C158.233106,9.79101449 158.171299,9.83043478 157.983454,9.83043478 C157.413861,9.81811594 156.845479,9.83043478 156.275885,9.82304348 C156.089253,9.82304348 156.001996,9.84398551 156.004419,10.0694203 C156.018962,11.3333333 156.004419,12.5972464 156.01775,13.8599275 C156.01775,14.6126087 156.254071,14.8454348 156.987271,14.822029 C157.384775,14.810942 157.781067,14.7542754 158.177358,14.6988406 C158.340965,14.6778986 158.419739,14.6988406 158.419739,14.8971739 C158.406408,15.4539855 158.411255,16.0058696 158.419739,16.5676087 C158.419739,16.7092754 158.379746,16.7905797 158.240377,16.8139855 C157.536263,16.9297826 156.835784,17.0603623 156.118338,17.0874638 C154.664057,17.1318116 153.694536,16.0280435 153.62061,14.6360145 C153.576981,13.8784058 153.612126,13.1158696 153.612126,12.357029 L153.5891,12.3693478 Z" id="Path"></path>
                        <path d="M110.754448,27.2726812 C110.754448,25.2597826 110.754448,23.2456522 110.754448,21.2364493 C110.754448,20.9900725 110.80656,20.9161594 111.06106,20.9173913 C113.389526,20.9288889 115.717588,20.9288889 118.045247,20.9173913 C118.273084,20.9173913 118.367612,20.9580435 118.343374,21.2105797 C118.315501,21.5173188 118.44275,21.9336957 118.288839,22.1086232 C118.111901,22.3094203 117.695007,22.1702174 117.384761,22.1714493 C115.74021,22.1714493 114.096872,22.1800725 112.453534,22.1714493 C112.203882,22.1714493 112.13844,22.2367391 112.142075,22.4892754 C112.155406,23.6460145 112.152983,24.8027536 112.142075,25.9594928 C112.142075,26.1701449 112.196611,26.2255797 112.402634,26.2243478 C113.424267,26.2132609 114.447112,26.2243478 115.468745,26.2144928 C115.684463,26.2144928 115.769296,26.2576087 115.749906,26.4916667 C115.730515,26.7479307 115.730515,27.0053301 115.749906,27.2615942 C115.763237,27.4623913 115.699006,27.507971 115.507525,27.507971 C114.485893,27.4981159 113.46426,27.507971 112.442627,27.4981159 C112.213578,27.4981159 112.142075,27.5424638 112.143287,27.7913043 C112.15783,29.2268599 112.15783,30.6620048 112.143287,32.0967391 C112.143287,32.3431159 112.20873,32.3923913 112.440203,32.3911594 C114.38894,32.3813043 116.337678,32.3911594 118.286415,32.3800725 C118.528795,32.3800725 118.630595,32.4256522 118.602721,32.6917391 C118.580834,32.9376137 118.580834,33.184995 118.602721,33.4308696 C118.618476,33.6415217 118.536067,33.6772464 118.351858,33.6772464 C115.907857,33.6723188 113.463452,33.6723188 111.018643,33.6772464 C110.776263,33.6772464 110.756872,33.586087 110.758084,33.3828261 C110.756872,31.3415942 110.754448,29.3077536 110.754448,27.2726812 Z" id="Path"></path>
                        <path d="M104.148374,33.8669565 C102.700079,33.8385828 101.309852,33.2830261 100.230298,32.3012319 C100.050936,32.141087 100.056996,32.0388406 100.218179,31.8774638 C100.419523,31.6742183 100.608908,31.4590868 100.785348,31.2331884 C100.906538,31.0792029 100.992583,31.0828986 101.135588,31.215942 C101.777896,31.8171014 102.503824,32.2753623 103.366698,32.4724638 C104.146003,32.6703452 104.966633,32.6160838 105.714151,32.3172464 C106.509158,31.9871014 106.946655,31.3711594 107.002402,30.503913 C107.05209,29.7401449 106.73336,29.1488406 106.117714,28.7041304 C105.424507,28.2113768 104.636771,27.9194203 103.851459,27.6225362 C103.098252,27.3601149 102.377272,27.0104213 101.702758,26.5803623 C100.67143,25.8880435 100.298164,24.884058 100.396328,23.682971 C100.494492,22.4818841 101.081052,21.5887681 102.182671,21.1452899 C104.047787,20.3876812 105.851096,20.5736957 107.558665,21.6577536 C107.691974,21.7427536 107.8168,21.8413043 107.946473,21.9324638 C108.076147,22.0236232 108.120987,22.0876812 107.993737,22.2281159 C107.778638,22.4630704 107.576352,22.7098163 107.387787,22.9672464 C107.266597,23.1347826 107.178128,23.1458696 107.016945,23.0128261 C106.461608,22.5319108 105.793836,22.204398 105.077903,22.0618116 C104.332583,21.9226087 103.593324,21.9312319 102.879514,22.2219565 C102.291056,22.4469944 101.865569,22.9742673 101.763545,23.6048888 C101.661522,24.2355103 101.898487,24.8735197 102.385058,25.2782609 C102.991009,25.7944203 103.725421,26.062971 104.45135,26.3413768 C105.307726,26.653606 106.137097,27.0376327 106.9309,27.4894928 C108.971742,28.6918116 108.828737,32.1595652 106.638832,33.2916667 C105.880181,33.6907971 105.071843,33.8534058 104.148374,33.8669565 Z" id="Path"></path>
                        <path d="M80.5987083,25.2536232 C80.5987083,23.97 80.6059797,22.7085507 80.5987083,21.4471014 C80.5987083,21.2007246 80.6605152,21.1095652 80.908955,21.1366667 C81.2398041,21.1723913 81.6845718,20.995 81.8724165,21.2081159 C82.0372351,21.3928986 81.9233164,21.8376087 81.9233164,22.1677536 C81.9233164,25.8921498 81.9257402,29.6161353 81.9305878,33.3397101 C81.9305878,33.5984058 81.8845356,33.7031159 81.6106459,33.6735507 C81.3591244,33.6495267 81.1059409,33.6495267 80.8544194,33.6735507 C80.6338534,33.692029 80.5890131,33.6021014 80.6011321,33.4025362 C80.6156749,33.1364493 80.6011321,32.8691304 80.6011321,32.5402174 C80.3999565,32.7213043 80.2375617,32.8752899 80.0678955,33.0194203 C78.9093179,34.0123188 77.2526488,34.1539855 76.0989187,33.3347826 C75.2857329,32.7594928 74.8930769,31.9057971 74.7015965,30.951087 C74.3877141,29.3841304 74.4095283,27.8282609 74.9888171,26.3241304 C75.3984398,25.2634783 76.0904354,24.4442754 77.2308345,24.1683333 C78.4597025,23.8714493 79.533447,24.2077536 80.4254064,25.1242754 L80.5332656,25.2400725 C80.5332656,25.2400725 80.5478084,25.2413043 80.5987083,25.2536232 Z M80.5987083,29.0133333 C80.5987083,28.4565217 80.5453846,27.8923188 80.6120392,27.3441304 C80.6968723,26.657971 80.3696589,26.2354348 79.8933817,25.8597101 C79.7702336,25.7599808 79.6393221,25.6705807 79.5019376,25.5923913 C78.2427721,24.9148551 76.5715602,24.9887681 76.034688,27.0312319 C75.9236763,27.4536665 75.8530582,27.8860115 75.8238171,28.3222464 C75.7498911,29.3853623 75.7717054,30.4398551 76.2249565,31.429058 C76.611553,32.2741304 77.2599202,32.7225362 78.1942961,32.7077536 C79.1880552,32.6905072 79.9103483,32.1607971 80.5320537,31.4364493 C80.5918832,31.3479505 80.6157639,31.2393778 80.5987083,31.1334058 L80.5987083,29.0133333 Z" id="Shape" fill-rule="nonzero"></path>
                        <path d="M94.4325617,32.4971014 C93.8775109,33.085942 93.3212482,33.4986232 92.6377358,33.6895652 C91.4985486,34.0061594 90.4114731,33.935942 89.4564949,33.1475362 C89.0080914,32.777971 88.7754064,32.2667391 88.6626996,31.6976087 C88.5075762,30.9141304 88.5257547,30.142971 88.9050798,29.4272464 C89.3704499,28.5575362 90.155762,28.1313043 91.076807,27.9551449 C92.1353706,27.734201 93.2351313,27.8485702 94.2277504,28.2828261 C94.3271263,28.3271739 94.4349855,28.4060145 94.4313498,28.2039855 C94.4204427,27.6594928 94.4786139,27.1113043 94.3659071,26.572971 C94.1901814,25.7303623 93.5745356,25.2302174 92.709238,25.1846377 C91.7926185,25.1273735 90.8790751,25.3385759 90.0769884,25.7931884 C89.946103,25.8671014 89.8721771,25.892971 89.8127939,25.7131159 C89.7435571,25.5351058 89.6654913,25.360776 89.578897,25.1907971 C89.4019594,24.7941304 89.3983237,24.7855072 89.7788607,24.6241304 C91.0828665,24.0734783 92.4292888,23.885 93.8108563,24.2286957 C94.9427721,24.5058696 95.6638534,25.4137681 95.7002104,26.6013043 C95.7365675,27.7888406 95.7232366,28.9566667 95.7268723,30.1331159 C95.7268723,31.1937681 95.7147533,32.2531884 95.7365675,33.3126087 C95.7365675,33.6218116 95.6420392,33.6932609 95.3729971,33.6686232 C95.1309376,33.6506985 94.8879158,33.6506985 94.6458563,33.6686232 C94.4810377,33.6772464 94.4240784,33.6267391 94.4313498,33.4555072 C94.4422569,33.1697101 94.4325617,32.883913 94.4325617,32.4971014 Z M94.4325617,30.4213768 C94.4198236,30.186676 94.4198236,29.9514399 94.4325617,29.7167391 C94.4580116,29.4888406 94.3477286,29.3939855 94.1720029,29.3102174 C93.675765,29.0807853 93.141084,28.9495099 92.5965312,28.9234058 C92.1469158,28.8975362 91.690029,28.8704348 91.2476851,28.9936232 C90.0491147,29.3286957 89.7206894,30.163913 89.9145936,31.3342029 C90.057598,32.1755797 90.5569013,32.6523188 91.35918,32.7533333 C92.0510333,32.8508352 92.7549353,32.7061695 93.3551814,32.3431159 C94.0592961,31.9168841 94.6058636,31.3982609 94.4216546,30.4534058 C94.4248238,30.4443884 94.4288842,30.4357209 94.4337736,30.4275362 L94.4325617,30.4213768 Z" id="Shape" fill-rule="nonzero"></path>
                        <path d="M69.7388607,29.4223188 C68.802061,29.4223188 67.8640493,29.4321739 66.9272496,29.4161594 C66.6945646,29.4161594 66.6557837,29.483913 66.677598,29.697029 C66.7255513,30.3691417 66.928573,31.0203233 67.2702177,31.5978261 C67.8761684,32.5685507 68.8808345,32.915942 70.1496952,32.6128986 C70.6501407,32.4905358 71.1225738,32.2709216 71.5409579,31.9661594 C71.7469811,31.8195652 71.859688,31.842971 71.9517925,32.0721014 C71.9770577,32.1186373 72.0058251,32.1631178 72.0378374,32.2051449 C72.4014078,32.7853623 72.4014078,32.7841304 71.7954572,33.1352174 C70.8101814,33.7055797 69.7582511,33.9753623 68.6263353,33.8164493 C67.2278012,33.6205797 66.2897896,32.7939855 65.7977576,31.4857246 C65.1469666,29.7524638 65.1312119,27.9896377 65.8753193,26.2834783 C67.0145065,23.6743478 69.8855007,23.6152174 71.3385704,24.7744203 C72.1578157,25.4285507 72.5565312,26.329058 72.7467997,27.3392029 C72.8701024,27.9358304 72.9060392,28.5476981 72.853447,29.155 C72.8328447,29.3557971 72.767402,29.4334058 72.5480479,29.4297101 C71.613672,29.4136957 70.6756604,29.4223188 69.7388607,29.4223188 Z M69.145029,28.3333333 C69.9036792,28.3333333 70.6611176,28.3333333 71.4197678,28.3333333 C71.5252032,28.3333333 71.662148,28.378913 71.6488171,28.1744203 C71.5821626,27.5141304 71.4573367,26.871087 71.1070972,26.2945652 C70.7334263,25.6893691 70.107429,25.2917082 69.4085069,25.215546 C68.7095847,25.1393838 68.0148875,25.3931275 67.5235051,25.904058 C66.9611829,26.5039855 66.7830334,27.2591304 66.6824456,28.0573913 C66.6557837,28.2692754 66.701836,28.3468841 66.9333091,28.3407246 C67.6701451,28.3222464 68.408193,28.3333333 69.145029,28.3333333 Z" id="Shape" fill-rule="nonzero"></path>
                        <path d="M68.1088534,10.3663043 C67.659238,9.99057971 67.1987155,9.75036232 66.6460885,9.76268116 C65.768672,9.775 65.2681567,10.2468116 65.166357,11.1374638 C65.1274116,11.4986554 65.1096057,11.8618795 65.1130334,12.2252174 C65.1130334,13.6923913 65.1130334,15.1595652 65.1130334,16.6255072 C65.1130334,16.8497101 65.0633454,16.9137681 64.8391437,16.9076087 C64.196836,16.8915942 63.5533164,16.8977536 62.9110087,16.9076087 C62.7534615,16.9076087 62.6940784,16.8768116 62.6940784,16.6994203 C62.6997339,13.7125121 62.6997339,10.7256039 62.6940784,7.73869565 C62.6940784,7.54898551 62.7583091,7.50833333 62.9291872,7.51202899 C63.5351379,7.52065217 64.1519956,7.53297101 64.761582,7.51202899 C65.0548621,7.49971014 65.1578737,7.59086957 65.1093977,7.8815942 C65.1041656,7.96568895 65.1041656,8.05003569 65.1093977,8.13413043 C65.2451306,8.02326087 65.3372351,7.94565217 65.4317634,7.86927536 C66.2994848,7.1707971 67.6507547,7.13876812 68.5184761,7.7892029 C68.6711756,7.90376812 68.7305588,8.00478261 68.6699637,8.2142029 C68.4724238,8.90405797 68.2991219,9.61608696 68.1088534,10.3663043 Z" id="Path"></path>
                        <path d="M92.1044993,12.2375362 C92.1044993,13.6923913 92.1044993,15.1472464 92.1044993,16.6021014 C92.1044993,16.8250725 92.0754136,16.9186957 91.8221263,16.9100725 C91.1907257,16.8878986 90.5593251,16.8928261 89.9279245,16.9100725 C89.7279608,16.9100725 89.6855443,16.8534058 89.6855443,16.6636957 C89.6928157,13.6997826 89.6928157,10.7358696 89.6855443,7.77195652 C89.6855443,7.55391304 89.7534107,7.5107971 89.9509507,7.51449275 C90.5823512,7.52557971 91.2137518,7.52804348 91.8451524,7.51449275 C92.0548113,7.51449275 92.1057112,7.57608696 92.1044993,7.78304348 C92.0972279,9.26253623 92.1044993,10.7494203 92.1044993,12.2375362 Z" id="Path"></path>
                        <path d="M86.1661829,28.9628261 C86.1661829,30.4275362 86.1661829,31.8934783 86.1661829,33.3594203 C86.1661829,33.575 86.1492163,33.6994203 85.8862337,33.6686232 C85.5553846,33.6304348 85.108193,33.8065942 84.9167126,33.5996377 C84.751894,33.4197826 84.8670247,32.9701449 84.8670247,32.64 C84.8670247,29.9544928 84.8670247,27.2689855 84.8597533,24.5847101 C84.8597533,24.3112319 84.9324673,24.2299275 85.1918142,24.257029 C85.4118409,24.2792036 85.6334857,24.2792036 85.8535123,24.257029 C86.0958926,24.2348551 86.1698186,24.3075362 86.1673948,24.5662319 C86.1576996,26.030942 86.1661829,27.4968841 86.1661829,28.9628261 Z" id="Path"></path>
                        <path d="M161.449492,17.0886957 C160.61057,17.0617407 159.94517,16.3609148 159.948453,15.5077407 C159.951735,14.6545666 160.622507,13.9590524 161.461611,13.9387681 C162.300533,13.9657231 162.965933,14.666549 162.96265,15.5197231 C162.959368,16.3728972 162.288596,17.0684114 161.449492,17.0886957 Z" id="Path"></path>
                        <path d="M90.904717,3.90876812 C91.6646209,3.92202477 92.2765686,4.54679096 92.2862845,5.31927536 C92.2765893,6.07565217 91.6124673,6.7457971 90.8865385,6.73347826 C90.1247726,6.70279708 89.5195989,6.07195494 89.5086067,5.29710145 C89.522512,4.52425871 90.1442887,3.90594559 90.904717,3.90876812 Z" id="Path"></path>
                        <path d="M85.5396299,22.5545652 C85.1998886,22.570412 84.8786943,22.3966346 84.7018865,22.1013167 C84.5250787,21.8059988 84.5208123,21.4361668 84.6907587,21.1367157 C84.8607052,20.8372646 85.1778022,20.6558789 85.5178157,20.6636232 C86.041357,20.6574638 86.4291655,21.0331884 86.4606749,21.6171014 C86.4873367,22.1246377 86.0377213,22.5533333 85.5396299,22.5545652 Z" id="Path"></path>
                    </g>
                </g>
            </g>
        </g>
    </g>
</svg>