<?xml version="1.0" encoding="UTF-8"?>
<svg width="113px" height="35px" viewBox="0 0 113 35" version="1.1" xmlns="http://www.w3.org/2000/svg" xmlns:xlink="http://www.w3.org/1999/xlink">
    <!-- Generator: Sketch 52.5 (67469) - http://www.bohemiancoding.com/sketch -->
    <title>Logo_HeyCar_White</title>
    <desc>Created with Sketch.</desc>
    <g id="v.02_1" stroke="none" stroke-width="1" fill="none" fill-rule="evenodd">
        <g id="HiveConf_Landing_Page" transform="translate(-1164.000000, -4974.000000)" fill="#FFFFFF">
            <g id="HiveConf'18" transform="translate(-109.000000, 3325.000000)">
                <g id="Companies" transform="translate(275.000000, 1527.000000)">
                    <g id="Logo_HeyCar_White" transform="translate(998.000000, 122.000000)">
                        <path d="M0,0 L6.08145455,0 L6.08145455,10.8841463 C6.5802625,10.1184249 7.28269589,9.50603748 8.11031818,9.11536585 C9.01974164,8.68776061 10.0156312,8.47453725 11.0209242,8.49219512 C13.0252475,8.49219512 14.539904,9.11821138 15.5648939,10.3702439 C16.5898838,11.6222764 17.1035202,13.4473984 17.105803,15.8456098 L17.105803,26.4309756 L11.0140758,26.4309756 L11.0140758,16.9843902 C11.0140758,14.9162602 10.2367727,13.8827642 8.68216667,13.8839024 C7.84893434,13.8839024 7.2074596,14.1684553 6.75774242,14.737561 C6.30802525,15.3066667 6.08259596,16.1318699 6.08145455,17.2131707 L6.08145455,26.4104878 L0,26.4104878 L0,0 Z M29.5135455,26.955122 C27.3973636,26.955122 25.8598788,26.5897561 24.2830152,25.8607317 C22.7736234,25.1895443 21.4974712,24.0874808 20.6156515,22.6936585 C19.7493182,21.3130081 19.3161515,19.6563415 19.3161515,17.7236585 C19.2895354,16.0839133 19.6725771,14.463341 20.4307424,13.0080488 C21.1616064,11.628055 22.2700134,10.4830931 23.6272727,9.70609756 C25.0129495,8.89682927 26.6177778,8.49219512 28.4417576,8.49219512 C31.0544545,8.49219512 33.132399,9.27300813 34.6755909,10.8346341 C36.2187828,12.3962602 36.9875253,14.5127642 36.9818182,17.1841463 C36.9903518,17.885878 36.9231931,18.5864904 36.7815,19.2739024 L25.2931667,19.2739024 C25.608197,20.2846341 26.0054091,20.962439 26.8734545,21.4456098 C27.7415,21.9287805 28.8132879,22.2378049 30.3216667,22.2378049 C31.3092625,22.2358001 32.2941422,22.1345569 33.2613788,21.9356098 C34.252697,21.7341463 34.7766061,21.6214634 35.5419242,21.2526829 L37.0006515,25.4117073 C35.7907997,25.9412297 34.5282388,26.3418264 33.2339848,26.6068293 C32.0053287,26.8348696 30.7581653,26.9491769 29.5084091,26.9482927 L29.5135455,26.955122 Z M31.3112727,15.6356098 C31.2199596,14.737561 30.9100657,14.0301626 30.3815909,13.5134146 C29.8339775,12.9889624 29.0960188,12.7091524 28.3373182,12.7382927 C26.625197,12.7382927 25.5779495,13.7057724 25.1955758,15.6407317 L31.3112727,15.6356098 Z" id="Shape" fill-rule="nonzero"></path>
                        <path d="M41.0498182,34.9743902 C40.3160479,34.9756226 39.5840559,34.9023999 38.8651515,34.7558537 C38.1546212,34.6090244 37.2009697,34.305122 36.7729394,34.0592683 L38.4662273,29.2326829 C39.1510758,29.4495122 39.3770758,29.4836585 40.2999091,29.4836585 C41.1097424,29.4836585 41.7517879,29.2736585 42.2260455,28.8587805 C42.700303,28.4439024 43.1591515,27.6978049 43.6111515,26.6187805 L44.1504697,25.372439 L37.403,9.03170732 L43.8183182,9.03170732 L47.3983636,19.2414634 L50.6085909,9.03170732 L57.0632879,9.03170732 L49.7645152,27.1292683 C48.9084545,29.2417886 48.0809293,30.8534959 47.2819394,31.9643902 C46.4829495,33.0752846 45.5989242,33.8560976 44.6298636,34.3068293 C43.660803,34.7507317 42.4674545,34.973252 41.0498182,34.9743902 Z M85.6711212,26.95 C84.238274,26.9717003 82.8296995,26.5797817 81.6151061,25.8214634 C80.3891745,25.0317148 79.407073,23.918204 78.7781212,22.604878 C78.0795758,21.215122 77.730303,19.610813 77.730303,17.7919512 C77.7092829,16.1800967 78.0558686,14.5845548 78.7438788,13.1258537 C79.382117,11.7670075 80.3735081,10.6033135 81.6151061,9.75560976 C82.8587887,8.91172918 84.3330614,8.47056916 85.837197,8.49219512 C86.8353074,8.48321844 87.82085,8.7145635 88.7101364,9.16658537 C89.564585,9.59371487 90.2878932,10.2424528 90.8040606,11.0446341 L90.8725455,9.02317073 L96.5824697,9.02317073 L96.5824697,26.4156098 L90.8725455,26.4156098 L90.8040606,24.4282927 C90.2858705,25.2335735 89.5531312,25.8791286 88.6878788,26.2926829 C87.7451664,26.7418646 86.710629,26.9663108 85.6659848,26.9482927 L85.6711212,26.95 Z M87.3267424,21.56 C88.2894361,21.5914068 89.2168679,21.1971045 89.8606818,20.4826829 C90.5124293,19.7621951 90.8388737,18.840813 90.8400152,17.7185366 C90.8411566,16.5962602 90.5147121,15.6754472 89.8606818,14.9560976 C89.2164482,14.2422613 88.2893031,13.8480809 87.3267424,13.8787805 C86.3595828,13.8500037 85.427963,14.2434283 84.7756818,14.9560976 C84.1113788,15.6765854 83.7792273,16.595122 83.7792273,17.7185366 C83.7792273,18.8419512 84.1113788,19.7673171 84.7756818,20.4809756 C85.425889,21.1973201 86.3582394,21.5935491 87.3267424,21.565122 L87.3267424,21.56 Z M100.018697,9.03170732 L105.930652,9.03170732 L105.999136,11.625122 C106.369873,10.7514113 106.978353,9.99856315 107.755773,9.45170732 C108.524788,8.9404708 109.432438,8.67650712 110.356485,8.69536585 C111.213789,8.72956344 112.059293,8.90673059 112.857894,9.2195122 L111.438545,14.6231707 C110.864331,14.4196626 110.256673,14.3263945 109.647667,14.3482927 C108.476576,14.3482927 107.592551,14.7358537 106.995591,15.5109756 C106.398631,16.2860976 106.100152,17.4368293 106.100152,18.9631707 L106.100152,26.4104878 L100.018697,26.4104878 L100.018697,9.03170732 Z M72.0477727,21.495122 C70.6506818,21.495122 69.5583485,21.1644715 68.7707727,20.5031707 C67.983197,19.8418699 67.5888384,18.9147967 67.587697,17.7219512 C67.587697,16.5552846 67.9763485,15.6344715 68.7536515,14.9595122 C69.5309545,14.2845528 70.5953232,13.9476423 71.9467576,13.9487805 C73.0898544,13.9767657 74.2231759,14.1664639 75.3127879,14.5121951 L76.9701212,9.78634146 C76.1544845,9.40155736 75.2958038,9.11498731 74.4122121,8.93268293 C73.347703,8.69062348 72.2595727,8.56694187 71.1677424,8.56390244 C69.2535909,8.56390244 67.564298,8.96796748 66.0998636,9.77609756 C64.6842658,10.5372465 63.5132455,11.6818985 62.7218485,13.0780488 C61.9203268,14.5201597 61.5123793,16.1467822 61.5387727,17.7953659 C61.5387727,19.6597561 61.9491111,21.2771545 62.7697879,22.647561 C63.5790087,24.0041611 64.7647119,25.0981851 66.1837576,25.797561 C67.6356364,26.5260163 69.3078081,26.890813 71.2002727,26.8919512 C72.2961807,26.8916773 73.3881759,26.7615787 74.453303,26.5043902 C75.261202,26.3154829 76.045587,26.0377675 76.7920606,25.6763415 L75.1809545,21 C74.1626915,21.3011055 73.109441,21.4686936 72.0477727,21.4985366 L72.0477727,21.495122 Z" id="Shape" fill-rule="nonzero"></path>
                        <polygon id="Path" points="112.056621 29.6646341 112.056621 34.4878049 62.1226061 34.4878049 62.1226061 29.6646341"></polygon>
                    </g>
                </g>
            </g>
        </g>
    </g>
</svg>