<?xml version="1.0" encoding="UTF-8"?>
<svg width="135px" height="27px" viewBox="0 0 135 27" version="1.1" xmlns="http://www.w3.org/2000/svg" xmlns:xlink="http://www.w3.org/1999/xlink">
    <!-- Generator: Sketch 52.5 (67469) - http://www.bohemiancoding.com/sketch -->
    <title>Logo_Zalando_White</title>
    <desc>Created with Sketch.</desc>
    <g id="v.02_1" stroke="none" stroke-width="1" fill="none" fill-rule="evenodd">
        <g id="HiveConf_Landing_Page" transform="translate(-500.000000, -5071.000000)" fill="#FFFFFF">
            <g id="HiveConf'18" transform="translate(-109.000000, 3325.000000)">
                <g id="Companies" transform="translate(275.000000, 1527.000000)">
                    <g id="Logo_Zalando_White" transform="translate(334.000000, 219.000000)">
                        <path d="M45.0391154,22.3564202 L33.4311923,22.3564202 C33.2496809,22.3601778 33.0745049,22.2888857 32.9461301,22.1590123 C32.8177553,22.029139 32.7472858,21.8519181 32.751,21.6682879 L32.751,20.2352918 C32.7426923,19.8833463 32.8548462,19.7268093 33.0677308,19.4589105 L42.3100385,8.59272374 L33.2546538,8.59272374 C33.0729538,8.59618211 32.8976868,8.52468308 32.7691827,8.39467896 C32.6406787,8.26467484 32.5700046,8.08736191 32.5734231,7.90354086 L32.5734231,6.88867704 C32.5697186,6.70467556 32.6402662,6.52708723 32.7688023,6.39685247 C32.8973385,6.26661772 33.07277,6.19497611 33.2546538,6.19844358 L44.9799231,6.19844358 C45.1615315,6.19497591 45.3366991,6.26650677 45.4650405,6.39654456 C45.5933819,6.52658235 45.6638201,6.70390359 45.6601154,6.88762646 L45.6601154,8.35108949 C45.6634717,8.62285639 45.5578145,8.88439713 45.3672692,9.07599222 L36.1052308,19.9610895 L45.036,19.9610895 C45.2174246,19.9576309 45.3924276,20.0290192 45.520737,20.1588264 C45.6490464,20.2886335 45.719611,20.4656793 45.7161923,20.6492218 L45.7161923,21.6640856 C45.7204917,21.8479839 45.650245,22.0256573 45.5217718,22.1558285 C45.3932987,22.2859998 45.2177827,22.3573375 45.036,22.3532685 L45.0391154,22.3564202 Z M67.9174615,22.6526848 C68.7482308,22.6358755 69.3640385,22.4688327 69.6049615,22.1956809 C69.6853286,22.1116588 69.7268233,21.9971706 69.7191923,21.8805058 C69.7129615,21.7891051 69.7129615,21.7891051 69.4855385,20.7070039 L69.4855385,20.6817899 C69.4367308,20.3991829 69.2363077,20.2710117 69.0701538,20.2710117 L69.0473077,20.2710117 C69.0473077,20.2710117 68.8396154,20.2615564 68.6319231,20.2615564 C68.0389615,20.2415953 67.5477692,20.1564981 67.5373846,19.2771595 L67.5373846,0.925564202 C67.5373846,0.620894942 67.3546154,0.305719844 67.0046538,0.295214008 L66.9008077,0.295214008 L65.2797692,0.715447471 C65.0035385,0.74381323 64.7158846,0.942373541 64.7283462,1.3111284 L64.7283462,19.339144 C64.7283462,21.4749805 65.8644231,22.6516342 67.9174615,22.6558366 L67.9174615,22.6526848 Z M100.680923,22.3532685 L99.2385,22.3532685 C99.0568104,22.3573164 98.8813617,22.2861525 98.7527586,22.1562466 C98.6241556,22.0263406 98.5535452,21.8489526 98.5572692,21.6651362 L98.5572692,10.6203502 C98.5313077,8.75136187 97.9788462,8.23237354 95.9891538,8.20400778 C93.7398462,8.20400778 91.4614615,8.77447471 90.7106538,8.98249027 L90.7106538,21.6672374 C90.7207319,21.8476468 90.6563987,22.0242048 90.532987,22.1548318 C90.4095752,22.2854588 90.2381395,22.358454 90.0595385,22.3564202 L88.5807692,22.3564202 C88.3989929,22.3607698 88.2233695,22.2897031 88.0947002,22.1597302 C87.966031,22.0297574 87.8955164,21.8521926 87.8995385,21.6682879 L87.8995385,9.27770428 C87.8787692,8.13046693 87.9846923,7.33727626 89.5974231,6.80883268 C91.1416154,6.26988327 94.0960385,5.81287938 96.0483462,5.81077821 C99.7681154,5.81077821 101.355923,7.17653696 101.361115,10.3514008 L101.361115,21.6672374 C101.365415,21.8511356 101.295168,22.028809 101.166695,22.1589803 C101.038222,22.2891515 100.862706,22.3604893 100.680923,22.3564202 L100.680923,22.3532685 Z M115.219385,8.65680934 C113.994434,8.34648449 112.737421,8.18426155 111.474692,8.17354086 C108.359308,8.2029572 107.048769,9.05918288 107.016577,14.2931907 C107.052923,20.0409339 108.744577,20.3519066 111.501692,20.3865759 L111.501692,20.5063424 L111.501692,20.381323 C112.755915,20.3728382 114.003904,20.2019552 115.215231,19.8728405 L115.215231,8.65680934 L115.219385,8.65680934 Z M115.979538,22.1421012 L115.807154,22.1851751 C114.887077,22.4215564 113.626385,22.7451362 111.416538,22.7451362 C105.327,22.7356809 104.131731,19.6280545 104.1255,14.2627237 C104.132769,8.11050584 106.060154,5.81918288 111.238962,5.81077821 C112.58219,5.79751196 113.921901,5.95206617 115.227692,6.27093385 L115.227692,1.31533074 C115.219385,1.09785992 115.317,0.812101167 115.824808,0.714396887 L117.441692,0.294163424 L117.529962,0.294163424 C117.902769,0.302568093 118.033615,0.63770428 118.034654,0.924513619 L118.034654,19.5482101 C118.059577,20.7238132 117.923538,21.7323735 115.988885,22.1421012 L115.979538,22.1421012 Z M127.796192,20.3561089 C123.805385,20.3392996 123.604962,18.2664981 123.577962,14.2984436 C123.604962,10.3062257 123.805385,8.22501946 127.796192,8.20505837 C131.788038,8.2218677 131.987423,10.3062257 132.015462,14.2931907 C131.987423,18.2633463 131.787,20.3361479 127.796192,20.3529572 L127.796192,20.3561089 Z M127.796192,5.81182879 C121.217538,5.82128405 120.658846,10.1959144 120.652615,14.2942412 C120.646385,18.3925681 121.217538,22.7367315 127.796192,22.7461868 C134.371731,22.7367315 134.931462,18.3904669 134.940808,14.2931907 C134.934577,10.0068093 134.376923,5.82128405 127.796192,5.81182879 Z M82.1828077,14.3793385 C81.5244231,14.3866926 78.3280385,14.4392218 77.0548846,14.7144747 L76.9510385,14.736537 C75.5200385,15.0601167 74.3901923,15.3154086 74.3756538,17.4585992 C74.3756538,20.1543969 76.4183077,20.4002335 78.5066538,20.4117899 L78.5066538,20.532607 L78.5066538,20.4117899 C79.7532887,20.4230654 80.9938917,20.2355118 82.1828077,19.8560311 L82.1828077,14.3793385 Z M85.0053462,10.441751 L85.0053462,19.0155642 C85.0333846,21.1450973 84.4923462,21.8258755 82.3728462,22.3238521 C81.092656,22.5961448 79.7888276,22.738678 78.4806923,22.7493385 C76.2106154,22.7440856 71.4856154,22.7346304 71.4835385,17.5815175 C71.469,13.5220623 73.8792692,12.8171206 76.7921538,12.3643191 C78.3912194,12.1215286 80.0061053,12.0010704 81.6230769,12.0039689 C81.8899615,12.0039689 82.0633846,12.0039689 82.1651538,12.0039689 L82.1651538,10.5604669 C82.1558077,9.59392996 82.1506154,9.00770428 81.2575385,8.66941634 C80.7061154,8.4340856 79.8846923,8.32587549 78.6613846,8.32587549 C76.6467692,8.32587549 74.8419231,8.78287938 73.6476923,9.08544747 L73.1918077,9.19050584 C73.1362217,9.20617425 73.0791173,9.21568533 73.0215,9.2188716 C72.775533,9.21872886 72.5599988,9.05228822 72.495,8.81229572 L72.4877308,8.78603113 L72.2187692,7.40766537 L72.2187692,7.33622568 C72.2277436,7.06135885 72.4118266,6.82410461 72.6736154,6.75 C73.6362692,6.38754864 76.1805,5.81287938 78.921,5.81077821 C80.9241923,5.81077821 82.3697308,6.07552529 83.3427692,6.61762646 C85.0043077,7.5085214 85.0043077,9.13902724 85.0043077,10.441751 L85.0053462,10.441751 Z M58.5692308,19.8560311 C57.3824527,20.2357229 56.1439766,20.423982 54.8993077,20.4138911 C52.8109615,20.3981323 50.7714231,20.1564981 50.7683077,17.4607004 C50.7818077,15.3175097 51.9106154,15.0622179 53.3436923,14.7386381 L53.4475385,14.7165759 C54.7217308,14.441323 57.9129231,14.3887938 58.5765,14.3814397 L58.5765,19.8560311 L58.5692308,19.8560311 Z M59.7291923,6.61867704 C58.7561538,6.07657588 57.3085385,5.81392996 55.3063846,5.81182879 C52.5658846,5.81182879 50.0206154,6.38859922 49.0579615,6.75735409 C48.7955787,6.82942176 48.6113352,7.06754461 48.6051923,7.34252918 L48.6051923,7.41396887 L48.8751923,8.79233463 L48.8814231,8.81859922 C48.9464219,9.05859172 49.1619561,9.22503237 49.4079231,9.2251751 C49.4651902,9.22190526 49.5219416,9.21239499 49.5771923,9.19680934 L50.0330769,9.09175097 C51.2273077,8.78918288 53.0311154,8.33217899 55.0457308,8.33217899 C56.2690385,8.33217899 57.0904615,8.43723735 57.6418846,8.67571984 C58.536,9.01715953 58.5422308,9.60338521 58.5515769,10.5667704 L58.5515769,12.0081712 C58.4477308,12.0081712 58.2763846,12.0081712 58.0095,12.0081712 C56.389623,12.0021427 54.7716059,12.1197919 53.1692308,12.3601167 C50.2615385,12.8129183 47.8471154,13.5157588 47.8626923,17.5773152 C47.8626923,22.730428 52.5876923,22.7398833 54.8588077,22.7451362 C56.166977,22.735071 57.4708639,22.5925314 58.7509615,22.3196498 C60.8704615,21.8216732 61.4115,21.1408949 61.3834615,19.0113619 L61.3834615,10.441751 C61.3834615,9.1348249 61.3907308,7.5085214 59.7219231,6.61762646 L59.7291923,6.61867704 Z" id="path4101" fill-rule="nonzero"></path>
                        <path d="M5.37611538,26.9096498 C4.39165385,26.9096498 3.84542308,26.6764202 3.55361538,26.5051751 C3.14861538,26.2698444 2.40196154,25.6699611 1.73319231,23.8881712 C0.6615,21.0368872 0.0280384615,17.5552529 0,13.462179 L0,13.4474708 C0.0280384615,9.35019455 0.6615,5.87276265 1.73319231,3.02042802 C2.40196154,1.23968872 3.14861538,0.638754864 3.55361538,0.403424125 C3.84230769,0.232178988 4.39165385,0 5.37507692,0 C5.8198601,0.00325187292 6.2636685,0.0425998951 6.70223077,0.11766537 C9.68053846,0.605136187 12.9807692,1.79124514 16.4949231,3.81361868 L16.5084231,3.81992218 C19.9976538,5.89062257 22.6613077,8.18614786 24.5679231,10.5520623 C25.7569615,12.0228794 25.8981923,12.9820623 25.8981923,13.4548249 C25.8981923,13.9275875 25.7569615,14.8815175 24.5679231,16.356537 C22.6613077,18.7224514 19.9986923,21.0190272 16.5084231,23.0897276 L16.4949231,23.0970817 C12.9807692,25.1184047 9.68053846,26.3045136 6.70223077,26.7898833 C6.26401511,26.8649286 5.82055334,26.9042767 5.37611538,26.9075486" id="path4105"></path>
                    </g>
                </g>
            </g>
        </g>
    </g>
</svg>