<?xml version="1.0" encoding="UTF-8"?>
<svg width="20px" height="20px" viewBox="0 0 20 20" version="1.1" xmlns="http://www.w3.org/2000/svg" xmlns:xlink="http://www.w3.org/1999/xlink">
    <!-- Generator: Sketch 52.5 (67469) - http://www.bohemiancoding.com/sketch -->
    <title>Facebook</title>
    <desc>Created with Sketch.</desc>
    <g id="v.02_1" stroke="none" stroke-width="1" fill="none" fill-rule="evenodd">
        <g id="HiveConf_Landing_Page" transform="translate(-1232.000000, -8795.000000)" fill="#4A4A4A">
            <path d="M1250.89583,8795 L1233.11111,8795 C1232.49746,8795 1232,8795.49746 1232,8796.11111 L1232,8813.90278 C1232.0076,8814.511 1232.50284,8815.00005 1233.11111,8815 L1242.69444,8815 L1242.69444,8807.26528 L1240.08611,8807.26528 L1240.08611,8804.23889 L1242.68333,8804.23889 L1242.68333,8802.01667 C1242.68333,8799.43333 1244.26111,8798.02639 1246.57222,8798.02639 C1247.35017,8798.02383 1248.12769,8798.06324 1248.90139,8798.14444 L1248.90139,8800.83333 L1247.30556,8800.83333 C1246.05556,8800.83333 1245.80833,8801.42917 1245.80833,8802.30278 L1245.80833,8804.23889 L1248.80556,8804.23889 L1248.41667,8807.26528 L1245.80833,8807.26528 L1245.80833,8815 L1250.89583,8815 C1251.50407,8814.99621 1251.99621,8814.50407 1252,8813.89583 L1252,8796.11111 C1252.00001,8795.50016 1251.50677,8795.00382 1250.89583,8795 Z" id="Facebook"></path>
        </g>
    </g>
</svg>