<?xml version="1.0" encoding="UTF-8"?>
<svg width="20px" height="20px" viewBox="0 0 20 20" version="1.1" xmlns="http://www.w3.org/2000/svg" xmlns:xlink="http://www.w3.org/1999/xlink">
    <!-- Generator: Sketch 52.5 (67469) - http://www.bohemiancoding.com/sketch -->
    <title>Instagram</title>
    <desc>Created with Sketch.</desc>
    <defs>
            <filter id="colorFilter">
              <feColorMatrix
                color-interpolation-filters="sRGB"
                type="matrix"
                values="0.29 0   0   0   0
                        0   0.29  0   0   0
                        0   0   0.29  0   0
                        0   0   0   1   0 "/>
            </filter>
          </defs>
    <g id="v.02_1" stroke="none" stroke-width="1" fill="" fill-rule="evenodd">
        <g id="HiveConf_Landing_Page" transform="translate(-1266.000000, -8795.000000)" fill="">
            <path d="M1276.00002,8795 C1278.71584,8795 1279.05638,8795.01151 1280.12299,8795.06018 C1281.18737,8795.10872 1281.91431,8795.27779 1282.55038,8795.52501 C1283.20797,8795.78052 1283.76564,8796.12246 1284.32161,8796.67839 C1284.87754,8797.23436 1285.21948,8797.79203 1285.47503,8798.44962 C1285.72221,8799.08569 1285.89128,8799.81263 1285.93982,8800.87701 C1285.98849,8801.94362 1286,8802.28416 1286,8805.00002 C1286,8807.71584 1285.98849,8808.05638 1285.93982,8809.12299 C1285.89128,8810.18737 1285.72221,8810.91431 1285.47503,8811.55038 C1285.21948,8812.20797 1284.87754,8812.76564 1284.32161,8813.32161 C1283.76564,8813.87754 1283.20797,8814.21948 1282.55038,8814.47503 C1281.91431,8814.72221 1281.18737,8814.89128 1280.12299,8814.93982 C1279.05638,8814.98849 1278.71584,8815 1276.00002,8815 C1273.28416,8815 1272.94362,8814.98849 1271.87701,8814.93982 C1270.81263,8814.89128 1270.08569,8814.72221 1269.44962,8814.47503 C1268.79203,8814.21948 1268.23436,8813.87754 1267.67839,8813.32161 C1267.12246,8812.76564 1266.78052,8812.20797 1266.52501,8811.55038 C1266.27779,8810.91431 1266.10872,8810.18737 1266.06018,8809.12299 C1266.01151,8808.05638 1266,8807.71584 1266,8805.00002 C1266,8802.28416 1266.01151,8801.94362 1266.06018,8800.87701 C1266.10872,8799.81263 1266.27779,8799.08569 1266.52501,8798.44962 C1266.78052,8797.79203 1267.12246,8797.23436 1267.67839,8796.67839 C1268.23436,8796.12246 1268.79203,8795.78052 1269.44962,8795.52501 C1270.08569,8795.27779 1270.81263,8795.10872 1271.87701,8795.06018 C1272.94362,8795.01151 1273.28416,8795 1276.00002,8795 Z M1276.00002,8796.8018 C1273.32989,8796.8018 1273.0136,8796.812 1271.95914,8796.86011 C1270.98415,8796.90457 1270.45466,8797.06748 1270.10229,8797.20443 C1269.63551,8797.38583 1269.30239,8797.60253 1268.95248,8797.95248 C1268.60253,8798.30239 1268.38583,8798.63551 1268.20443,8799.10229 C1268.06748,8799.45466 1267.90457,8799.98415 1267.86011,8800.95914 C1267.812,8802.0136 1267.8018,8802.32989 1267.8018,8805.00002 C1267.8018,8807.67011 1267.812,8807.9864 1267.86011,8809.04086 C1267.90457,8810.01585 1268.06748,8810.54534 1268.20443,8810.89771 C1268.38583,8811.36449 1268.60257,8811.69761 1268.95248,8812.04752 C1269.30239,8812.39747 1269.63551,8812.61417 1270.10229,8812.79557 C1270.45466,8812.93252 1270.98415,8813.09543 1271.95914,8813.13989 C1273.01348,8813.188 1273.32969,8813.1982 1276.00002,8813.1982 C1278.67031,8813.1982 1278.98656,8813.188 1280.04086,8813.13989 C1281.01585,8813.09543 1281.54534,8812.93252 1281.89771,8812.79557 C1282.36449,8812.61417 1282.69761,8812.39747 1283.04752,8812.04752 C1283.39747,8811.69761 1283.61417,8811.36449 1283.79557,8810.89771 C1283.93252,8810.54534 1284.09543,8810.01585 1284.13989,8809.04086 C1284.188,8807.9864 1284.1982,8807.67011 1284.1982,8805.00002 C1284.1982,8802.32989 1284.188,8802.0136 1284.13989,8800.95914 C1284.09543,8799.98415 1283.93252,8799.45466 1283.79557,8799.10229 C1283.61417,8798.63551 1283.39747,8798.30239 1283.04752,8797.95248 C1282.69761,8797.60253 1282.36449,8797.38583 1281.89771,8797.20443 C1281.54534,8797.06748 1281.01585,8796.90457 1280.04086,8796.86011 C1278.9864,8796.812 1278.67011,8796.8018 1276.00002,8796.8018 Z M1276.00002,8808.33333 C1277.84096,8808.33333 1279.33333,8806.84096 1279.33333,8805.00002 C1279.33333,8803.15904 1277.84096,8801.66667 1276.00002,8801.66667 C1274.15904,8801.66667 1272.66667,8803.15904 1272.66667,8805.00002 C1272.66667,8806.84096 1274.15904,8808.33333 1276.00002,8808.33333 Z M1276.00002,8799.86487 C1278.83607,8799.86487 1281.13513,8802.16393 1281.13513,8805.00002 C1281.13513,8807.83607 1278.83607,8810.13513 1276.00002,8810.13513 C1273.16393,8810.13513 1270.86487,8807.83607 1270.86487,8805.00002 C1270.86487,8802.16393 1273.16393,8799.86487 1276.00002,8799.86487 Z M1282.53803,8799.66199 C1282.53803,8800.32474 1282.00076,8800.86197 1281.33801,8800.86197 C1280.6753,8800.86197 1280.13803,8800.32474 1280.13803,8799.66199 C1280.13803,8798.99924 1280.6753,8798.46197 1281.33801,8798.46197 C1282.00076,8798.46197 1282.53803,8798.99924 1282.53803,8799.66199 Z" id="Instagram"></path>
        </g>
    </g>
</svg>
