<?xml version="1.0" encoding="UTF-8"?>
<svg width="20px" height="20px" viewBox="0 0 20 20" version="1.1" xmlns="http://www.w3.org/2000/svg" xmlns:xlink="http://www.w3.org/1999/xlink">
    <!-- Generator: Sketch 52.5 (67469) - http://www.bohemiancoding.com/sketch -->
    <title>Linkedin</title>
    <desc>Created with Sketch.</desc>
    <defs>
            <filter id="colorFilter">
              <feColorMatrix
                color-interpolation-filters="sRGB"
                type="matrix"
                values="0.29 0   0   0   0
                        0   0.29  0   0   0
                        0   0   0.29  0   0
                        0   0   0   1   0 "/>
            </filter>
          </defs>
    <g id="v.02_1" stroke="none" stroke-width="1" fill="" fill-rule="evenodd">
        <g id="HiveConf_Landing_Page" transform="translate(-1197.000000, -8795.000000)" fill="">
            <path d="M1214.04359,8812.04222 L1211.0783,8812.04222 L1211.0783,8807.40037 C1211.0783,8806.29333 1211.05867,8804.86963 1209.53676,8804.86963 C1207.993,8804.86963 1207.75744,8806.0763 1207.75744,8807.32111 L1207.75744,8812.04222 L1204.79214,8812.04222 L1204.79214,8802.49778 L1207.63743,8802.49778 L1207.63743,8803.80296 L1207.67817,8803.80296 C1208.07411,8803.05222 1209.04193,8802.26111 1210.48494,8802.26111 C1213.48913,8802.26111 1214.04359,8804.23741 1214.04359,8806.80741 L1214.04359,8812.04222 Z M1201.44794,8801.1937 C1200.49717,8801.1937 1199.72862,8800.42296 1199.72862,8799.47407 C1199.72862,8798.52407 1200.49717,8797.75333 1201.44794,8797.75333 C1202.39613,8797.75333 1203.1669,8798.52407 1203.1669,8799.47407 C1203.1669,8800.42296 1202.39613,8801.1937 1201.44794,8801.1937 Z M1199.96418,8812.04222 L1202.9317,8812.04222 L1202.9317,8802.49778 L1199.96418,8802.49778 L1199.96418,8812.04222 Z M1198.47598,8795 C1197.66188,8795 1197,8795.64593 1197,8796.44222 L1197,8813.55704 C1197,8814.35333 1197.66188,8815 1198.47598,8815 L1215.52069,8815 C1216.33664,8815 1217,8814.35333 1217,8813.55704 L1217,8796.44222 C1217,8795.64593 1216.33664,8795 1215.52069,8795 L1198.47598,8795 Z" id="Linkedin"></path>
        </g>
    </g>
</svg>
