<?xml version="1.0" encoding="UTF-8"?>
<svg width="20px" height="20px" viewBox="0 0 20 20" version="1.1" xmlns="http://www.w3.org/2000/svg" xmlns:xlink="http://www.w3.org/1999/xlink">
    <!-- Generator: Sketch 52.5 (67469) - http://www.bohemiancoding.com/sketch -->
    <title>Twitter</title>
    <desc>Created with Sketch.</desc>
    <g id="v.02_1" stroke="none" stroke-width="1" fill="none" fill-rule="evenodd">
        <g id="HiveConf_Landing_Page" transform="translate(-1301.000000, -8795.000000)" fill="#4A4A4A" fill-rule="nonzero">
            <path d="M1318.5,8815 L1303.5,8815 C1302.12,8815 1301,8813.88 1301,8812.5 L1301,8797.5 C1301,8796.12 1302.12,8795 1303.5,8795 L1318.5,8795 C1319.88,8795 1321,8796.12 1321,8797.5 L1321,8812.5 C1321,8813.88 1319.88,8815 1318.5,8815 Z M1308.68,8810.08 C1313.395,8810.08 1315.975,8806.17 1315.975,8802.785 C1315.975,8802.675 1315.975,8802.565 1315.97,8802.455 C1316.47,8802.095 1316.905,8801.64 1317.25,8801.125 C1316.79,8801.33 1316.295,8801.465 1315.775,8801.53 C1316.305,8801.215 1316.71,8800.71 1316.905,8800.11 C1316.41,8800.405 1315.86,8800.615 1315.275,8800.73 C1314.805,8800.23 1314.14,8799.92 1313.405,8799.92 C1311.99,8799.92 1310.84,8801.07 1310.84,8802.485 C1310.84,8802.685 1310.865,8802.88 1310.905,8803.07 C1308.775,8802.965 1306.885,8801.94 1305.62,8800.39 C1305.4,8800.77 1305.275,8801.21 1305.275,8801.68 C1305.275,8802.57 1305.73,8803.355 1306.415,8803.815 C1305.995,8803.8 1305.6,8803.685 1305.255,8803.495 C1305.255,8803.505 1305.255,8803.515 1305.255,8803.53 C1305.255,8804.77 1306.14,8805.81 1307.31,8806.045 C1307.095,8806.105 1306.87,8806.135 1306.635,8806.135 C1306.47,8806.135 1306.31,8806.12 1306.155,8806.09 C1306.48,8807.11 1307.43,8807.85 1308.55,8807.87 C1307.67,8808.56 1306.565,8808.97 1305.365,8808.97 C1305.16,8808.97 1304.955,8808.96 1304.755,8808.935 C1305.885,8809.655 1307.235,8810.08 1308.68,8810.08 Z" id="Twitter"></path>
        </g>
    </g>
</svg>