<svg id="Layer_1" data-name="Layer 1" xmlns="http://www.w3.org/2000/svg" viewBox="0 0 283.63 82.1"><defs><style>.cls-1{fill:#262626;}</style></defs><title>harver_logo_RGB</title><path class="cls-1" d="M185.93,82.22a76.11,76.11,0,0,0-17.32,2.47S170,57.33,155.77,52.5c3.56,9.34,2.94,28.77,2.94,29.82v49.62a1.43,1.43,0,0,0,1.53,1.43h8a1.36,1.36,0,0,0,1.44-1.43v-40A66.42,66.42,0,0,1,184.2,90c5.77,0,7.69,2.09,7.69,7.41v34.51a1.39,1.39,0,0,0,1.54,1.43h7.89a1.36,1.36,0,0,0,1.44-1.43v-36C202.76,85.55,197.09,82.22,185.93,82.22Zm65.79,2.57c-3-1.62-7.5-2.57-14.33-2.57a71.07,71.07,0,0,0-20.68,3.14,1.36,1.36,0,0,0-1.06,1.33V87l1.16,5.32a.9.9,0,0,0,1,.76c.29,0,.48-.1.67-.1,3.27-.76,10.1-2.66,17-2.66,3.75,0,6.25.29,7.88,1,2.79,1.14,3,3.24,3,6.09v3.52l-17.51,2.85c-8.47,1.42-16,2.47-16,14.92,0,15.21,13.18,16,22.8,16a57.69,57.69,0,0,0,13-1.34c6.64-1.52,8.56-2.94,8.56-9.88V97.05C257.2,92,256.72,87.55,251.72,84.79Zm-5.38,40.88A33.26,33.26,0,0,1,236,127.19c-5.2,0-11.93-.57-11.93-8.75,0-6.75,4-7.13,8.18-7.79l14.14-2.28Zm49.44-43.16a6.38,6.38,0,0,0-2.21-.19h-1.64A57.33,57.33,0,0,0,275.68,85c-4.14,1.43-5.87,2.57-5.87,6.46v40.5c0,.86,1.25,1.43,1.54,1.43h8a1.35,1.35,0,0,0,1.44-1.43V92.3a61.26,61.26,0,0,1,14.72-1.52c1.16,0,1.35-.67,1.35-1.43V83.93A1.32,1.32,0,0,0,295.78,82.51Zm51.85.95h-8.37a1.8,1.8,0,0,0-1.93,1.42l-10.39,41.36h-2.5L312.8,84.88A1.62,1.62,0,0,0,311,83.46H302.8a1.39,1.39,0,0,0-1.35,1.42c0,.19.1.39.1.57l14.81,46.4a2,2,0,0,0,1.93,1.52h14.62a1.94,1.94,0,0,0,1.92-1.52l14.24-46.58c0-.1.09-.29.09-.39A1.43,1.43,0,0,0,347.63,83.46Zm30.68-1.24c-18.85,0-23.28,9.13-23.28,26.34,0,18.15,6.74,26.05,25.59,26.05a49.36,49.36,0,0,0,17.12-3c.58-.29,1.06-.67,1.06-1.33a.54.54,0,0,0-.1-.38l-1.15-4.38c-.29-.85-.67-1.14-1.25-1.14a1,1,0,0,0-.48.1,47.7,47.7,0,0,1-13.76,2.28c-5.77,0-9.71-.86-12.41-3.42-2.3-2.19-3.46-4.85-3.55-9.51h33.47a1.71,1.71,0,0,0,1.63-1.81c.1-1.42.1-3.32.1-4.56,0-7.41-.86-13.4-3.94-17.68C394,84.88,388.12,82.22,378.31,82.22ZM366.1,106.47a41.61,41.61,0,0,1,.86-9.32c1.25-5.32,4.33-7.23,11.35-7.23,6.45,0,9.62,1.81,11.06,7.42a34.3,34.3,0,0,1,.87,9Zm72.24-24a6.44,6.44,0,0,0-2.22-.19h-1.63A57.4,57.4,0,0,0,418.23,85c-4.13,1.43-5.86,2.57-5.86,6.46v40.5c0,.86,1.24,1.43,1.53,1.43h8a1.36,1.36,0,0,0,1.44-1.43V92.3a61.2,61.2,0,0,1,14.72-1.52c1.15,0,1.34-.67,1.34-1.43V83.93A1.31,1.31,0,0,0,438.34,82.51Z" transform="translate(-155.77 -52.5)"/></svg>